<svg width="37" height="27" viewBox="0 0 37 27" fill="none" xmlns="http://www.w3.org/2000/svg">
<path d="M28.704 26.688C25.568 26.688 23.296 25.568 21.888 23.328C21.248 22.368 20.736 21.184 20.352 19.776C19.968 18.368 19.776 16.896 19.776 15.36C19.776 12.032 20.608 9.024 22.272 6.336C24 3.648 26.528 1.536 29.856 0L30.72 1.728C28.864 2.496 27.232 3.68 25.824 5.28C24.48 6.88 23.68 8.512 23.424 10.176C23.232 10.944 23.136 11.68 23.136 12.384C23.136 13.024 23.232 13.632 23.424 14.208C24.832 12.672 26.688 11.904 28.992 11.904C31.232 11.904 33.056 12.576 34.464 13.92C35.872 15.2 36.576 16.992 36.576 19.296C36.576 21.472 35.84 23.264 34.368 24.672C32.896 26.016 31.008 26.688 28.704 26.688ZM8.928 26.688C5.792 26.688 3.52 25.568 2.112 23.328C1.472 22.368 0.96 21.184 0.576 19.776C0.192 18.368 0 16.896 0 15.36C0 12.032 0.832 9.024 2.496 6.336C4.224 3.648 6.752 1.536 10.08 0L10.944 1.728C9.088 2.496 7.456 3.68 6.048 5.28C4.704 6.88 3.904 8.512 3.648 10.176C3.456 10.944 3.36 11.68 3.36 12.384C3.36 13.024 3.456 13.632 3.648 14.208C5.056 12.672 6.912 11.904 9.216 11.904C11.456 11.904 13.28 12.576 14.688 13.92C16.096 15.2 16.8 16.992 16.8 19.296C16.8 21.472 16.064 23.264 14.592 24.672C13.12 26.016 11.232 26.688 8.928 26.688Z" fill="#ACB889"/>
</svg>
