<svg width="101" height="19" viewBox="0 0 101 19" fill="none" xmlns="http://www.w3.org/2000/svg">
<path d="M8.71875 0.84375C9.14062 0 10.3359 0.0351562 10.7227 0.84375L13.043 5.51953L18.1758 6.25781C19.0898 6.39844 19.4414 7.52344 18.7734 8.19141L15.082 11.8125L15.9609 16.9102C16.1016 17.8242 15.1172 18.5273 14.3086 18.1055L9.73828 15.6797L5.13281 18.1055C4.32422 18.5273 3.33984 17.8242 3.48047 16.9102L4.35938 11.8125L0.667969 8.19141C0 7.52344 0.351562 6.39844 1.26562 6.25781L6.43359 5.51953L8.71875 0.84375ZM28.9688 0.84375C29.3906 0 30.5859 0.0351562 30.9727 0.84375L33.293 5.51953L38.4258 6.25781C39.3398 6.39844 39.6914 7.52344 39.0234 8.19141L35.332 11.8125L36.2109 16.9102C36.3516 17.8242 35.3672 18.5273 34.5586 18.1055L29.9883 15.6797L25.3828 18.1055C24.5742 18.5273 23.5898 17.8242 23.7305 16.9102L24.6094 11.8125L20.918 8.19141C20.25 7.52344 20.6016 6.39844 21.5156 6.25781L26.6836 5.51953L28.9688 0.84375ZM49.2188 0.84375C49.6406 0 50.8359 0.0351562 51.2227 0.84375L53.543 5.51953L58.6758 6.25781C59.5898 6.39844 59.9414 7.52344 59.2734 8.19141L55.582 11.8125L56.4609 16.9102C56.6016 17.8242 55.6172 18.5273 54.8086 18.1055L50.2383 15.6797L45.6328 18.1055C44.8242 18.5273 43.8398 17.8242 43.9805 16.9102L44.8594 11.8125L41.168 8.19141C40.5 7.52344 40.8516 6.39844 41.7656 6.25781L46.9336 5.51953L49.2188 0.84375ZM69.4688 0.84375C69.8906 0 71.0859 0.0351562 71.4727 0.84375L73.793 5.51953L78.9258 6.25781C79.8398 6.39844 80.1914 7.52344 79.5234 8.19141L75.832 11.8125L76.7109 16.9102C76.8516 17.8242 75.8672 18.5273 75.0586 18.1055L70.4883 15.6797L65.8828 18.1055C65.0742 18.5273 64.0898 17.8242 64.2305 16.9102L65.1094 11.8125L61.418 8.19141C60.75 7.52344 61.1016 6.39844 62.0156 6.25781L67.1836 5.51953L69.4688 0.84375ZM89.7188 0.84375C90.1406 0 91.3359 0.0351562 91.7227 0.84375L94.043 5.51953L99.1758 6.25781C100.09 6.39844 100.441 7.52344 99.7734 8.19141L96.082 11.8125L96.9609 16.9102C97.1016 17.8242 96.1172 18.5273 95.3086 18.1055L90.7383 15.6797L86.1328 18.1055C85.3242 18.5273 84.3398 17.8242 84.4805 16.9102L85.3594 11.8125L81.668 8.19141C81 7.52344 81.3516 6.39844 82.2656 6.25781L87.4336 5.51953L89.7188 0.84375Z" fill="#F6D167"/>
</svg>
