<svg xmlns="http://www.w3.org/2000/svg" viewBox="0 0 48 48"><defs><style>.cls-1{fill:#dad7e5;}.cls-2{fill:#edebf2;}.cls-3{fill:#7c7d7d;}.cls-4{fill:#919191;}.cls-5{fill:#9fdbf3;}.cls-6{fill:#b2e5fb;}</style></defs><title>bathtube</title><g id="bathtube"><path class="cls-1" d="M47,26a2,2,0,0,1-2,2H3a2,2,0,0,1,0-4H45A2,2,0,0,1,47,26Z"/><path class="cls-2" d="M47,26H6a2,2,0,0,1-2-2H45A2,2,0,0,1,47,26Z"/><path class="cls-1" d="M45,28c-1.3,6.94-1.28,12.49-7.28,15.15-.26-.77-.55-2.15-2.09-2.15a1.92,1.92,0,0,0-1.9,1.9A3.23,3.23,0,0,0,34,44c-.1,0-18.85.07-20-.08l.14-.41a1.9,1.9,0,1,0-3.6-1.2l-.14.4A9.94,9.94,0,0,1,5.81,37L3,28Z"/><path class="cls-3" d="M14.27,42.9a18.65,18.65,0,0,1-1,3.07A1.9,1.9,0,0,1,9.83,44.5c.7-2.09.55-1.66.74-2.2A1.9,1.9,0,0,1,14.27,42.9Z"/><path class="cls-4" d="M14.27,42.9a18.65,18.65,0,0,1-1,3.07,1.89,1.89,0,0,1-1.48-2.47A18.91,18.91,0,0,1,12.69,41,1.9,1.9,0,0,1,14.27,42.9Z"/><path class="cls-3" d="M38.1,45.87a1.89,1.89,0,0,1-3.53-.17L34,44h0a3.29,3.29,0,0,1-.26-1.09,1.9,1.9,0,0,1,1.9-1.9c1.47,0,1.77,1.22,2.09,2.15C38.25,44.74,38.45,45.11,38.1,45.87Z"/><path class="cls-4" d="M38.1,45.87a1.91,1.91,0,0,1-2.53-1.16L35,43h0a2.24,2.24,0,0,1-.09-1.86,1.94,1.94,0,0,1,.73-.14c1.47,0,1.77,1.22,2.09,2.15C38.25,44.74,38.45,45.11,38.1,45.87Z"/><path class="cls-1" d="M15,10c-8.55,0-8-.1-8,0a4,4,0,0,1,8,0Z"/><path class="cls-5" d="M44,24H21.1A5,5,0,0,1,24,20.42,4.84,4.84,0,0,1,26.1,20a5,5,0,0,1,9.81.06A5,5,0,0,1,44,24Z"/><path class="cls-2" d="M45,28c-1.39,7.4-1.4,11.09-5.31,14H37.3A1.88,1.88,0,0,0,34,42H26.24A20.12,20.12,0,0,1,7.06,28Z"/><path class="cls-6" d="M43.9,23H26.58A2.59,2.59,0,0,1,24,20.42,5.2,5.2,0,0,1,26.1,20a5,5,0,0,1,9.81.06A5,5,0,0,1,43.9,23Z"/><path d="M44.91,23a6,6,0,0,0-8.44-4.42,6,6,0,0,0-11.13.48,6,6,0,0,0-5,3.94H4V5a3,3,0,1,1,6,.1C6.09,5.9,4.92,11,7,11h8c2.07,0,.92-5.1-3-5.9A5,5,0,1,0,2,5V23.18a3,3,0,0,0,.23,5.71c2.56,8.19,2.94,11.52,7,14.24l-.36,1.06A2.9,2.9,0,0,0,14.38,46L14.73,45c1.06.06-2.5,0,18.55,0l.34,1a2.9,2.9,0,0,0,5.5-1.83l-.18-.54A11,11,0,0,0,44.51,36l1.35-7.16A3,3,0,0,0,44.91,23ZM13.83,9H8.17A3,3,0,0,1,13.83,9ZM26,21a1,1,0,0,0,1.09-.68c1.57-4.85,7-4,7.89,0a1,1,0,0,0,1.59.57A4,4,0,0,1,42.86,23H22.54A4,4,0,0,1,26,21ZM10.9,45.63c-.35-.5-.14-.75.62-3a.9.9,0,0,1,1.58-.24c.35.5.14.75-.62,3A.93.93,0,0,1,10.9,45.63Zm24.62-.24-.74-2.21A.9.9,0,0,1,35.63,42c.81,0,.83.55,1.59,2.82C37.6,46,35.86,46.42,35.52,45.39Zm7-9.74a9,9,0,0,1-4.27,6.09A2.89,2.89,0,0,0,32.75,43c-22.11,0-16.45,0-17.5,0A2.88,2.88,0,0,0,10,41.23C7.16,39.13,7,37.56,4.36,29H43.79ZM45,27H3a1,1,0,0,1,0-2H45A1,1,0,0,1,45,27Z"/><path d="M8,13a1,1,0,0,0,0,2A1,1,0,0,0,8,13Z"/><path d="M8,16a1,1,0,0,0,0,2A1,1,0,0,0,8,16Z"/><path d="M8,19a1,1,0,0,0,0,2A1,1,0,0,0,8,19Z"/><path d="M11,13a1,1,0,0,0,0,2A1,1,0,0,0,11,13Z"/><path d="M11,16a1,1,0,0,0,0,2A1,1,0,0,0,11,16Z"/><path d="M11,19a1,1,0,0,0,0,2A1,1,0,0,0,11,19Z"/><path d="M14,13a1,1,0,0,0,0,2A1,1,0,0,0,14,13Z"/><path d="M14,16a1,1,0,0,0,0,2A1,1,0,0,0,14,16Z"/><path d="M14,19a1,1,0,0,0,0,2A1,1,0,0,0,14,19Z"/><path d="M42,15a1,1,0,0,0,0-2A1,1,0,0,0,42,15Z"/><path d="M34,11a1,1,0,0,0,0-2A1,1,0,0,0,34,11Z"/><path d="M25,14a1,1,0,0,0,0-2A1,1,0,0,0,25,14Z"/></g></svg>