<svg xmlns="http://www.w3.org/2000/svg" viewBox="0 0 48 48"><defs><style>.cls-1{fill:#dad7e5;}.cls-2{fill:#edebf2;}.cls-3{fill:#c6c3d8;}.cls-4{fill:#9fdbf3;}.cls-5{fill:#b2e5fb;}</style></defs><title>bathroom</title><g id="bathroom"><rect class="cls-1" x="1" y="25" width="16" height="4"/><path class="cls-2" d="M17,25v2H5a2,2,0,0,1-2-2Z"/><path class="cls-3" d="M15,29c0,1.62.3,3.15-1.18,3.82-.58.28-.45.18-8.82.18a2,2,0,0,1-2-2V29Z"/><path class="cls-1" d="M6,30a2,2,0,0,0-1.82,2.82A1.89,1.89,0,0,0,5,33h8a2,2,0,0,0,2-2V30Z"/><rect class="cls-3" x="7" y="33" width="4" height="14"/><path class="cls-1" d="M8,37V47h3c0-13.72-.1-13,0-13A3,3,0,0,0,8,37Z"/><rect class="cls-4" x="2" y="1" width="14" height="14"/><path class="cls-5" d="M16,1c0,12.64-.1,12,0,12A12,12,0,0,1,4,1Z"/><path class="cls-3" d="M39,12.06V14H27c0-1.63-.29-3.12,1.19-3.81.59-.27.31-.19,8.75-.19A2.06,2.06,0,0,1,39,12.06Z"/><path class="cls-1" d="M39,12.06V13H29.94a2,2,0,0,1-1.75-2.81,2.09,2.09,0,0,1,.87-.19h7.88A2.06,2.06,0,0,1,39,12.06Z"/><path d="M2,16H16a1,1,0,0,0,1-1V1a1,1,0,0,0-1-1H2A1,1,0,0,0,1,1V15A1,1,0,0,0,2,16ZM3,2H15V14H3Z"/><path d="M7.71,7.71l2-2A1,1,0,0,0,8.29,4.29l-2,2A1,1,0,0,0,7.71,7.71Z"/><path d="M9.29,8.29l-2,2a1,1,0,0,0,1.42,1.42l2-2A1,1,0,0,0,9.29,8.29Z"/><path d="M46,28h1a1,1,0,0,0,0-2H46V20h1a1,1,0,0,0,0-2H46V7a5,5,0,0,0-5-5H37a5,5,0,0,0-5,5V9H29.06A3.06,3.06,0,0,0,26,12.06V14a1,1,0,0,0,1,1H39a1,1,0,0,0,1-1V12.06A3.06,3.06,0,0,0,36.94,9H34V7a3,3,0,0,1,3-3h4a3,3,0,0,1,3,3V33H42V32a1,1,0,0,0-2,0v4a1,1,0,0,0,2,0V35h2V46H12V34h1a3,3,0,0,0,3-3V30h1a1,1,0,0,0,1-1V25a1,1,0,0,0-1-1H10V20.5a2.5,2.5,0,0,0-5,0V21a1,1,0,0,0,2,0v-.5a.5.5,0,0,1,1,0V24H1a1,1,0,0,0-1,1v4a1,1,0,0,0,1,1H2v1a3,3,0,0,0,3,3H6V46H1a1,1,0,0,0,0,2H47a1,1,0,0,0,0-2H46ZM38,12.06V13H28v-.94A1.07,1.07,0,0,1,29.06,11h7.88A1.07,1.07,0,0,1,38,12.06ZM2,26H16v2H2Zm2,5V30H14v1a1,1,0,0,1-1,1H5A1,1,0,0,1,4,31ZM8,46V34h2V46Z"/><path d="M29,19a1,1,0,0,0,0-2A1,1,0,0,0,29,19Z"/><path d="M33,19a1,1,0,0,0,0-2A1,1,0,0,0,33,19Z"/><path d="M29,23a1,1,0,0,0,0-2A1,1,0,0,0,29,23Z"/><path d="M33,23a1,1,0,0,0,0-2A1,1,0,0,0,33,23Z"/><path d="M29,27a1,1,0,0,0,0-2A1,1,0,0,0,29,27Z"/><path d="M33,27a1,1,0,0,0,0-2A1,1,0,0,0,33,27Z"/><path d="M29,31a1,1,0,0,0,0-2A1,1,0,0,0,29,31Z"/><path d="M33,31a1,1,0,0,0,0-2A1,1,0,0,0,33,31Z"/><path d="M37,19a1,1,0,0,0,0-2A1,1,0,0,0,37,19Z"/><path d="M37,23a1,1,0,0,0,0-2A1,1,0,0,0,37,23Z"/><path d="M37,27a1,1,0,0,0,0-2A1,1,0,0,0,37,27Z"/><path d="M37,31a1,1,0,0,0,0-2A1,1,0,0,0,37,31Z"/></g></svg>