<svg xmlns="http://www.w3.org/2000/svg" viewBox="0 0 48 48"><defs><style>.cls-1{fill:#9fdbf3;}.cls-2{fill:#b2e5fb;}.cls-3{fill:#dad7e5;}.cls-4{fill:#edebf2;}.cls-5{fill:#8bd1ea;}.cls-6{fill:#f16f39;}.cls-7{fill:#f8834b;}</style></defs><title>breakfast</title><g id="breakfast"><path class="cls-1" d="M43,24C43,42.75,18.28,50.27,8,34.24c0-16.38-.07-14.55.17-14.74A5,5,0,0,0,11,15V12H9.28A19,19,0,0,1,40,13.77V24Z"/><path class="cls-2" d="M41,26v6.22A19,19,0,0,1,8,30.47V19.59c3.46-1.73,3-4.42,3-7.59H9.28a19,19,0,0,1,28.91-.61C37.92,12.48,38,12.16,38,26Z"/><path class="cls-3" d="M47,4V24H40V11A7,7,0,0,1,47,4Z"/><path class="cls-4" d="M47,4c0,18.76-.1,18,0,18a5,5,0,0,1-5-5c0-8.06-.35-9.58,1.15-11.85A6.92,6.92,0,0,1,47,4Z"/><path class="cls-3" d="M47,24V42a2,2,0,0,1-4,0V24Z"/><path class="cls-4" d="M47,24V42a2,2,0,0,1-2-2V24Z"/><path class="cls-5" d="M39,24c0,3.87-1.71,7.82-3.46,9.57C26.54,44.4,9,37.92,9,24c0-3.86,1.7-7.8,3.47-9.58C21.42,3.65,39,10,39,24Z"/><path class="cls-1" d="M37,26c0,3.83-1.71,7.82-3.43,9.54A15,15,0,0,1,9,24c0-3.86,1.7-7.8,3.47-9.58C22.15,6.46,37,13.25,37,26Z"/><path class="cls-3" d="M32.66,30.66A6,6,0,0,1,24,32.37,6,6,0,0,1,15.63,24,6,6,0,0,1,24,15.63,6,6,0,0,1,32.37,24,6,6,0,0,1,32.66,30.66Z"/><path class="cls-4" d="M32.66,30.66a6,6,0,0,1-5.17.51,4.19,4.19,0,0,0-3,0,6,6,0,0,1-7.69-7.69,4.19,4.19,0,0,0,0-3,6,6,0,0,1,.51-5.17,6,6,0,0,1,6.66.29A6,6,0,0,1,32.37,24,6,6,0,0,1,32.66,30.66Z"/><path class="cls-6" d="M28,24a4,4,0,1,1-6.28-3.28A4,4,0,0,1,28,24Z"/><path class="cls-7" d="M27.28,26.28a4,4,0,0,1-5.56-5.56A4,4,0,0,1,27.28,26.28Z"/><path class="cls-4" d="M11,12v3a5,5,0,0,1-3,4.59V42a2,2,0,0,1-4,0V19.59C.48,18,1,14.7,1,12Z"/><path class="cls-3" d="M6,40V20a4.88,4.88,0,0,0-1.53-3.45C2.93,15,3,13.4,3,12H1c0,2.78-.48,6,3,7.59V42a2,2,0,0,0,4,0A2,2,0,0,1,6,40Z"/><path d="M39,10.8A20,20,0,0,0,12,8V4a1,1,0,0,0-2,0V9.73c-.41.4-.8.83-1.18,1.27H7V4A1,1,0,0,0,5,4v7H2V4A1,1,0,0,0,0,4v8c0,3-.48,6.19,3,8.2V42a3,3,0,0,0,6,0V37.21a20,20,0,0,0,33-4.55V42a3,3,0,0,0,6,0V4C48,1.37,39.18,3.73,39,10.8Zm2,.2a6,6,0,0,1,5-5.92V23H41Zm-2,3.08v4.41a16,16,0,0,0-27-5V10.63A17.92,17.92,0,0,1,39,14.08ZM24,10A14,14,0,1,1,10,24,14,14,0,0,1,24,10ZM7,42a1,1,0,0,1-2,0c0-24.22.25-22.94-.59-23.32C1.75,17.48,2,15.17,2,13h8v2a4,4,0,0,1-2.41,3.68C6.75,19.05,7,17.78,7,42Zm2-8.07V29.51A16,16,0,0,0,40,25h2C41,42.21,18.57,48.37,9,33.93ZM46,42a1,1,0,0,1-2,0V25h2Z"/><path d="M24,33.57c6.16,3.64,13.23-3.37,9.57-9.57,3.65-6.18-3.38-13.23-9.57-9.57-6.19-3.65-13.23,3.38-9.57,9.57C10.78,30.19,17.81,37.23,24,33.57ZM16.43,23.41c-3.35-4.59,2.38-10.34,7-7a1,1,0,0,0,1.18,0c4.59-3.36,10.33,2.39,7,7a1,1,0,0,0,0,1.18c3.36,4.59-2.39,10.34-7,7a1,1,0,0,0-1.18,0c-4.6,3.36-10.33-2.4-7-7A1,1,0,0,0,16.43,23.41Z"/><path d="M24,29a5,5,0,1,0-5-5A5,5,0,0,0,24,29Zm0-8a3,3,0,1,1-3,3A3,3,0,0,1,24,21Z"/></g></svg>