<svg xmlns="http://www.w3.org/2000/svg" viewBox="0 0 48 48"><defs><style>.cls-1{fill:#7c7d7d;}.cls-2{fill:#919191;}.cls-3{fill:#dad7e5;}.cls-4{fill:#9fdbf3;}.cls-5{fill:#edebf2;}.cls-6{fill:#b2e5fb;}</style></defs><title>CCTV</title><g id="CCTV"><path class="cls-1" d="M47,11v6a2,2,0,0,1-2,2H3a2,2,0,0,1-2-2V11Z"/><path class="cls-2" d="M47,11v6H10a6,6,0,0,1-6-6Z"/><path class="cls-1" d="M47,7v4H1V7A2,2,0,0,1,3,5H45A2,2,0,0,1,47,7Z"/><path class="cls-2" d="M47,7V9H8A4,4,0,0,1,4,5H45A2,2,0,0,1,47,7Z"/><path class="cls-3" d="M12,19V38.72A18.94,18.94,0,0,1,5,24V19Z"/><path class="cls-4" d="M36,19c0,19.88.07,19.74,0,19.74a19,19,0,0,1-24,0V19Z"/><path class="cls-3" d="M43,19c0,5.76.79,13.36-7,19.72V19Z"/><path class="cls-5" d="M43,21c0,4.56.23,9.78-4.6,15.37A18.39,18.39,0,0,1,36,38.72V21Z"/><path class="cls-6" d="M36,21V38.73a19,19,0,0,1-21-2l0,0a8.36,8.36,0,0,1-3-6.5V21Z"/><path class="cls-5" d="M12,21V33.65C8.81,29.57,8,25.5,8,21Z"/><path class="cls-1" d="M32,31a8,8,0,1,1-12.56-6.56A8,8,0,0,1,32,31Z"/><path class="cls-2" d="M32,31a7.87,7.87,0,0,1-1.44,4.56A7.87,7.87,0,0,1,26,37a8,8,0,0,1-6.56-12.56A8,8,0,0,1,32,31Z"/><path class="cls-3" d="M27,31a3,3,0,1,1-4.56-2.56A3,3,0,0,1,27,31Z"/><path class="cls-5" d="M26.56,32.56a3,3,0,0,1-4.12-4.12A3,3,0,0,1,26.56,32.56Z"/><path d="M45,4H3A3,3,0,0,0,0,7V17a3,3,0,0,0,3,3H4v4a20,20,0,0,0,40,0V20h1a3,3,0,0,0,3-3V7A3,3,0,0,0,45,4ZM3,6H45a1,1,0,0,1,1,1v3H2V7A1,1,0,0,1,3,6ZM6,20h5V36.42C5.55,30.71,6,25,6,20Zm7,18.19c.06-.3,0,1.47,0-18.19H35c0,19.7,0,17.89,0,18.19A17.9,17.9,0,0,1,13,38.19Zm24-1.77V20h5C42,25.33,42.38,30.79,37,36.42ZM45,18H3a1,1,0,0,1-1-1V12H46v5A1,1,0,0,1,45,18Z"/><path d="M24,22a9,9,0,1,0,9,9A9,9,0,0,0,24,22Zm0,16a7,7,0,1,1,7-7A7,7,0,0,1,24,38Z"/><path d="M24,27a4,4,0,1,0,4,4A4,4,0,0,0,24,27Zm0,6a2,2,0,1,1,2-2A2,2,0,0,1,24,33Z"/></g></svg>