<svg xmlns="http://www.w3.org/2000/svg" viewBox="0 0 48 48"><defs><style>.cls-1{fill:#dad7e5;}.cls-2{fill:#edebf2;}</style></defs><title>Cutlery</title><g id="Cutlery"><path class="cls-1" d="M47,1c0,46.61,0,43.65,0,44a2.5,2.5,0,0,1-5-.46v-16A1.5,1.5,0,0,0,40.5,27,1.5,1.5,0,0,1,39,25.5V9A8,8,0,0,1,47,1Z"/><path class="cls-2" d="M47,1c0,46.61,0,43.65,0,44a2.54,2.54,0,0,1-3-2.52V28.28a4.06,4.06,0,0,0-2.24-3.47A1.52,1.52,0,0,1,41,23.5c0-17.61-.47-18.32,1.43-21.07A8,8,0,0,1,47,1Z"/><path class="cls-1" d="M35,14a8,8,0,0,1-5,7.42V44a3,3,0,0,1-6,0V21.42A8,8,0,0,1,19,14c0-4.42,3.58-13,8-13S35,9.58,35,14Z"/><path class="cls-2" d="M35,14a8,8,0,0,1-5,7.42c0,24.7.08,22.91-.18,23.57A3,3,0,0,1,27,42V22.72C27,17.86,22,18,22,12A19.25,19.25,0,0,1,26.21,1.09C31,0,35,9.24,35,14Z"/><path class="cls-2" d="M15,3V14a7,7,0,0,1-4,6.32V43.83A3.11,3.11,0,0,1,8.22,47,3,3,0,0,1,5,44V20.32A7,7,0,0,1,1,14V3A2,2,0,0,1,5,3v8H6V3a2,2,0,0,1,4,0v8h1V3a2,2,0,0,1,4,0Z"/><path class="cls-1" d="M7,42V21.37C7,17,3,16.89,3,12V1A2,2,0,0,0,1,3V14a7,7,0,0,0,4,6.32V44a3,3,0,0,0,5.82.88A3,3,0,0,1,7,42Z"/><path d="M38,9V25.5A2.5,2.5,0,0,0,40.5,28c.72,0,.5-.43.5,16.5a3.5,3.5,0,0,0,7,0V1C48-1.76,38,.89,38,9Zm8,35.5a1.5,1.5,0,0,1-3,0v-16A2.5,2.5,0,0,0,40.5,26c-.72,0-.5.64-.5-17a7,7,0,0,1,6-6.93Z"/><path d="M27,0c-5.2,0-9,9.21-9,14a9,9,0,0,0,5,8.07V44a4,4,0,0,0,8,0V22.07A9,9,0,0,0,36,14C36,9.21,32.2,0,27,0Zm2.62,20.49c-.89.36-.62-.86-.62,23.51a2,2,0,0,1-4,0c0-24.22.27-23.14-.62-23.51A7,7,0,0,1,20,14c0-4.3,3.53-12,7-12s7,7.7,7,12A7,7,0,0,1,29.62,20.49Z"/><path d="M10.5,1.34a3,3,0,0,0-5,0A3,3,0,0,0,0,3V14a7.93,7.93,0,0,0,4,6.93V44a4,4,0,0,0,4,4,4.09,4.09,0,0,0,4-4.17V20.93A7.93,7.93,0,0,0,16,14V3A3,3,0,0,0,10.5,1.34ZM14,14a5.94,5.94,0,0,1-3.43,5.42c-.83.39-.57-1-.57,24.41A2.12,2.12,0,0,1,8.15,46,2,2,0,0,1,6,44c0-25.65.25-24.2-.57-24.58A5.94,5.94,0,0,1,2,14V3A1,1,0,0,1,4,3v8a1,1,0,0,0,1,1H6a1,1,0,0,0,1-1V3A1,1,0,0,1,9,3v8a1,1,0,0,0,1,1h1a1,1,0,0,0,1-1V3a1,1,0,0,1,2,0Z"/></g></svg>