<svg xmlns="http://www.w3.org/2000/svg" viewBox="0 0 48 48"><defs><style>.cls-1{fill:#7c7d7d;}.cls-2{fill:#919191;}.cls-3{fill:#dad7e5;}.cls-4{fill:#edebf2;}.cls-5{fill:#747575;}.cls-6{fill:#c6c3d8;}.cls-7{fill:#db5669;}.cls-8{fill:#f26674;}.cls-9{fill:#fc6;}.cls-10{fill:#9dcc6b;}.cls-11{fill:#b5e08c;}.cls-12{fill:#ffde76;}</style></defs><title>Minibar</title><g id="Minibar"><rect class="cls-1" x="3" y="3" width="36" height="40"/><path class="cls-2" d="M39,3c0,39.25-.1,38,0,38A33,33,0,0,1,6,8V3Z"/><rect class="cls-3" x="7" y="17" width="28" height="22"/><path class="cls-4" d="M33,25V39H7V19H27A6,6,0,0,1,33,25Z"/><rect class="cls-3" x="7" y="7" width="28" height="10"/><path class="cls-4" d="M33,13v4H7V9H29A4,4,0,0,1,33,13Z"/><rect class="cls-5" x="4" y="43" width="6" height="4"/><path class="cls-1" d="M9,47H4V44H6A3,3,0,0,1,9,47Z"/><rect class="cls-5" x="33" y="43" width="6" height="4"/><path class="cls-1" d="M38,47H33V44h2A3,3,0,0,1,38,47Z"/><rect class="cls-6" x="39" y="1" width="6" height="44"/><path class="cls-3" d="M45,1c0,43.26-.1,42,0,42a4,4,0,0,1-4-4V1Z"/><rect class="cls-7" x="11" y="11" width="4" height="6" rx="1"/><path class="cls-8" d="M15,12v4a3,3,0,0,1-3-3V11h2A1,1,0,0,1,15,12Z"/><rect class="cls-9" x="19" y="11" width="4" height="6" rx="1"/><rect class="cls-10" x="27" y="11" width="4" height="6" rx="1"/><path class="cls-10" d="M19,29v8a2,2,0,0,1-2,2H13a2,2,0,0,1-2-2V29a2,2,0,0,1,2-2V24h4v3A2,2,0,0,1,19,29Z"/><path class="cls-11" d="M19,29c0,8.55-.1,8,0,8a6,6,0,0,1-6-6V29a2,2,0,0,1,2-2V24h2v3A2,2,0,0,1,19,29Z"/><rect class="cls-9" x="13" y="21" width="4" height="3"/><path class="cls-12" d="M17,21v3a2,2,0,0,1-2-2V21Z"/><path class="cls-7" d="M31,29v8a2,2,0,0,1-2,2H25a2,2,0,0,1-2-2V29a2,2,0,0,1,2-2V24h4v3A2,2,0,0,1,31,29Z"/><path class="cls-8" d="M31,29c0,8.55-.1,8,0,8a6,6,0,0,1-6-6V29a2,2,0,0,1,2-2V24h2v3A2,2,0,0,1,31,29Z"/><rect class="cls-9" x="25" y="21" width="4" height="3"/><path class="cls-12" d="M29,21v3a2,2,0,0,1-2-2V21Z"/><path d="M45,0H39a1,1,0,0,0-1,1V2H3A1,1,0,0,0,2,3V43a1,1,0,0,0,1,1v3a1,1,0,0,0,1,1h6a1,1,0,0,0,1-1V44H32v3a1,1,0,0,0,1,1h6a1,1,0,0,0,1-1V46h5a1,1,0,0,0,1-1V1A1,1,0,0,0,45,0ZM4,4H38V42H4ZM9,46H5V44H9Zm29,0H34V44h4Zm6-2H40V2h4Z"/><path d="M35,40a1,1,0,0,0,1-1V7a1,1,0,0,0-1-1H7A1,1,0,0,0,6,7V39a1,1,0,0,0,1,1ZM13,38a1,1,0,0,1-1-1V29a1,1,0,0,1,1-1,1,1,0,0,0,1-1V25h2v2a1,1,0,0,0,1,1,1,1,0,0,1,1,1v8a1,1,0,0,1-1,1Zm3-15H14V22h2Zm9,15a1,1,0,0,1-1-1V29a1,1,0,0,1,1-1,1,1,0,0,0,1-1V25h2v2a1,1,0,0,0,1,1,1,1,0,0,1,1,1v8a1,1,0,0,1-1,1Zm3-15H26V22h2ZM34,8v8H32V12a2,2,0,0,0-2-2H28a2,2,0,0,0-2,2v4H24V12a2,2,0,0,0-2-2H20a2,2,0,0,0-2,2v4H16V12a2,2,0,0,0-2-2H12a2,2,0,0,0-2,2v4H8V8Zm-4,8H28V12h2Zm-8,0H20V12h2Zm-8,0H12V12h2ZM8,18H34V38H31.82c.24-.7.18-.06.18-9a3,3,0,0,0-2-2.83V21a1,1,0,0,0-1-1H25a1,1,0,0,0-1,1v5.17A3,3,0,0,0,22,29c0,8.6-.07,8.28.18,9H19.82c.24-.7.18-.06.18-9a3,3,0,0,0-2-2.83V21a1,1,0,0,0-1-1H13a1,1,0,0,0-1,1v5.17A3,3,0,0,0,10,29c0,8.6-.07,8.28.18,9H8Z"/></g></svg>