<svg xmlns="http://www.w3.org/2000/svg" viewBox="0 0 48 48"><defs><style>.cls-1{fill:#c6c3d8;}.cls-2{fill:#dad7e5;}.cls-3{fill:#6fabe6;}.cls-4{fill:#82bcf4;}.cls-5{fill:#9fdbf3;}.cls-6{fill:#b2e5fb;}.cls-7{fill:#2c435e;}.cls-8{fill:#374f68;}</style></defs><title>parking Car</title><g id="parking_Car" data-name="parking Car"><rect class="cls-1" x="7" y="21" width="4" height="26"/><path class="cls-2" d="M11,23V47H9V25A2,2,0,0,1,11,23Z"/><rect class="cls-3" x="1" y="1" width="16" height="20" rx="2"/><path class="cls-4" d="M17,3c0,16.82-.1,16,0,16A13,13,0,0,1,4,6V1H15A2,2,0,0,1,17,3Z"/><path class="cls-1" d="M46,34c0,5,.29,4.77-1.33,6-2.4,1.79-2.51,2-3.34,2-22.4,0-21.11.17-21.86-.4C15.34,38.51,16,39.78,16,34a2,2,0,0,1,2-2c28.19,0,26.22-.06,26.72.14A2,2,0,0,1,46,34Z"/><path class="cls-2" d="M46,34c0,5,.29,4.78-1.33,6H27a8,8,0,0,1-8-8c0-.1-1.26,0,25,0A2,2,0,0,1,46,34Z"/><path class="cls-5" d="M44.72,32.14C44.2,31.93,45.91,32,18,32a1.92,1.92,0,0,0-.72.14L20,23.63A4,4,0,0,1,23.8,21H38.2A4,4,0,0,1,42,23.63C44.41,31.15,43.8,29.29,44.72,32.14Z"/><path class="cls-6" d="M44,30H30.24a7.21,7.21,0,0,1-7-9c.1-.08-.66,0,15,0A4,4,0,0,1,42,23.63Z"/><path class="cls-7" d="M23,42v5H17V39.75C20.51,42.38,19.42,42,23,42Z"/><path class="cls-8" d="M23,43v4H17V40.75C20.51,43.38,19.42,43,23,43Z"/><path class="cls-7" d="M45,39.75V47H39V42C42.59,42,41.52,42.36,45,39.75Z"/><path class="cls-8" d="M45,40.75V47H39V43C42.59,43,41.52,43.36,45,40.75Z"/><path d="M47,46H46V40.21c1.23-1.12,1-1.89,1-6.21a3.51,3.51,0,0,0-1.06-2.34l-3-8.37A5,5,0,0,0,38.2,20H23.8a5,5,0,0,0-4.7,3.29l-3,8.37A3.53,3.53,0,0,0,15,34c0,3.85-.31,5,1,6.21V46H12V22h3a3,3,0,0,0,3-3V3a3,3,0,0,0-3-3H3A3,3,0,0,0,0,3V19a3,3,0,0,0,3,3H6V46H1a1,1,0,0,0,0,2H47A1,1,0,0,0,47,46Zm-9-3v3H24V43ZM20.67,41c-.46,0-.39,0-3.27-2.2-.57-.43-.4-.76-.4-4.8a1,1,0,0,1,1-1H44a1,1,0,0,1,1,1v4c0,.66-.25.68-3.07,2.8a1,1,0,0,1-.6.2ZM21,24a3,3,0,0,1,2.82-2H38.2A3,3,0,0,1,41,24l2.55,7H35.41l2.3-2.29a1,1,0,0,0-1.42-1.42L32.59,31H27.41l2.3-2.29a1,1,0,0,0-1.42-1.42L24.59,31H18.43ZM2,19V3A1,1,0,0,1,3,2H15a1,1,0,0,1,1,1V19a1,1,0,0,1-1,1H3A1,1,0,0,1,2,19ZM8,46V22h2V46Zm10,0V41.75C19.68,43,19.5,43,22,43v3Zm22,0V43c2.27,0,2.16.13,4-1.25V46Z"/><path d="M7,12H9.5a3.5,3.5,0,0,0,0-7H6A1,1,0,0,0,5,6V16a1,1,0,0,0,2,0ZM7,7H9.5a1.5,1.5,0,0,1,0,3H7Z"/><path d="M24,35H22a2,2,0,0,0,0,4h2a2,2,0,0,0,0-4Z"/><path d="M42,37a2,2,0,0,0-2-2H38a2,2,0,0,0,0,4h2A2,2,0,0,0,42,37Z"/><path d="M33,35H29a1,1,0,0,0,0,2h4A1,1,0,0,0,33,35Z"/><path d="M33,38H29a1,1,0,0,0,0,2h4A1,1,0,0,0,33,38Z"/></g></svg>