<svg width="101" height="24" viewBox="0 0 101 24" fill="none" xmlns="http://www.w3.org/2000/svg">
<path d="M5.9403 21.8182H7.95166L7.96871 19.8494C11.659 19.5682 13.7983 17.6079 13.8068 14.6506C13.7983 11.7443 11.6079 10.2017 8.57382 9.51987L8.07098 9.40056L8.10507 5.13919C9.23859 5.4034 9.92893 6.12783 10.0312 7.20169H13.5681C13.5255 4.38067 11.4204 2.36078 8.13916 2.00283L8.15621 -1.23978e-05H6.14484L6.1278 1.98578C2.79541 2.30965 0.443137 4.32101 0.460183 7.22726C0.45166 9.80112 2.267 11.2756 5.21586 11.9829L6.03405 12.1875L5.99143 16.696C4.60223 16.4318 3.66473 15.5795 3.57098 14.1562H-4.44055e-05C0.0851829 17.5994 2.34371 19.5256 5.95734 19.8409L5.9403 21.8182ZM8.0028 16.696L8.03689 12.7159C9.35791 13.1335 10.0738 13.6704 10.0823 14.642C10.0738 15.6733 9.28973 16.4403 8.0028 16.696ZM6.05961 8.88067C4.99427 8.51419 4.22723 7.96022 4.24427 6.9801C4.24427 6.06817 4.892 5.36078 6.09371 5.11363L6.05961 8.88067ZM16.1867 19.6364H28.6299V16.6193H21.3004V16.5L23.8487 14.0028C27.4367 10.7301 28.3998 9.09374 28.3998 7.10794C28.3998 4.08237 25.9282 1.94317 22.1867 1.94317C18.522 1.94317 16.0078 4.13351 16.0163 7.55965H19.5191C19.5106 5.88919 20.5674 4.86647 22.1612 4.86647C23.6953 4.86647 24.8373 5.82101 24.8373 7.3551C24.8373 8.74431 23.985 9.69885 22.3998 11.2244L16.1867 16.9773V19.6364ZM38.1477 20.0199C42.5369 20.0199 45.1875 16.679 45.196 10.9261C45.2045 5.2159 42.5198 1.94317 38.1477 1.94317C33.767 1.94317 31.1079 5.20738 31.0994 10.9261C31.0823 16.6619 33.75 20.0114 38.1477 20.0199ZM38.1477 16.9602C36.1448 16.9602 34.8494 14.9489 34.8579 10.9261C34.8664 6.96306 36.1534 4.96874 38.1477 4.96874C40.1335 4.96874 41.4289 6.96306 41.4289 10.9261C41.4375 14.9489 40.142 16.9602 38.1477 16.9602ZM54.6711 20.0199C59.0603 20.0199 61.7109 16.679 61.7194 10.9261C61.7279 5.2159 59.0433 1.94317 54.6711 1.94317C50.2904 1.94317 47.6313 5.20738 47.6228 10.9261C47.6058 16.6619 50.2734 20.0114 54.6711 20.0199ZM54.6711 16.9602C52.6683 16.9602 51.3728 14.9489 51.3813 10.9261C51.3899 6.96306 52.6768 4.96874 54.6711 4.96874C56.6569 4.96874 57.9524 6.96306 57.9524 10.9261C57.9609 14.9489 56.6654 16.9602 54.6711 16.9602ZM67.6044 17.25H64.6044L64.5617 18.2045C64.4595 20.5227 63.7947 22.9006 63.5475 23.8977H65.8998C66.3089 22.8665 67.2805 20.446 67.5106 18.1875L67.6044 17.25ZM77.0071 20.0199C81.3963 20.0199 84.0468 16.679 84.0554 10.9261C84.0639 5.2159 81.3792 1.94317 77.0071 1.94317C72.6264 1.94317 69.9673 5.20738 69.9588 10.9261C69.9417 16.6619 72.6093 20.0114 77.0071 20.0199ZM77.0071 16.9602C75.0042 16.9602 73.7088 14.9489 73.7173 10.9261C73.7258 6.96306 75.0127 4.96874 77.0071 4.96874C78.9929 4.96874 80.2883 6.96306 80.2883 10.9261C80.2968 14.9489 79.0014 16.9602 77.0071 16.9602ZM93.5305 20.0199C97.9197 20.0199 100.57 16.679 100.579 10.9261C100.587 5.2159 97.9027 1.94317 93.5305 1.94317C89.1498 1.94317 86.4907 5.20738 86.4822 10.9261C86.4652 16.6619 89.1328 20.0114 93.5305 20.0199ZM93.5305 16.9602C91.5277 16.9602 90.2322 14.9489 90.2407 10.9261C90.2492 6.96306 91.5362 4.96874 93.5305 4.96874C95.5163 4.96874 96.8117 6.96306 96.8117 10.9261C96.8203 14.9489 95.5248 16.9602 93.5305 16.9602Z" fill="#F08420"/>
</svg>
