<svg xmlns="http://www.w3.org/2000/svg" viewBox="0 0 48 48"><defs><style>.cls-1{fill:#7c7d7d;}.cls-2{fill:#919191;}.cls-3{fill:#fc6;}.cls-4{fill:#ffde76;}.cls-5{fill:#dad7e5;}.cls-6{fill:#edebf2;}.cls-7{fill:#9dcc6b;}.cls-8{fill:#b5e08c;}</style></defs><title>Room Service</title><g id="Room_Service" data-name="Room Service"><rect class="cls-1" x="1" y="33" width="46" height="4"/><path class="cls-2" d="M47,33v2H6a2,2,0,0,1-2-2Z"/><path class="cls-3" d="M25,32v1H3c0-3.16.48-5.88,3-8.55C12.82,17.19,25,22.12,25,32Z"/><path class="cls-4" d="M25,31H12.55A6.55,6.55,0,0,1,6,24.45,11,11,0,0,1,25,31Z"/><path class="cls-5" d="M33,17c0,5,.27,5.82-.76,7A3,3,0,0,1,27,22V17Z"/><path class="cls-6" d="M33,17c0,5,.27,5.82-.76,7A3,3,0,0,1,29,21V17Z"/><path class="cls-7" d="M45,21V31a2,2,0,0,1-2,2H39a2,2,0,0,1-2-2c0-10.56-.22-10.62.59-11.41A2,2,0,0,1,39,19V15h4v4A2,2,0,0,1,45,21Z"/><path class="cls-8" d="M45,21c0,10.61-.1,10,0,10a6,6,0,0,1-6-6V21a2,2,0,0,1,2-2V15h2v4A2,2,0,0,1,45,21Z"/><rect class="cls-3" x="39" y="11" width="4" height="4"/><path class="cls-4" d="M43,11v3a2,2,0,0,1-2-2V11Z"/><path d="M47,32c-1.76,0-1,.25-1-1V21a3,3,0,0,0-2-2.83V11a1,1,0,0,0-1-1H39a1,1,0,0,0-1,1v7.17A3,3,0,0,0,36,21c0,10.84-.07,10.28.18,11H31V25.86A4,4,0,0,0,34,22V17a1,1,0,0,0-1-1H27a1,1,0,0,0-1,1v5a4,4,0,0,0,3,3.86V32H26A12,12,0,0,0,15,20.05V19h1a1,1,0,0,0,0-2H12a1,1,0,0,0,0,2h1v1.05A12,12,0,0,0,2,32H1a1,1,0,0,0-1,1v4a1,1,0,0,0,1,1H47a1,1,0,0,0,1-1V33A1,1,0,0,0,47,32ZM28,22V18h4v4a2,2,0,0,1-4,0ZM42,12v2H40V12ZM38,31V21a1,1,0,0,1,1-1,1,1,0,0,0,1-1V16h2v3a1,1,0,0,0,1,1,1,1,0,0,1,1,1V31a1,1,0,0,1-1,1H39A1,1,0,0,1,38,31ZM14,22A10,10,0,0,1,24,32H4A10,10,0,0,1,14,22ZM46,36H2V34H46Z"/></g></svg>