<svg xmlns="http://www.w3.org/2000/svg" viewBox="0 0 48 48"><defs><style>.cls-1{fill:#dad7e5;}.cls-2{fill:#edebf2;}.cls-3{fill:#c6c3d8;}.cls-4{fill:#9fdbf3;}.cls-5{fill:#b2e5fb;}</style></defs><title>Sink and mirror</title><g id="Sink_and_mirror" data-name="Sink and mirror"><path class="cls-1" d="M40,31c0,3.15.06,3.38-.18,4A3,3,0,0,1,37,37H11a3,3,0,0,1-3-3V31Z"/><path class="cls-2" d="M40,31c0,3.15.06,3.38-.18,4H15a4,4,0,0,1-4-4C11,30.9,9.86,31,40,31Z"/><path class="cls-3" d="M36,37a4,4,0,0,1-2.36,3.64c-1.12.52-.46.36-17.64.36a4,4,0,0,1-4-4Z"/><path class="cls-1" d="M34,39a3.93,3.93,0,0,1-.36,1.64c-1.12.52-.46.36-17.64.36a4,4,0,0,1-3.46-2Z"/><rect class="cls-3" x="21" y="41" width="6" height="6"/><path class="cls-1" d="M26,47H21V42A5,5,0,0,1,26,47Z"/><rect class="cls-4" x="11" y="1" width="26" height="19"/><path class="cls-5" d="M37,1V18H31A17,17,0,0,1,14,1Z"/><rect class="cls-1" x="21" y="47" width="5" height="1"/><rect class="cls-3" x="26" y="47" width="1" height="1"/><path d="M40,30H33V28a1,1,0,0,0-2,0v2H22V26.5a1.5,1.5,0,0,1,3,0V27a1,1,0,0,0,2,0v-.5a3.5,3.5,0,0,0-7,0V30H17V28a1,1,0,0,0-2,0v2H8a1,1,0,0,0-1,1v3a4,4,0,0,0,4.1,4A5,5,0,0,0,16,42h4v5a1,1,0,0,0,2,0V42h4v5a1,1,0,0,0,2,0V42h4a5,5,0,0,0,4.9-4A4,4,0,0,0,41,34V31A1,1,0,0,0,40,30ZM32,40H16a3,3,0,0,1-2.83-2H34.83A3,3,0,0,1,32,40Zm7-6a2,2,0,0,1-2,2H11a2,2,0,0,1-2-2V32H39Z"/><path d="M11,21H37a1,1,0,0,0,1-1V1a1,1,0,0,0-1-1H11a1,1,0,0,0-1,1V20A1,1,0,0,0,11,21ZM12,2H36V19H12Z"/><path d="M23.29,6.29l-3,3A1,1,0,0,0,21,11c.55,0,.43,0,3.71-3.29A1,1,0,0,0,23.29,6.29Z"/><path d="M26.29,9.29l-3,3a1,1,0,0,0,1.42,1.42l3-3A1,1,0,0,0,26.29,9.29Z"/></g></svg>