<svg width="108" height="19" viewBox="0 0 108 19" fill="none" xmlns="http://www.w3.org/2000/svg">
<path d="M8.71875 0.84375C9.14062 0 10.3359 0.0351562 10.7227 0.84375L13.043 5.51953L18.1758 6.25781C19.0898 6.39844 19.4414 7.52344 18.7734 8.19141L15.082 11.8125L15.9609 16.9102C16.1016 17.8242 15.1172 18.5273 14.3086 18.1055L9.73828 15.6797L5.13281 18.1055C4.32422 18.5273 3.33984 17.8242 3.48047 16.9102L4.35938 11.8125L0.667969 8.19141C0 7.52344 0.351562 6.39844 1.26562 6.25781L6.43359 5.51953L8.71875 0.84375ZM30.7687 0.84375C31.1906 0 32.3859 0.0351562 32.7727 0.84375L35.093 5.51953L40.2258 6.25781C41.1398 6.39844 41.4914 7.52344 40.8234 8.19141L37.132 11.8125L38.0109 16.9102C38.1516 17.8242 37.1672 18.5273 36.3586 18.1055L31.7883 15.6797L27.1828 18.1055C26.3742 18.5273 25.3898 17.8242 25.5305 16.9102L26.4094 11.8125L22.718 8.19141C22.05 7.52344 22.4016 6.39844 23.3156 6.25781L28.4836 5.51953L30.7687 0.84375ZM52.8187 0.84375C53.2406 0 54.4359 0.0351562 54.8227 0.84375L57.143 5.51953L62.2758 6.25781C63.1898 6.39844 63.5414 7.52344 62.8734 8.19141L59.182 11.8125L60.0609 16.9102C60.2016 17.8242 59.2172 18.5273 58.4086 18.1055L53.8383 15.6797L49.2328 18.1055C48.4242 18.5273 47.4398 17.8242 47.5805 16.9102L48.4594 11.8125L44.768 8.19141C44.1 7.52344 44.4516 6.39844 45.3656 6.25781L50.5336 5.51953L52.8187 0.84375ZM74.8688 0.84375C75.2906 0 76.4859 0.0351562 76.8727 0.84375L79.193 5.51953L84.3258 6.25781C85.2398 6.39844 85.5914 7.52344 84.9234 8.19141L81.232 11.8125L82.1109 16.9102C82.2516 17.8242 81.2672 18.5273 80.4586 18.1055L75.8883 15.6797L71.2828 18.1055C70.4742 18.5273 69.4898 17.8242 69.6305 16.9102L70.5094 11.8125L66.818 8.19141C66.15 7.52344 66.5016 6.39844 67.4156 6.25781L72.5836 5.51953L74.8688 0.84375ZM96.9187 0.84375C97.3406 0 98.5359 0.0351562 98.9227 0.84375L101.243 5.51953L106.376 6.25781C107.29 6.39844 107.641 7.52344 106.973 8.19141L103.282 11.8125L104.161 16.9102C104.302 17.8242 103.317 18.5273 102.509 18.1055L97.9383 15.6797L93.3328 18.1055C92.5242 18.5273 91.5398 17.8242 91.6805 16.9102L92.5594 11.8125L88.868 8.19141C88.2 7.52344 88.5516 6.39844 89.4656 6.25781L94.6336 5.51953L96.9187 0.84375Z" fill="#F6D167"/>
</svg>
