<svg width="150" height="33" viewBox="0 0 150 33" fill="none" xmlns="http://www.w3.org/2000/svg">
<path d="M24.0204 14.3259C23.6143 14.7344 23.3034 15.2275 23.1097 15.7698C22.916 16.3123 22.8443 16.8907 22.8997 17.4641L22.8804 17.4448C22.9374 18.1197 22.8463 18.7987 22.6137 19.4349C22.3811 20.0709 22.0126 20.6485 21.5337 21.1274C21.0548 21.6062 20.4772 21.9749 19.8411 22.2074C19.2051 22.44 18.5259 22.5311 17.8511 22.4741L17.8704 22.4934C17.0632 22.4182 16.2524 22.5939 15.5486 22.9964C14.8449 23.3989 14.2824 24.0087 13.9379 24.7426C13.5935 25.4765 13.4837 26.2987 13.6236 27.0974C13.7636 27.8959 14.1464 28.6319 14.72 29.2049C15.2935 29.7779 16.0298 30.1601 16.8284 30.2992C17.6272 30.4385 18.4493 30.328 19.1829 29.9829C19.9165 29.6376 20.5257 29.0747 20.9276 28.3706C21.3295 27.6664 21.5045 26.8556 21.4286 26.0484L21.449 26.0676C21.392 25.3929 21.4829 24.7137 21.7156 24.0776C21.9482 23.4416 22.3168 22.864 22.7957 22.385C23.2746 21.9062 23.8522 21.5375 24.4882 21.305C25.1243 21.0724 25.8034 20.9814 26.4783 21.0384L26.4579 21.0191C27.1173 21.0783 27.781 20.9702 28.3876 20.7047C28.994 20.4392 29.5237 20.0249 29.9274 19.5002C30.3311 18.9755 30.596 18.3573 30.6971 17.7031C30.7984 17.0488 30.7328 16.3796 30.5065 15.7573C30.2802 15.1351 29.9005 14.5801 29.4026 14.1437C28.9047 13.7073 28.3047 13.4037 27.6582 13.261C27.0117 13.1182 26.3396 13.141 25.7043 13.3271C25.0689 13.5133 24.4909 13.8568 24.0236 14.3259H24.0204Z" fill="#B9C6D8"/>
<path d="M16.116 19.967L16.0956 19.9477C16.6691 20.0054 17.2484 19.9351 17.7915 19.7416C18.3345 19.5481 18.8277 19.2364 19.2355 18.8289C19.6432 18.4214 19.9554 17.9284 20.1493 17.3855C20.3432 16.8426 20.414 16.2635 20.3567 15.6898L20.377 15.7091C20.32 15.0342 20.4111 14.3552 20.6436 13.7191C20.8762 13.0831 21.2449 12.5054 21.7237 12.0265C22.2026 11.5477 22.7803 11.179 23.4163 10.9465C24.0524 10.7139 24.7314 10.6229 25.4063 10.6798L25.386 10.6606C26.1933 10.7364 27.0042 10.5613 27.7084 10.1592C28.4126 9.75717 28.9756 9.14767 29.3206 8.41388C29.6656 7.6801 29.7758 6.85774 29.6363 6.05898C29.4968 5.26022 29.1143 4.52396 28.5409 3.95059C27.9676 3.37724 27.2313 2.9947 26.4325 2.85517C25.6338 2.71564 24.8115 2.8259 24.0776 3.17092C23.3438 3.51594 22.7344 4.07892 22.3323 4.78307C21.9302 5.48721 21.7551 6.29825 21.831 7.10555L21.8117 7.0852C21.8688 7.76008 21.7779 8.4393 21.5454 9.07543C21.3129 9.71156 20.9442 10.2893 20.4654 10.7682C19.9865 11.2471 19.4088 11.6157 18.7727 11.8482C18.1365 12.0807 17.4573 12.1716 16.7824 12.1145L16.8017 12.1348C16.2281 12.0771 15.6488 12.1475 15.1058 12.341C14.5628 12.5344 14.0695 12.8462 13.6618 13.2536C13.254 13.6611 12.9419 14.1542 12.7479 14.6971C12.5541 15.2399 12.4833 15.8191 12.5406 16.3927L12.5213 16.3734C12.5781 17.0482 12.4869 17.7273 12.2543 18.3633C12.0216 18.9992 11.653 19.5768 11.1742 20.0556C10.6954 20.5344 10.1178 20.903 9.48185 21.1357C8.84589 21.3683 8.16683 21.4595 7.49204 21.4027L7.51132 21.422C6.70402 21.3461 5.89298 21.5212 5.18883 21.9233C4.48469 22.3254 3.92171 22.9348 3.57669 23.6687C3.23167 24.4025 3.1214 25.2248 3.26093 26.0236C3.40047 26.8223 3.78301 27.5586 4.35636 28.1319C4.92973 28.7053 5.66599 29.0878 6.46475 29.2273C7.26351 29.3668 8.08587 29.2566 8.81965 28.9116C9.55343 28.5666 10.1629 28.0037 10.565 27.2995C10.9671 26.5953 11.1422 25.7843 11.0663 24.977L11.0867 24.9963C11.0297 24.3214 11.1208 23.6423 11.3534 23.0062C11.5859 22.3702 11.9545 21.7926 12.4334 21.3137C12.9123 20.8348 13.4899 20.4662 14.1259 20.2337C14.762 20.0011 15.4411 19.91 16.116 19.967Z" fill="#B9C6D8"/>
<path d="M8.93552 17.8167C9.34162 17.4083 9.65252 16.9152 9.84607 16.3728C10.0396 15.8303 10.111 15.2517 10.0552 14.6785L10.0755 14.6978C10.0185 14.0228 10.1095 13.3434 10.3423 12.7072C10.575 12.071 10.9438 11.4933 11.423 11.0143C11.9021 10.5354 12.4799 10.1669 13.1162 9.93441C13.7526 9.70196 14.432 9.61121 15.107 9.66851L15.0866 9.64922C15.8936 9.72483 16.7043 9.54966 17.4082 9.14762C18.112 8.74559 18.6746 8.13624 19.0195 7.40268C19.3643 6.66912 19.4744 5.84706 19.3349 5.0486C19.1954 4.25014 18.8129 3.51416 18.2398 2.94101C17.6667 2.36786 16.9306 1.98544 16.1322 1.84592C15.3338 1.70639 14.5117 1.81655 13.7782 2.16136C13.0446 2.50617 12.4352 3.06885 12.0332 3.77267C11.6311 4.47649 11.456 5.2872 11.5316 6.09422L11.5123 6.07494C11.5693 6.74977 11.4782 7.42892 11.2456 8.06496C11.013 8.70101 10.6445 9.27863 10.1656 9.75751C9.68671 10.2364 9.10908 10.605 8.47304 10.8375C7.837 11.0701 7.15786 11.1612 6.48302 11.1042L6.50231 11.1235C5.84292 11.0644 5.17927 11.1727 4.57286 11.4383C3.96645 11.7039 3.4369 12.1183 3.03328 12.6431C2.62966 13.1678 2.36504 13.786 2.26392 14.4402C2.16281 15.0945 2.22848 15.7638 2.45484 16.3858C2.6812 17.008 3.06094 17.5629 3.55887 17.9992C4.05679 18.4356 4.65679 18.7391 5.30327 18.8818C5.94974 19.0244 6.62177 19.0016 7.2571 18.8155C7.89241 18.6293 8.47045 18.2858 8.93766 17.8167H8.93552Z" fill="#B9C6D8"/>
<path d="M42.125 7.13037H45.3071V22.6157H42.125V7.13037Z" fill="#B9C6D8"/>
<path d="M47.1095 17.3132C47.1051 16.2004 47.4311 15.1112 48.0461 14.1838C48.6611 13.2564 49.5375 12.5323 50.5643 12.1034C51.5912 11.6744 52.7222 11.5599 53.8142 11.7743C54.9062 11.9886 55.91 12.5222 56.6985 13.3076C57.487 14.0928 58.0246 15.0945 58.2434 16.1856C58.4622 17.2768 58.3521 18.4083 57.9273 19.4369C57.5025 20.4654 56.782 21.3448 55.857 21.9634C54.9319 22.5822 53.8442 22.9125 52.7313 22.9125C51.9927 22.921 51.2597 22.782 50.5753 22.5039C49.8908 22.2257 49.2688 21.814 48.7454 21.2927C48.2219 20.7714 47.8077 20.1509 47.5268 19.4676C47.2459 18.7844 47.1041 18.052 47.1095 17.3132ZM55.171 17.3132C55.1577 16.8335 55.0033 16.3684 54.7272 15.976C54.451 15.5836 54.0652 15.2813 53.6182 15.1069C53.1711 14.9325 52.6827 14.8937 52.2137 14.9955C51.7447 15.0973 51.3162 15.3349 50.9816 15.679C50.6471 16.0229 50.4212 16.4579 50.3326 16.9295C50.2439 17.4011 50.2961 17.8884 50.4828 18.3304C50.6696 18.7725 50.9824 19.1496 51.3823 19.4148C51.7822 19.68 52.2515 19.8214 52.7313 19.8214C53.0599 19.8302 53.3868 19.7708 53.6914 19.6469C53.9959 19.523 54.2715 19.3375 54.5007 19.1019C54.7298 18.8661 54.9078 18.5855 55.0231 18.2777C55.1385 17.9699 55.1888 17.6415 55.171 17.3132Z" fill="#B9C6D8"/>
<path d="M71.0355 12.0098V22.0812C71.0355 25.6448 68.2563 27.1512 65.4352 27.1512C64.442 27.2256 63.4474 27.0249 62.5605 26.5714C61.6738 26.1177 60.9291 25.4287 60.408 24.5798L63.123 23.0101C63.342 23.4527 63.691 23.8177 64.1231 24.0565C64.5553 24.2952 65.0501 24.3964 65.5413 24.3462C65.8552 24.3897 66.1749 24.3621 66.4767 24.2653C66.7784 24.1686 67.0547 24.0052 67.2848 23.7874C67.5149 23.5694 67.6931 23.3027 67.8063 23.0065C67.9193 22.7105 67.9643 22.3928 67.938 22.0769V21.1073C67.5654 21.5632 67.0912 21.9254 66.5532 22.1649C66.0153 22.4044 65.4288 22.5144 64.8405 22.4862C63.441 22.4421 62.1137 21.8551 61.1393 20.8495C60.1649 19.844 59.6201 18.4987 59.6201 17.0985C59.6201 15.6984 60.1649 14.3531 61.1393 13.3476C62.1137 12.3419 63.441 11.755 64.8405 11.7109C65.4288 11.6827 66.0153 11.7927 66.5532 12.0322C67.0912 12.2716 67.5654 12.6339 67.938 13.0898V12.0076L71.0355 12.0098ZM67.9391 17.1001C67.9605 16.5874 67.8279 16.0798 67.5584 15.643C67.289 15.2061 66.8949 14.8599 66.427 14.6489C65.9591 14.4379 65.4388 14.3718 64.933 14.459C64.4272 14.5462 63.9591 14.7828 63.5888 15.1384C63.2186 15.4939 62.9633 15.952 62.8556 16.4539C62.748 16.9557 62.793 17.4784 62.985 17.9544C63.1769 18.4304 63.5069 18.8382 63.9325 19.1251C64.3581 19.4121 64.8598 19.5651 65.373 19.5644C65.7074 19.5878 66.0429 19.5409 66.358 19.4266C66.6731 19.3124 66.9608 19.1334 67.2025 18.9013C67.4442 18.6691 67.6347 18.389 67.7616 18.0787C67.8884 17.7685 67.949 17.4352 67.9391 17.1001Z" fill="#B9C6D8"/>
<path d="M72.838 17.3132C72.8336 16.2004 73.1595 15.1112 73.7746 14.1838C74.3896 13.2564 75.266 12.5323 76.2929 12.1034C77.3197 11.6744 78.4507 11.5599 79.5427 11.7743C80.6347 11.9886 81.6385 12.5222 82.427 13.3076C83.2155 14.0928 83.7531 15.0945 83.9719 16.1856C84.1907 17.2768 84.0807 18.4083 83.6558 19.4369C83.231 20.4654 82.5105 21.3448 81.5855 21.9634C80.6604 22.5822 79.5727 22.9125 78.4598 22.9125C77.7212 22.921 76.9881 22.782 76.3038 22.5039C75.6194 22.2257 74.9973 21.814 74.4739 21.2927C73.9504 20.7714 73.5362 20.1509 73.2554 19.4676C72.9744 18.7844 72.8326 18.052 72.838 17.3132ZM80.8995 17.3132C80.8862 16.8335 80.7318 16.3684 80.4557 15.976C80.1795 15.5836 79.7938 15.2813 79.3468 15.1069C78.8997 14.9325 78.4111 14.8937 77.9422 14.9955C77.4733 15.0973 77.0447 15.3349 76.7101 15.679C76.3756 16.0229 76.1497 16.4579 76.061 16.9295C75.9723 17.4011 76.0246 17.8884 76.2113 18.3304C76.3981 18.7725 76.7109 19.1496 77.1108 19.4148C77.5108 19.68 77.9799 19.8214 78.4598 19.8214C78.7884 19.8302 79.1153 19.7708 79.4198 19.6469C79.7244 19.523 80 19.3375 80.2292 19.1019C80.4584 18.8661 80.6363 18.5855 80.7516 18.2777C80.867 17.9699 80.9174 17.6415 80.8995 17.3132Z" fill="#B9C6D8"/>
<path d="M85.5654 9.1671C85.5654 8.78947 85.6774 8.42034 85.8872 8.10636C86.097 7.79238 86.3952 7.54766 86.7441 7.40315C87.093 7.25864 87.4769 7.22083 87.8473 7.2945C88.2175 7.36817 88.5578 7.55001 88.8248 7.81704C89.0918 8.08405 89.2736 8.42425 89.3474 8.79462C89.421 9.16498 89.3831 9.54887 89.2387 9.89775C89.0942 10.2466 88.8495 10.5448 88.5354 10.7546C88.2215 10.9644 87.8524 11.0764 87.4747 11.0764C86.97 11.0714 86.4872 10.8686 86.1302 10.5116C85.7733 10.1546 85.5705 9.67191 85.5654 9.1671ZM85.8869 12.0096H89.0701V22.6167H85.8826L85.8869 12.0096Z" fill="#B9C6D8"/>
<path d="M102.81 17.3131C102.847 18.0141 102.745 18.7154 102.51 19.3768C102.274 20.0382 101.911 20.6466 101.44 21.167C100.968 21.6873 100.399 22.1094 99.7642 22.409C99.1292 22.7084 98.4415 22.8796 97.7402 22.9123C97.1505 22.9445 96.5611 22.8451 96.0146 22.6212C95.4681 22.3973 94.9783 22.0547 94.5806 21.6181V26.8584H91.3984V12.0095H94.5806V13.0059C94.9784 12.5696 95.4684 12.2272 96.0148 12.0036C96.5613 11.7799 97.1506 11.6806 97.7402 11.7127C98.4416 11.7454 99.1296 11.9164 99.7646 12.2159C100.4 12.5155 100.969 12.9377 101.44 13.4582C101.912 13.9787 102.275 14.5872 102.51 15.2488C102.745 15.9103 102.847 16.6119 102.81 17.3131ZM99.6281 17.3131C99.6157 16.8167 99.4571 16.3349 99.1722 15.9281C98.8873 15.5214 98.4888 15.2077 98.0266 15.0264C97.5643 14.845 97.0588 14.804 96.5733 14.9086C96.0879 15.013 95.6441 15.2584 95.2974 15.6139C94.9507 15.9695 94.7166 16.4193 94.6243 16.9073C94.5321 17.3952 94.5857 17.8994 94.7787 18.3571C94.9715 18.8147 95.2952 19.2051 95.709 19.4797C96.1228 19.7542 96.6083 19.9007 97.1049 19.9005C97.4458 19.9158 97.7861 19.8587 98.1034 19.7331C98.4207 19.6076 98.7079 19.4164 98.9461 19.1721C99.1844 18.9277 99.3683 18.6358 99.4858 18.3155C99.6033 17.9951 99.6519 17.6534 99.6281 17.3131Z" fill="#B9C6D8"/>
<path d="M112.629 19.4337C112.629 21.8734 110.509 22.9127 108.218 22.9127C107.293 22.9964 106.363 22.8008 105.55 22.3507C104.737 21.9007 104.078 21.2171 103.657 20.3884L106.414 18.8187C106.526 19.2018 106.765 19.5351 107.093 19.7628C107.42 19.9905 107.817 20.0991 108.214 20.0702C108.977 20.0702 109.359 19.8366 109.359 19.4134C109.359 18.2455 104.14 18.8616 104.14 15.1919C104.14 12.8787 106.093 11.713 108.299 11.713C109.128 11.6868 109.949 11.8835 110.676 12.2826C111.404 12.6818 112.011 13.2687 112.434 13.9823L109.719 15.4459C109.6 15.168 109.402 14.9314 109.149 14.7654C108.897 14.5994 108.601 14.5116 108.299 14.5127C107.747 14.5127 107.407 14.7269 107.407 15.1062C107.412 16.3159 112.629 15.5091 112.629 19.4337Z" fill="#B9C6D8"/>
<path d="M124.254 12.0098V22.6169H121.072V21.6194C120.704 22.0596 120.238 22.4064 119.711 22.6314C119.184 22.8564 118.612 22.9531 118.039 22.9137C115.897 22.9137 114.075 21.3869 114.075 18.5208V12.0098H117.257V18.0548C117.231 18.3074 117.259 18.5628 117.342 18.8032C117.423 19.0436 117.557 19.2632 117.733 19.4468C117.909 19.6303 118.122 19.7733 118.359 19.866C118.594 19.9587 118.848 19.9988 119.102 19.9833C120.269 19.9833 121.075 19.3051 121.075 17.7987V12.013L124.254 12.0098Z" fill="#B9C6D8"/>
<path d="M142.5 16.1037V22.6159H139.318V16.3791C139.318 15.3184 138.809 14.6402 137.792 14.6402C136.731 14.6402 136.136 15.3827 136.136 16.6341V22.6159H132.955V16.3791C132.955 15.3184 132.446 14.6402 131.427 14.6402C130.367 14.6402 129.773 15.3827 129.773 16.6341V22.6159H126.591V12.0087H129.773V12.9837C130.103 12.5512 130.536 12.2081 131.032 11.986C131.529 11.7638 132.073 11.6696 132.615 11.712C133.16 11.6853 133.702 11.8002 134.189 12.0455C134.676 12.2906 135.09 12.6579 135.394 13.1112C135.746 12.6369 136.213 12.2598 136.751 12.0151C137.289 11.7704 137.88 11.6661 138.47 11.712C140.905 11.713 142.5 13.452 142.5 16.1037Z" fill="#B9C6D8"/>
<path d="M145.191 11.9443C146.495 11.9443 147.553 10.887 147.553 9.58286C147.553 8.27868 146.495 7.22144 145.191 7.22144C143.888 7.22144 142.83 8.27868 142.83 9.58286C142.83 10.887 143.888 11.9443 145.191 11.9443Z" fill="#B9C6D8"/>
</svg>
