<svg width="150" height="34" viewBox="0 0 150 34" fill="none" xmlns="http://www.w3.org/2000/svg">
<path d="M43.9381 22.1022C43.9381 22.8251 43.7896 23.3806 43.4928 23.7687C43.2038 24.1568 42.7205 24.3508 42.0433 24.3508C41.404 24.3508 40.9513 24.1568 40.6849 23.7687C40.4262 23.3806 40.2969 22.8251 40.2969 22.1022V10.0372C40.2969 9.3143 40.4262 8.7588 40.6849 8.37071C40.9513 7.98262 41.404 7.78857 42.0433 7.78857C42.7205 7.78857 43.2038 7.98262 43.4928 8.37071C43.7896 8.7588 43.9381 9.3143 43.9381 10.0372V22.1022Z" fill="#B9C6D8"/>
<path d="M45.043 18.5978C45.043 17.7911 45.1723 17.0302 45.4311 16.3149C45.6974 15.5919 46.0931 14.9604 46.6182 14.4201C47.1509 13.8798 47.8129 13.4499 48.6043 13.1303C49.4033 12.8106 50.3392 12.6509 51.4122 12.6509C52.4395 12.6509 53.3489 12.7992 54.1403 13.096C54.9317 13.3928 55.5975 13.8075 56.1377 14.3402C56.678 14.8652 57.089 15.493 57.3706 16.2235C57.652 16.9464 57.7929 17.7378 57.7929 18.5978C57.7929 19.3968 57.6596 20.1539 57.3933 20.8692C57.127 21.5768 56.7275 22.2009 56.1948 22.7412C55.6622 23.2738 54.9964 23.6999 54.1974 24.0196C53.3983 24.3316 52.4699 24.4875 51.4122 24.4875C50.3697 24.4875 49.449 24.3392 48.6499 24.0424C47.8585 23.738 47.1927 23.3233 46.6524 22.7982C46.1198 22.2656 45.7164 21.6416 45.4425 20.9263C45.1761 20.2034 45.043 19.4272 45.043 18.5978ZM48.844 18.5978C48.844 19.1 48.8896 19.5794 48.981 20.0359C49.0722 20.4849 49.2169 20.8806 49.4147 21.2231C49.6201 21.5655 49.8865 21.8394 50.2137 22.0449C50.541 22.2427 50.9404 22.3417 51.4122 22.3417C51.846 22.3417 52.2226 22.2504 52.5422 22.0677C52.8695 21.8851 53.1358 21.6301 53.3413 21.303C53.5543 20.9758 53.7142 20.5838 53.8206 20.1273C53.9272 19.6631 53.9804 19.1533 53.9804 18.5978C53.9804 18.0955 53.931 17.6199 53.8321 17.1709C53.7407 16.7144 53.5924 16.3149 53.3869 15.9724C53.1815 15.6224 52.9152 15.3484 52.5879 15.1506C52.2683 14.9452 51.8764 14.8424 51.4122 14.8424C50.948 14.8424 50.5524 14.9413 50.2251 15.1392C49.8979 15.337 49.6316 15.6071 49.4261 15.9496C49.2207 16.2921 49.0722 16.6915 48.981 17.1481C48.8896 17.6047 48.844 18.0879 48.844 18.5978Z" fill="#B9C6D8"/>
<path d="M67.1622 22.1475C66.9567 22.528 66.7056 22.8514 66.4088 23.1178C66.1197 23.3841 65.7962 23.6048 65.4386 23.7798C65.0886 23.9472 64.7119 24.0727 64.3086 24.1565C63.9128 24.2325 63.5058 24.2706 63.0872 24.2706C62.3871 24.2706 61.748 24.1451 61.1696 23.8939C60.5913 23.6428 60.0929 23.2813 59.6743 22.8096C59.2634 22.3302 58.9438 21.7442 58.7155 21.0518C58.4872 20.3592 58.373 19.5678 58.373 18.6776C58.373 17.8405 58.4796 17.0567 58.6927 16.3262C58.9057 15.5957 59.2139 14.9603 59.6173 14.42C60.0282 13.8797 60.5304 13.4536 61.124 13.1416C61.7175 12.8296 62.3948 12.6736 63.1557 12.6736C64.0232 12.6736 64.7918 12.841 65.4614 13.1758C66.1387 13.5107 66.7208 14.0586 67.2079 14.8195V14.5228C67.2079 13.9749 67.3562 13.5639 67.653 13.2899C67.9574 13.0085 68.3759 12.8676 68.9086 12.8676C69.2282 12.8676 69.4983 12.9209 69.719 13.0274C69.9396 13.1264 70.1146 13.2786 70.244 13.4841C70.3734 13.6819 70.4647 13.9292 70.518 14.226C70.5789 14.5151 70.6093 14.8461 70.6093 15.219V22.8667C70.6093 23.795 70.4914 24.6244 70.2555 25.3549C70.0272 26.0854 69.6695 26.7019 69.1825 27.2041C68.6955 27.7063 68.0715 28.0868 67.3105 28.3456C66.5496 28.6119 65.6441 28.745 64.594 28.745C63.8558 28.745 63.2014 28.7108 62.6306 28.6423C62.0675 28.5815 61.5805 28.4863 61.1696 28.357C60.7587 28.2123 60.4468 28.0526 60.2336 27.8775C60.0282 27.7025 59.9255 27.4742 59.9255 27.1927C59.9255 27.0329 59.9482 26.8807 59.9939 26.7361C60.0396 26.5915 60.1081 26.4622 60.1993 26.348C60.2983 26.2415 60.4239 26.154 60.5761 26.0854C60.7358 26.0247 60.9299 25.9942 61.1582 25.9942C61.4017 25.9942 61.6452 26.0094 61.8887 26.0399C62.1398 26.0702 62.3986 26.1007 62.6649 26.1311C62.9388 26.1692 63.2242 26.2034 63.521 26.2339C63.8254 26.2643 64.1525 26.2796 64.5026 26.2796C64.9211 26.2796 65.294 26.2377 65.6213 26.154C65.9484 26.0702 66.2261 25.9219 66.4545 25.7088C66.6828 25.4958 66.8578 25.2104 66.9795 24.8527C67.1013 24.5026 67.1622 24.0537 67.1622 23.5058V22.1475ZM67.1622 18.5977C67.1622 18.0421 67.1203 17.5361 67.0366 17.0796C66.9606 16.623 66.8273 16.2349 66.6371 15.9152C66.4469 15.5881 66.1919 15.337 65.8724 15.1619C65.5527 14.9793 65.1532 14.888 64.6738 14.888C64.202 14.888 63.8102 14.9831 63.4982 15.1733C63.1938 15.3636 62.9503 15.6261 62.7677 15.9609C62.585 16.2958 62.4557 16.6876 62.3795 17.1367C62.311 17.5856 62.2768 18.065 62.2768 18.5748C62.2768 19.7391 62.4823 20.6142 62.8932 21.2001C63.3041 21.7861 63.9014 22.0791 64.6852 22.0791C65.0505 22.0715 65.3816 22.0029 65.6783 21.8736C65.9826 21.7366 66.2452 21.5274 66.4658 21.2458C66.6866 20.9642 66.8578 20.6065 66.9795 20.1728C67.1013 19.7391 67.1622 19.2141 67.1622 18.5977Z" fill="#B9C6D8"/>
<path d="M71.6572 18.5978C71.6572 17.7911 71.7866 17.0302 72.0453 16.3149C72.3117 15.5919 72.7073 14.9604 73.2324 14.4201C73.7651 13.8798 74.4271 13.4499 75.2185 13.1303C76.0175 12.8106 76.9535 12.6509 78.0265 12.6509C79.0537 12.6509 79.963 12.7992 80.7544 13.096C81.5458 13.3928 82.2117 13.8075 82.752 14.3402C83.2923 14.8652 83.7032 15.493 83.9847 16.2235C84.2663 16.9464 84.407 17.7378 84.407 18.5978C84.407 19.3968 84.2739 20.1539 84.0076 20.8692C83.7412 21.5768 83.3417 22.2009 82.809 22.7412C82.2764 23.2738 81.6105 23.6999 80.8115 24.0196C80.0125 24.3316 79.0842 24.4875 78.0265 24.4875C76.9839 24.4875 76.0631 24.3392 75.2641 24.0424C74.4727 23.738 73.8069 23.3233 73.2666 22.7982C72.734 22.2656 72.3307 21.6416 72.0567 20.9263C71.7904 20.2034 71.6572 19.4272 71.6572 18.5978ZM75.4582 18.5978C75.4582 19.1 75.5039 19.5794 75.5952 20.0359C75.6865 20.4849 75.831 20.8806 76.0289 21.2231C76.2344 21.5655 76.5007 21.8394 76.8279 22.0449C77.1551 22.2427 77.5547 22.3417 78.0265 22.3417C78.4602 22.3417 78.8369 22.2504 79.1564 22.0677C79.4836 21.8851 79.75 21.6301 79.9554 21.303C80.1686 20.9758 80.3283 20.5838 80.4349 20.1273C80.5414 19.6631 80.5947 19.1533 80.5947 18.5978C80.5947 18.0955 80.5452 17.6199 80.4463 17.1709C80.355 16.7144 80.2065 16.3149 80.0011 15.9724C79.7957 15.6224 79.5293 15.3484 79.2021 15.1506C78.8825 14.9452 78.4906 14.8424 78.0265 14.8424C77.5623 14.8424 77.1665 14.9413 76.8393 15.1392C76.5122 15.337 76.2458 15.6071 76.0403 15.9496C75.8349 16.2921 75.6865 16.6915 75.5952 17.1481C75.5039 17.6047 75.4582 18.0879 75.4582 18.5978Z" fill="#B9C6D8"/>
<path d="M89.3023 8.80442C89.3023 9.05555 89.2452 9.28002 89.131 9.47788C89.0169 9.66811 88.8685 9.82787 88.6859 9.95732C88.5033 10.0867 88.2902 10.1855 88.0467 10.254C87.8108 10.3149 87.5673 10.3454 87.3161 10.3454C87.0498 10.3454 86.7949 10.3111 86.5514 10.2426C86.3155 10.1741 86.1063 10.0753 85.9237 9.94583C85.741 9.80888 85.5964 9.64528 85.4898 9.45505C85.3834 9.26481 85.3301 9.04793 85.3301 8.80442C85.3301 8.58375 85.3796 8.3821 85.4784 8.19947C85.585 8.00923 85.7257 7.84562 85.9008 7.70865C86.0758 7.57168 86.2851 7.46514 86.5286 7.38905C86.7721 7.31295 87.0384 7.2749 87.3276 7.2749C87.5787 7.2749 87.8222 7.30915 88.0581 7.37763C88.3017 7.44612 88.5147 7.54504 88.6973 7.67441C88.8799 7.80377 89.0246 7.96357 89.131 8.1538C89.2452 8.34405 89.3023 8.56092 89.3023 8.80442ZM89.131 22.1022C89.131 22.8251 88.9827 23.3806 88.6859 23.7686C88.3967 24.1568 87.9135 24.3508 87.2363 24.3508C86.5971 24.3508 86.1443 24.1568 85.878 23.7686C85.6193 23.3806 85.4898 22.8251 85.4898 22.1022V15.1165C85.4898 14.3936 85.6193 13.8381 85.878 13.4501C86.1443 13.062 86.5971 12.8679 87.2363 12.8679C87.9135 12.8679 88.3967 13.062 88.6859 13.4501C88.9827 13.8381 89.131 14.3936 89.131 15.1165V22.1022Z" fill="#B9C6D8"/>
<path d="M94.3801 18.5748C94.3801 19.0847 94.4181 19.5602 94.4943 20.0017C94.578 20.443 94.7149 20.831 94.9051 21.1659C95.1031 21.4931 95.3618 21.7518 95.6814 21.942C96.0085 22.1323 96.4119 22.2274 96.8913 22.2274C97.3326 22.2274 97.7017 22.1361 97.9988 21.9535C98.3026 21.7633 98.5462 21.5045 98.7293 21.1773C98.9114 20.8424 99.041 20.4506 99.1169 20.0017C99.2007 19.5526 99.2426 19.0656 99.2426 18.5406C99.2426 18.1221 99.2124 17.696 99.151 17.2622C99.0906 16.8208 98.9767 16.4213 98.8091 16.0637C98.6416 15.706 98.4098 15.413 98.1127 15.1847C97.8156 14.9565 97.428 14.8424 96.9484 14.8424C96.4689 14.8424 96.0618 14.9184 95.727 15.0707C95.3998 15.2228 95.1335 15.4549 94.928 15.7669C94.7301 16.0789 94.5894 16.4708 94.5057 16.9425C94.4219 17.4068 94.3801 17.9509 94.3801 18.5748ZM94.3687 15.1162C94.559 14.713 94.8025 14.3591 95.0993 14.0548C95.396 13.7504 95.7232 13.4955 96.0809 13.2899C96.4386 13.0845 96.8114 12.9323 97.1995 12.8334C97.5955 12.7269 97.9871 12.6736 98.3747 12.6736C99.0751 12.6736 99.7072 12.8296 100.27 13.1416C100.833 13.4536 101.312 13.8797 101.708 14.42C102.111 14.9527 102.42 15.5843 102.633 16.3148C102.846 17.0377 102.953 17.8139 102.953 18.6433C102.953 19.5032 102.838 20.2908 102.61 21.0061C102.39 21.7214 102.073 22.3378 101.662 22.8552C101.259 23.3651 100.772 23.7645 100.201 24.0537C99.638 24.3429 99.0108 24.4874 98.3182 24.4874C97.466 24.4874 96.7049 24.2896 96.0352 23.8939C95.3656 23.4982 94.8101 22.9427 94.3687 22.2274V26.3366C94.3687 27.0595 94.2203 27.615 93.9235 28.0031C93.6343 28.3911 93.1512 28.5853 92.4739 28.5853C91.8347 28.5853 91.3819 28.3911 91.1156 28.0031C90.8569 27.615 90.7275 27.0595 90.7275 26.3366V15.1162C90.7275 14.3933 90.8569 13.8378 91.1156 13.4498C91.3819 13.0617 91.8347 12.8676 92.4739 12.8676C93.1512 12.8676 93.6343 13.0617 93.9235 13.4498C94.2203 13.8378 94.3687 14.3933 94.3687 15.1162Z" fill="#B9C6D8"/>
<path d="M106.968 15.9268C106.968 16.2235 107.098 16.4556 107.356 16.6231C107.615 16.7829 107.972 16.916 108.429 17.0226C108.863 17.1215 109.308 17.2166 109.765 17.3079C110.221 17.3993 110.667 17.5058 111.1 17.6276C111.533 17.7416 111.941 17.8787 112.321 18.0384C112.701 18.1982 113.036 18.3999 113.326 18.6434C113.615 18.8793 113.843 19.1685 114.01 19.5108C114.178 19.8457 114.262 20.2491 114.262 20.7208C114.262 21.3143 114.14 21.8432 113.896 22.3074C113.653 22.764 113.307 23.152 112.858 23.4717C112.417 23.7913 111.888 24.0386 111.271 24.2136C110.655 24.3887 109.974 24.4799 109.228 24.4875C108.521 24.4875 107.839 24.4419 107.184 24.3506C106.531 24.2669 105.948 24.1337 105.438 23.951C104.936 23.7684 104.533 23.544 104.228 23.2776C103.924 23.0037 103.772 22.6841 103.772 22.3189C103.772 21.9992 103.875 21.7519 104.08 21.5768C104.286 21.4019 104.548 21.3143 104.868 21.3143C104.99 21.3143 105.134 21.3371 105.302 21.3828C105.469 21.4285 105.651 21.4856 105.849 21.5541C106.047 21.6225 106.256 21.6986 106.477 21.7824C106.705 21.8584 106.941 21.9269 107.184 21.9878C107.489 22.0716 107.801 22.14 108.12 22.1933C108.448 22.2389 108.783 22.2618 109.126 22.2618C109.338 22.2618 109.547 22.2427 109.753 22.2047C109.958 22.159 110.142 22.0943 110.301 22.0107C110.469 21.9193 110.605 21.8052 110.712 21.6682C110.818 21.5313 110.883 21.3638 110.906 21.166C110.929 21.1203 110.948 21.0746 110.963 21.029C110.978 20.9834 110.986 20.9301 110.986 20.8692C110.986 20.6561 110.887 20.4659 110.689 20.2984C110.499 20.1311 110.228 19.9979 109.879 19.899C109.292 19.762 108.733 19.6365 108.2 19.5223C107.668 19.4082 107.174 19.2864 106.717 19.1571C106.268 19.0277 105.857 18.8793 105.484 18.7118C105.118 18.5445 104.807 18.339 104.548 18.0955C104.297 17.852 104.099 17.559 103.955 17.2166C103.817 16.8742 103.749 16.4594 103.749 15.9724C103.749 15.4474 103.867 14.9794 104.103 14.5684C104.346 14.1499 104.693 13.7999 105.142 13.5183C105.591 13.2368 106.134 13.0237 106.774 12.8792C107.413 12.727 108.136 12.6509 108.943 12.6509C110.388 12.6509 111.488 12.8259 112.242 13.1759C113.002 13.5183 113.383 13.9673 113.383 14.5229C113.383 14.8348 113.28 15.0745 113.074 15.2419C112.869 15.4017 112.621 15.4816 112.333 15.4816C112.18 15.4816 112.02 15.455 111.853 15.4017C111.693 15.3408 111.499 15.2762 111.271 15.2077C111.043 15.1316 110.769 15.0669 110.449 15.0137C110.138 14.9528 109.749 14.9223 109.285 14.9223C108.935 14.9223 108.615 14.9375 108.326 14.968C108.044 14.9984 107.801 15.0517 107.595 15.1277C107.398 15.2039 107.242 15.3066 107.128 15.436C107.021 15.5654 106.968 15.7289 106.968 15.9268Z" fill="#B9C6D8"/>
<path d="M118.895 20.1155C118.895 20.4732 118.941 20.7852 119.032 21.0516C119.131 21.3179 119.264 21.5424 119.431 21.725C119.599 21.9001 119.793 22.0332 120.013 22.1245C120.242 22.2082 120.485 22.2501 120.744 22.2501C121.048 22.2501 121.342 22.2044 121.623 22.1131C121.905 22.0218 122.152 21.881 122.365 21.6907C122.585 21.5005 122.761 21.2608 122.89 20.9716C123.019 20.6825 123.084 20.3439 123.084 19.9558V15.1161C123.084 14.3931 123.214 13.8377 123.472 13.4496C123.739 13.0616 124.192 12.8674 124.831 12.8674C125.507 12.8674 125.991 13.0616 126.28 13.4496C126.577 13.8377 126.725 14.3931 126.725 15.1161V22.1017C126.725 22.8246 126.577 23.3801 126.28 23.7681C125.991 24.1563 125.507 24.3503 124.831 24.3503C124.192 24.3503 123.739 24.1563 123.472 23.7681C123.214 23.3801 123.084 22.8246 123.084 22.1017C122.924 22.4517 122.715 22.7713 122.456 23.0605C122.205 23.3497 121.908 23.6008 121.566 23.8138C121.231 24.0193 120.858 24.1791 120.447 24.2932C120.044 24.4074 119.606 24.4645 119.134 24.4645C118.625 24.4645 118.134 24.3769 117.662 24.202C117.198 24.0193 116.787 23.7529 116.43 23.4029C116.072 23.0453 115.787 22.6039 115.573 22.0789C115.36 21.5538 115.254 20.9412 115.254 20.2411V15.1161C115.254 14.3931 115.383 13.8377 115.642 13.4496C115.908 13.0616 116.36 12.8674 117 12.8674C117.677 12.8674 118.16 13.0616 118.45 13.4496C118.747 13.8377 118.895 14.3931 118.895 15.1161V20.1155Z" fill="#B9C6D8"/>
<path d="M128.378 15.1162C128.378 14.3933 128.507 13.8378 128.767 13.4498C129.032 13.0617 129.485 12.8676 130.124 12.8676C130.802 12.8676 131.285 13.0617 131.575 13.4498C131.871 13.8378 132.02 14.3933 132.02 15.1162C132.172 14.751 132.377 14.42 132.636 14.1232C132.902 13.8188 133.203 13.5601 133.537 13.347C133.88 13.134 134.249 12.9704 134.645 12.8562C135.04 12.7345 135.451 12.6736 135.878 12.6736C136.273 12.6736 136.661 12.7269 137.042 12.8334C137.43 12.9323 137.788 13.0959 138.115 13.3242C138.449 13.5449 138.743 13.8264 138.994 14.1689C139.245 14.5113 139.439 14.9222 139.576 15.4016C139.812 14.8918 140.09 14.4619 140.409 14.1118C140.729 13.7618 141.075 13.4802 141.447 13.2672C141.82 13.054 142.209 12.9019 142.612 12.8105C143.023 12.7193 143.433 12.6736 143.844 12.6736C144.332 12.6736 144.796 12.7611 145.237 12.9361C145.686 13.1111 146.078 13.3775 146.413 13.7352C146.756 14.0851 147.026 14.5304 147.223 15.0707C147.429 15.6033 147.531 16.2273 147.531 16.9425V22.1019C147.531 22.8248 147.383 23.3803 147.086 23.7683C146.798 24.1565 146.314 24.3505 145.637 24.3505C144.998 24.3505 144.545 24.1565 144.279 23.7683C144.02 23.3803 143.89 22.8248 143.89 22.1019V17.1024C143.89 16.7599 143.845 16.4555 143.754 16.1892C143.662 15.9152 143.533 15.687 143.365 15.5044C143.206 15.3142 143.016 15.1733 142.795 15.0821C142.574 14.9831 142.338 14.9336 142.087 14.9336C141.775 14.9336 141.479 14.9831 141.197 15.0821C140.916 15.1809 140.668 15.3332 140.455 15.5386C140.249 15.7441 140.082 16.0066 139.952 16.3262C139.831 16.6458 139.77 17.0301 139.77 17.479V22.1019C139.77 22.8248 139.621 23.3803 139.325 23.7683C139.036 24.1565 138.553 24.3505 137.875 24.3505C137.236 24.3505 136.783 24.1565 136.517 23.7683C136.258 23.3803 136.128 22.8248 136.128 22.1019V17.3192C136.128 16.5355 135.965 15.9419 135.638 15.5386C135.318 15.1353 134.881 14.9336 134.325 14.9336C133.998 14.9336 133.693 14.9869 133.412 15.0935C133.13 15.2 132.887 15.356 132.681 15.5615C132.476 15.7669 132.312 16.0218 132.19 16.3262C132.076 16.6306 132.02 16.9806 132.02 17.3763V22.1019C132.02 22.8248 131.871 23.3803 131.575 23.7683C131.285 24.1565 130.802 24.3505 130.124 24.3505C129.485 24.3505 129.032 24.1565 128.767 23.7683C128.507 23.3803 128.378 22.8248 128.378 22.1019V15.1162Z" fill="#B9C6D8"/>
<path d="M16.558 22.4029C13.3304 22.4029 10.7139 19.7864 10.7139 16.5588C10.7139 13.3311 13.3304 10.7146 16.558 10.7146C19.7856 10.7146 22.4022 13.3311 22.4022 16.5588C22.4022 19.7864 19.7856 22.4029 16.558 22.4029Z" fill="#B9C6D8"/>
<path d="M5.23669 18.5547C3.54311 18.8534 2.38224 20.4893 3.03236 22.0815C3.93999 24.3042 5.38801 26.2846 7.26526 27.8321C9.94959 30.0448 13.3353 31.2272 16.8135 31.1665C20.2918 31.1058 23.6343 29.806 26.2398 27.5009C28.0618 25.8888 29.4398 23.8591 30.2694 21.606C30.8636 19.9922 29.6462 18.3977 27.9433 18.1584C26.2404 17.9191 24.7113 19.1586 23.8702 20.6586C23.4142 21.4716 22.8223 22.2093 22.1132 22.8366C20.6183 24.1593 18.7005 24.905 16.7049 24.9398C14.7093 24.9746 12.7667 24.2963 11.2265 23.0267C10.4959 22.4244 9.87868 21.7079 9.39461 20.9113C8.50163 19.4416 6.93028 18.2561 5.23669 18.5547Z" fill="#B9C6D8"/>
<path d="M31.056 18.3842C31.1306 17.786 31.169 17.1767 31.169 16.5584C31.169 8.48929 24.6278 1.948 16.5586 1.948C8.48954 1.948 1.94824 8.48929 1.94824 16.5584C1.94824 17.3519 2.01151 18.1307 2.13327 18.8899C2.80435 17.9712 3.85174 17.3154 4.98307 17.1159C6.20712 16.9001 7.31959 17.197 8.26019 17.7519C8.20462 17.3621 8.17587 16.9636 8.17587 16.5584C8.17587 11.9287 11.929 8.17563 16.5586 8.17563C21.1883 8.17563 24.9414 11.9287 24.9414 16.5584C24.9414 16.8636 24.925 17.1651 24.8933 17.4619C25.814 16.8743 26.9156 16.5385 28.1467 16.7116C29.284 16.8714 30.3533 17.4899 31.056 18.3842Z" fill="#B9C6D8"/>
</svg>
