<svg width="150" height="32" viewBox="0 0 150 32" fill="none" xmlns="http://www.w3.org/2000/svg">
<path d="M44.6006 10.0699H48.2296V22.1999H44.6006V10.0699ZM49.6691 17.6199C49.6691 14.6199 51.8949 12.8299 55.3304 12.8299C58.7659 12.8299 60.9917 14.6199 60.9917 17.6199C60.9917 20.6199 58.8143 22.4199 55.3304 22.4199C51.8466 22.4199 49.6691 20.6699 49.6691 17.6199ZM57.3506 17.6199C57.3506 15.9699 56.5643 14.9999 55.3304 14.9999C54.0966 14.9999 53.3224 15.9999 53.3224 17.6199C53.3224 19.2399 54.0845 20.2199 55.3304 20.2199C56.5764 20.2199 57.3506 19.2999 57.3506 17.6299V17.6199ZM62.3587 22.7899H65.8425C66.0084 23.0944 66.2887 23.3465 66.6418 23.5087C66.9949 23.6708 67.4019 23.7344 67.8022 23.6899C69.1812 23.6899 69.907 23.0699 69.907 22.1699V20.4899H69.8345C69.5454 21.0048 69.0761 21.4362 68.4875 21.7286C67.8989 22.0209 67.2177 22.1607 66.532 22.1299C63.8829 22.1299 62.1288 20.4599 62.1288 17.5899C62.1288 14.7199 63.7982 12.9099 66.5804 12.9099C67.2876 12.887 67.9863 13.0433 68.5831 13.3578C69.1798 13.6724 69.646 14.1302 69.9191 14.6699V12.9999H73.5482V22.0999C73.5482 24.2899 71.2135 25.6499 67.7659 25.6499C64.5603 25.6499 62.5643 24.4599 62.3587 22.7999V22.7899ZM69.9191 17.6099C69.9191 16.1499 69.1087 15.2299 67.8264 15.2299C66.5441 15.2299 65.7579 16.1399 65.7579 17.6099C65.7579 19.0799 66.532 19.9099 67.8264 19.9099C69.1208 19.9099 69.9191 19.0999 69.9191 17.6199V17.6099ZM74.9151 17.6099C74.9151 14.6099 77.1409 12.8199 80.5764 12.8199C84.0119 12.8199 86.2498 14.6099 86.2498 17.6099C86.2498 20.6099 84.0724 22.4099 80.5764 22.4099C77.0804 22.4099 74.9151 20.6699 74.9151 17.6199V17.6099ZM82.5966 17.6099C82.5966 15.9599 81.8103 14.9899 80.5764 14.9899C79.3425 14.9899 78.6288 15.9999 78.6288 17.6299C78.6288 19.2599 79.3909 20.2299 80.6248 20.2299C81.8587 20.2299 82.5966 19.2999 82.5966 17.6299V17.6099ZM87.6288 10.8199C87.6193 10.517 87.7188 10.2186 87.9147 9.96255C88.1106 9.70645 88.3941 9.50421 88.7292 9.38145C89.0642 9.25869 89.4358 9.22094 89.7969 9.27299C90.158 9.32505 90.4923 9.46456 90.7573 9.67383C91.0225 9.88311 91.2063 10.1527 91.2858 10.4485C91.3653 10.7443 91.3367 11.0529 91.2037 11.3353C91.0707 11.6176 90.8393 11.861 90.5388 12.0345C90.2385 12.208 89.8823 12.3039 89.5159 12.3099C89.273 12.3237 89.0293 12.2958 88.8 12.228C88.5707 12.1602 88.3609 12.054 88.1837 11.9159C88.0065 11.7779 87.8657 11.611 87.7702 11.4258C87.6747 11.2407 87.6265 11.0412 87.6288 10.8399V10.8199ZM87.6288 13.0199H91.2579V22.1999H87.6288V13.0199ZM104.431 17.6099C104.431 20.6099 102.822 22.3199 100.064 22.3199C99.3571 22.3574 98.653 22.2145 98.0472 21.9105C97.4414 21.6064 96.9632 21.1559 96.6772 20.6199H96.6046V25.1399H92.9756V12.9999H96.6046V14.6399H96.6772C96.9499 14.095 97.419 13.6328 98.0207 13.3161C98.6224 12.9994 99.3275 12.8436 100.04 12.8699C102.822 12.9099 104.48 14.6299 104.48 17.6299L104.431 17.6099ZM100.802 17.6099C100.802 16.1499 99.9917 15.2199 98.7216 15.2199C97.4514 15.2199 96.6409 16.1599 96.6288 17.6099C96.6167 19.0599 97.4514 19.9899 98.7216 19.9899C99.9917 19.9899 100.802 19.0799 100.802 17.6299V17.6099ZM110.661 12.8099C113.673 12.8099 115.5 13.9899 115.584 15.8799H112.282C112.282 15.2299 111.629 14.8199 110.625 14.8199C109.621 14.8199 109.173 15.1399 109.173 15.6099C109.173 16.0799 109.572 16.2299 110.383 16.3699L112.705 16.7599C114.919 17.1499 115.863 17.8899 115.863 19.2799C115.863 21.1799 113.77 22.3999 110.685 22.3999C107.601 22.3999 105.58 21.1799 105.423 19.3099H108.919C109.028 19.9899 109.681 20.3899 110.746 20.3899C111.81 20.3899 112.294 20.0999 112.294 19.6199C112.294 19.1399 111.955 19.0399 111.084 18.8899L108.992 18.5199C106.826 18.1499 105.689 17.1999 105.689 15.7999C105.714 13.9999 107.661 12.8299 110.661 12.8299V12.8099ZM127.972 22.1799H124.476V20.4699H124.403C124.211 21.044 123.787 21.5465 123.202 21.894C122.616 22.2414 121.905 22.4129 121.185 22.3799C120.634 22.4058 120.082 22.3336 119.568 22.1681C119.053 22.0026 118.587 21.7478 118.202 21.4207C117.817 21.0937 117.521 20.702 117.334 20.2723C117.148 19.8426 117.075 19.3848 117.121 18.9299V12.9999H120.75V18.2399C120.75 19.3299 121.427 19.9099 122.552 19.9099C122.816 19.9103 123.077 19.8642 123.318 19.7745C123.557 19.6848 123.773 19.5536 123.947 19.3898C124.12 19.2259 124.251 19.0332 124.327 18.8246C124.403 18.6159 124.426 18.3961 124.391 18.1799V12.9999H128.02L127.972 22.1799ZM129.726 12.9999H133.234V14.7699H133.306C133.499 14.2034 133.914 13.7056 134.484 13.3546C135.055 13.0036 135.752 12.819 136.464 12.8299C137.188 12.782 137.907 12.9611 138.479 13.3317C139.05 13.7023 139.432 14.2371 139.548 14.8299H139.621C139.84 14.2308 140.295 13.7092 140.913 13.3471C141.53 12.985 142.276 12.803 143.032 12.8299C143.526 12.8162 144.017 12.8885 144.474 13.0421C144.932 13.1956 145.345 13.4271 145.687 13.7213C146.03 14.0156 146.293 14.3661 146.462 14.75C146.628 15.1339 146.697 15.5428 146.661 15.9499V22.1999H143.032V16.7499C143.032 15.7499 142.488 15.2899 141.472 15.2899C141.245 15.2883 141.02 15.3269 140.814 15.4031C140.607 15.4793 140.422 15.5913 140.272 15.7316C140.122 15.8719 140.009 16.0371 139.943 16.2162C139.876 16.3954 139.858 16.5842 139.887 16.7699V22.1999H136.439V16.7099C136.439 15.7899 135.895 15.2899 134.903 15.2899C134.674 15.29 134.447 15.3302 134.239 15.4079C134.03 15.4857 133.842 15.5992 133.691 15.7409C133.539 15.8826 133.425 16.0494 133.356 16.2303C133.288 16.4111 133.266 16.6018 133.294 16.7899V22.1999H129.665L129.726 12.9999Z" fill="#B9C6D8"/>
<path d="M34.4516 10.6199C33.836 9.45625 33.0213 8.37182 32.0323 7.39989C30.5704 5.92023 28.746 4.71328 26.6791 3.85849C24.6122 3.00371 22.3498 2.52046 20.0408 2.44055C17.7317 2.36064 15.4284 2.68588 13.2823 3.39488C11.1363 4.10387 9.1962 5.18054 7.58979 6.55402C5.98336 7.92749 4.74701 9.56664 3.96211 11.3636C3.17721 13.1605 2.86154 15.0745 3.03591 16.9795C3.21028 18.8846 3.87071 20.7375 4.97374 22.4163C6.07677 24.0952 7.59739 25.5619 9.43552 26.7199C10.615 27.4778 11.9182 28.0939 13.3065 28.5499C15.2529 29.2093 17.336 29.5489 19.4395 29.5499C23.7816 29.542 27.9426 28.1112 31.0107 25.5712C34.0787 23.0312 35.8033 19.5893 35.8065 15.9999C35.8096 14.1484 35.3484 12.3165 34.4516 10.6199ZM19.4274 5.18988C21.3165 5.18972 23.1826 5.53102 24.8952 6.18988C24.4776 6.33905 24.0385 6.44324 23.5887 6.49989C22.1088 6.67698 20.7379 7.24496 19.6805 8.11906C18.6231 8.99315 17.936 10.1265 17.7218 11.3499C17.6278 12.036 17.2503 12.6743 16.6531 13.1571C16.0558 13.6399 15.2755 13.9375 14.4436 13.9999C12.9637 14.177 11.5927 14.745 10.5353 15.6191C9.47796 16.4932 8.79087 17.6265 8.57665 18.8499C8.50412 19.5023 8.16741 20.1154 7.62101 20.5899C6.67825 18.9432 6.25474 17.126 6.38988 15.3076C6.52503 13.4892 7.21444 11.7286 8.39396 10.1896C9.57346 8.65068 11.2048 7.3834 13.136 6.50573C15.0673 5.62806 17.2358 5.16853 19.4395 5.16988L19.4274 5.18988ZM9.42343 22.9999C9.56859 22.8899 9.71375 22.7899 9.85891 22.6699C10.9351 21.8074 11.6259 20.6688 11.8186 19.4399C11.8967 18.7491 12.2698 18.1039 12.871 17.6199C13.4496 17.1221 14.2283 16.8162 15.0605 16.7599C16.5404 16.5828 17.9114 16.0148 18.9687 15.1407C20.0261 14.2666 20.7132 13.1333 20.9274 11.9099C20.9798 11.1874 21.3548 10.5067 21.9799 9.99989C22.5727 9.51174 23.3588 9.21699 24.1936 9.16988C25.5531 9.01525 26.8211 8.5156 27.8226 7.73989C28.963 8.52196 29.929 9.46278 30.6774 10.5199C30.6315 10.5712 30.5787 10.6182 30.5202 10.6599C29.9428 11.1621 29.1651 11.4747 28.3307 11.5399C26.8492 11.7139 25.4762 12.2809 24.4181 13.1555C23.3601 14.0302 22.6742 15.1652 22.4637 16.3899C22.3785 17.0783 22.0079 17.7212 21.4149 18.2096C20.8218 18.6981 20.0428 19.002 19.2097 19.0699C17.7254 19.2456 16.3494 19.8125 15.2859 20.6862C14.2224 21.56 13.5282 22.694 13.3065 23.9199C13.2414 24.4086 13.0383 24.8779 12.7137 25.2899C11.4726 24.6807 10.361 23.9071 9.42343 22.9999ZM19.4274 26.8599C18.2 26.861 16.9783 26.7196 15.7984 26.4399C16.2021 25.8179 16.4645 25.14 16.5726 24.4399C16.6574 23.753 17.0262 23.1113 17.6168 22.6231C18.2074 22.1349 18.9836 21.83 19.8145 21.7599C21.2966 21.5848 22.6703 21.0177 23.7301 20.1434C24.7898 19.2692 25.4787 18.1347 25.6936 16.9099C25.7784 16.223 26.1472 15.5813 26.7378 15.0931C27.3283 14.6049 28.1046 14.3 28.9355 14.2299C30.0508 14.11 31.1139 13.7667 32.0323 13.2299C32.5423 14.8278 32.6026 16.501 32.2089 18.1212C31.8151 19.7414 30.9776 21.2656 29.7606 22.5767C28.5437 23.8877 26.9797 24.951 25.1884 25.6848C23.3972 26.4186 21.4266 26.8035 19.4274 26.8099V26.8599Z" fill="#B9C6D8"/>
</svg>
