<svg width="13" height="14" viewBox="0 0 13 14" fill="none" xmlns="http://www.w3.org/2000/svg">
<path d="M0 12.6875C0 13.4258 0.574219 14 1.3125 14H10.9375C11.6484 14 12.25 13.4258 12.25 12.6875V5.25H0V12.6875ZM8.75 7.32812C8.75 7.16406 8.88672 7 9.07812 7H10.1719C10.3359 7 10.5 7.16406 10.5 7.32812V8.42188C10.5 8.61328 10.3359 8.75 10.1719 8.75H9.07812C8.88672 8.75 8.75 8.61328 8.75 8.42188V7.32812ZM8.75 10.8281C8.75 10.6641 8.88672 10.5 9.07812 10.5H10.1719C10.3359 10.5 10.5 10.6641 10.5 10.8281V11.9219C10.5 12.1133 10.3359 12.25 10.1719 12.25H9.07812C8.88672 12.25 8.75 12.1133 8.75 11.9219V10.8281ZM5.25 7.32812C5.25 7.16406 5.38672 7 5.57812 7H6.67188C6.83594 7 7 7.16406 7 7.32812V8.42188C7 8.61328 6.83594 8.75 6.67188 8.75H5.57812C5.38672 8.75 5.25 8.61328 5.25 8.42188V7.32812ZM5.25 10.8281C5.25 10.6641 5.38672 10.5 5.57812 10.5H6.67188C6.83594 10.5 7 10.6641 7 10.8281V11.9219C7 12.1133 6.83594 12.25 6.67188 12.25H5.57812C5.38672 12.25 5.25 12.1133 5.25 11.9219V10.8281ZM1.75 7.32812C1.75 7.16406 1.88672 7 2.07812 7H3.17188C3.33594 7 3.5 7.16406 3.5 7.32812V8.42188C3.5 8.61328 3.33594 8.75 3.17188 8.75H2.07812C1.88672 8.75 1.75 8.61328 1.75 8.42188V7.32812ZM1.75 10.8281C1.75 10.6641 1.88672 10.5 2.07812 10.5H3.17188C3.33594 10.5 3.5 10.6641 3.5 10.8281V11.9219C3.5 12.1133 3.33594 12.25 3.17188 12.25H2.07812C1.88672 12.25 1.75 12.1133 1.75 11.9219V10.8281ZM10.9375 1.75H9.625V0.4375C9.625 0.21875 9.40625 0 9.1875 0H8.3125C8.06641 0 7.875 0.21875 7.875 0.4375V1.75H4.375V0.4375C4.375 0.21875 4.15625 0 3.9375 0H3.0625C2.81641 0 2.625 0.21875 2.625 0.4375V1.75H1.3125C0.574219 1.75 0 2.35156 0 3.0625V4.375H12.25V3.0625C12.25 2.35156 11.6484 1.75 10.9375 1.75Z" fill="#828282"/>
</svg>
