<svg width="12" height="12" viewBox="0 0 12 12" fill="none" xmlns="http://www.w3.org/2000/svg">
<path d="M5.8125 0C9.02344 0 11.625 2.60156 11.625 5.8125C11.625 9.02344 9.02344 11.625 5.8125 11.625C2.60156 11.625 0 9.02344 0 5.8125C0 2.60156 2.60156 0 5.8125 0ZM7.96875 7.33594C8.01562 7.28906 8.0625 7.19531 8.0625 7.10156C8.0625 6.98438 7.99219 6.89062 7.92188 6.82031L6.5625 5.8125V2.4375C6.5625 2.25 6.375 2.0625 6.1875 2.0625H5.4375C5.22656 2.0625 5.0625 2.25 5.0625 2.4375V6.09375C5.0625 6.39844 5.17969 6.65625 5.41406 6.82031L6.98438 7.99219C7.03125 8.03906 7.125 8.08594 7.19531 8.08594C7.33594 8.08594 7.42969 8.01562 7.5 7.92188L7.96875 7.33594Z" fill="#2266CC"/>
</svg>
