<svg width="150" height="40" viewBox="0 0 150 40" fill="none" xmlns="http://www.w3.org/2000/svg">
<path d="M50.943 28.6416C50.2671 28.6783 49.5986 28.4862 49.0453 28.0962C48.8141 27.9248 48.6281 27.6997 48.5033 27.4404C48.3786 27.181 48.3189 26.8952 48.3294 26.6075V16.0735C48.3239 16.0289 48.3286 15.9836 48.3432 15.9411C48.3578 15.8986 48.3819 15.86 48.4137 15.8282C48.4455 15.7964 48.484 15.7723 48.5265 15.7578C48.569 15.7431 48.6144 15.7385 48.6589 15.7439H50.568C50.7839 15.7439 50.8862 15.8575 50.8862 16.0735V25.7894C50.8862 26.2212 51.0794 26.4371 51.4771 26.4371C51.6457 26.444 51.8144 26.4249 51.9771 26.3803C52.2044 26.3803 52.3294 26.4485 52.3407 26.653L52.5112 28.0735C52.5194 28.1149 52.5186 28.1575 52.5089 28.1987C52.4993 28.2397 52.4808 28.2783 52.4549 28.3116C52.4291 28.345 52.3964 28.3725 52.3591 28.3922C52.3218 28.4119 52.2806 28.4233 52.2385 28.4257C51.8203 28.5639 51.3833 28.6368 50.943 28.6416Z" fill="#B9C6D8"/>
<path d="M61.6822 27.4258C60.723 28.2184 59.5174 28.6519 58.2731 28.6519C57.0288 28.6519 55.8233 28.2184 54.864 27.4258C54.0209 26.5746 53.5479 25.425 53.5479 24.2269C53.5479 23.0288 54.0209 21.8792 54.864 21.028C55.8251 20.2395 57.0299 19.8086 58.2731 19.8086C59.5163 19.8086 60.721 20.2395 61.6822 21.028C62.5059 21.887 62.9658 23.0311 62.9658 24.2212C62.9658 25.4113 62.5059 26.5554 61.6822 27.4144V27.4258ZM56.6594 25.9258C57.1047 26.329 57.6838 26.5523 58.2844 26.5523C58.8851 26.5523 59.4643 26.329 59.9094 25.9258C60.3124 25.4626 60.5342 24.8693 60.5342 24.2553C60.5342 23.6414 60.3124 23.0481 59.9094 22.5848C59.4643 22.1817 58.8851 21.9583 58.2844 21.9583C57.6838 21.9583 57.1047 22.1817 56.6594 22.5848C56.2566 23.0481 56.0347 23.6414 56.0347 24.2553C56.0347 24.8693 56.2566 25.4626 56.6594 25.9258Z" fill="#B9C6D8"/>
<path d="M73.4771 20.0962C73.693 20.0962 73.7953 20.2099 73.7953 20.4258V28.5735C73.8152 29.1235 73.7122 29.6709 73.494 30.176C73.2758 30.6812 72.9479 31.1314 72.5339 31.4939C71.615 32.2775 70.4334 32.6835 69.2271 32.6303C68.1375 32.6686 67.0624 32.3711 66.1475 31.778C65.7569 31.5216 65.4231 31.1874 65.1671 30.7964C64.911 30.4054 64.738 29.966 64.6589 29.5053C64.6589 29.278 64.6589 29.1758 64.9657 29.1758H66.8748C66.9558 29.1785 67.0345 29.2047 67.101 29.2511C67.1675 29.2975 67.2192 29.362 67.2498 29.4371C67.3737 29.7822 67.6205 30.0696 67.943 30.2439C68.3361 30.4468 68.7736 30.5484 69.2157 30.5394C69.4825 30.5541 69.7496 30.5153 70.0013 30.4255C70.253 30.3359 70.4842 30.1968 70.6816 30.0167C70.862 29.8283 71.0022 29.6052 71.094 29.3611C71.1858 29.117 71.2272 28.8568 71.2157 28.5962V27.8803C70.5322 28.383 69.7003 28.643 68.8521 28.6189C68.2584 28.6405 67.6666 28.542 67.112 28.3292C66.5574 28.1162 66.0516 27.7936 65.6248 27.3803C64.8056 26.5328 64.3477 25.4001 64.3477 24.2212C64.3477 23.0425 64.8056 21.9097 65.6248 21.0621C66.0537 20.6526 66.5602 20.333 67.1144 20.1222C67.6687 19.9114 68.2595 19.8137 68.8521 19.8349C69.7248 19.8118 70.5791 20.0886 71.2725 20.6189V20.4371C71.2673 20.3936 71.2719 20.3494 71.2858 20.3078C71.2998 20.2663 71.3229 20.2284 71.3533 20.1968C71.3838 20.1652 71.4209 20.1409 71.462 20.1254C71.5031 20.11 71.5471 20.1039 71.5907 20.1076L73.4771 20.0962ZM69.068 26.5962C69.3607 26.6053 69.652 26.55 69.9209 26.4341C70.1899 26.3183 70.4303 26.1447 70.6248 25.9258C71.0027 25.4379 71.2077 24.8383 71.2077 24.2212C71.2077 23.6042 71.0027 23.0046 70.6248 22.5167C70.4309 22.3008 70.1921 22.1297 69.9252 22.0159C69.6581 21.902 69.3695 21.848 69.0794 21.8576C68.7832 21.8483 68.4887 21.9034 68.216 22.0192C67.9432 22.135 67.6989 22.3086 67.4998 22.528C67.0813 22.9947 66.8612 23.6062 66.8862 24.2326C66.8657 24.8528 67.081 25.4578 67.4884 25.9258C67.688 26.1446 67.9324 26.3179 68.205 26.4336C68.4777 26.5493 68.772 26.6047 69.068 26.5962Z" fill="#B9C6D8"/>
<path d="M83.6018 27.4259C82.6407 28.2144 81.4359 28.6453 80.1928 28.6453C78.9496 28.6453 77.7448 28.2144 76.7837 27.4259C75.9593 26.565 75.499 25.4191 75.499 24.227C75.499 23.0351 75.9593 21.8891 76.7837 21.0281C77.7457 20.2417 78.9502 19.812 80.1928 19.812C81.4354 19.812 82.6398 20.2417 83.6018 21.0281C84.4256 21.8871 84.8855 23.0312 84.8855 24.2213C84.8855 25.4114 84.4256 26.5555 83.6018 27.4145V27.4259ZM78.5678 25.9259C78.7856 26.1331 79.0424 26.2951 79.3233 26.4024C79.6042 26.5096 79.9036 26.5602 80.2041 26.5509C80.5028 26.5586 80.8 26.5075 81.0789 26.4002C81.3578 26.2929 81.6127 26.1318 81.8291 25.9259C82.2255 25.4595 82.4431 24.8675 82.4431 24.2554C82.4431 23.6434 82.2255 23.0513 81.8291 22.585C81.6127 22.3792 81.3578 22.2179 81.0789 22.1108C80.8 22.0035 80.5028 21.9522 80.2041 21.96C79.9036 21.9508 79.6042 22.0012 79.3233 22.1085C79.0424 22.2158 78.7856 22.3778 78.5678 22.585C78.1715 23.0513 77.9539 23.6434 77.9539 24.2554C77.9539 24.8675 78.1715 25.4595 78.5678 25.9259Z" fill="#B9C6D8"/>
<path d="M88.9884 18.1645C88.6881 18.4275 88.3024 18.5724 87.9032 18.5724C87.504 18.5724 87.1184 18.4275 86.818 18.1645C86.6818 18.036 86.5733 17.881 86.4991 17.7091C86.425 17.5371 86.3867 17.3518 86.3867 17.1645C86.3867 16.9772 86.425 16.792 86.4991 16.62C86.5733 16.448 86.6818 16.293 86.818 16.1645C87.1215 15.9081 87.5059 15.7676 87.9032 15.7676C88.3005 15.7676 88.6849 15.9081 88.9884 16.1645C89.1247 16.293 89.2332 16.448 89.3073 16.62C89.3815 16.792 89.4197 16.9772 89.4197 17.1645C89.4197 17.3518 89.3815 17.5371 89.3073 17.7091C89.2332 17.881 89.1247 18.036 88.9884 18.1645ZM89.2271 28.6418C88.5516 28.675 87.8842 28.4831 87.3293 28.0963C87.1017 27.9225 86.9189 27.6966 86.7964 27.4376C86.6738 27.1786 86.6149 26.8941 86.6248 26.6077V20.4259C86.6193 20.3813 86.624 20.336 86.6387 20.2935C86.6532 20.251 86.6773 20.2125 86.7091 20.1806C86.7409 20.1488 86.7795 20.1247 86.822 20.1102C86.8645 20.0955 86.9098 20.0909 86.9543 20.0963H88.8634C89.0793 20.0963 89.1816 20.21 89.1816 20.4259V25.7895C89.1816 26.2213 89.3748 26.4372 89.7612 26.4372C89.9335 26.4435 90.1058 26.4243 90.2725 26.3804C90.4998 26.3804 90.6248 26.4486 90.6362 26.6531L90.8066 28.0736C90.8148 28.1151 90.814 28.1577 90.8043 28.1988C90.7947 28.2399 90.7763 28.2785 90.7504 28.3118C90.7246 28.3452 90.6918 28.3727 90.6546 28.3924C90.6172 28.412 90.576 28.4235 90.5339 28.4259C90.1121 28.5649 89.6713 28.6377 89.2271 28.6418Z" fill="#B9C6D8"/>
<path d="M97.8297 19.8236C98.4261 19.8001 99.021 19.8966 99.5793 20.1074C100.138 20.3183 100.648 20.6391 101.08 21.0509C101.883 21.9134 102.33 23.0483 102.33 24.227C102.33 25.4058 101.883 26.5408 101.08 27.4032C100.65 27.8187 100.14 28.1427 99.5817 28.3556C99.023 28.5685 98.4271 28.6659 97.8297 28.6418C96.9788 28.6608 96.1449 28.4015 95.4548 27.9032V32.0054C95.4548 32.2213 95.3411 32.3236 95.1252 32.3236H93.2161C93.1726 32.3318 93.1277 32.3292 93.0853 32.3161C93.0431 32.3029 93.0045 32.2798 92.9732 32.2484C92.9419 32.217 92.9186 32.1786 92.9055 32.1362C92.8924 32.094 92.8899 32.0491 92.8979 32.0054V22.6873C92.9113 22.5961 92.9032 22.5032 92.8743 22.4157C92.8453 22.3283 92.7962 22.2487 92.7311 22.1836C92.666 22.1185 92.5866 22.0695 92.4991 22.0406C92.4117 22.0116 92.3186 22.0035 92.2275 22.0168H91.8525C91.6025 22.0168 91.4775 21.9259 91.4775 21.7441V20.4032C91.4716 20.3202 91.4943 20.2377 91.5419 20.1695C91.5894 20.1012 91.659 20.0513 91.7388 20.0282C92.1319 19.8853 92.5479 19.816 92.9661 19.8236C93.3832 19.7867 93.8017 19.8752 94.1682 20.0776C94.5345 20.2801 94.8323 20.5874 95.0229 20.96C95.389 20.5898 95.8267 20.2981 96.3093 20.1026C96.7919 19.9073 97.3093 19.8123 97.8297 19.8236ZM96.057 25.9259C96.2596 26.1377 96.503 26.3062 96.7726 26.4213C97.0421 26.5365 97.3321 26.5958 97.6252 26.5958C97.9183 26.5958 98.2084 26.5365 98.4778 26.4213C98.7474 26.3062 98.9908 26.1377 99.1934 25.9259C99.6202 25.4499 99.8444 24.8261 99.8184 24.1873C99.8482 23.5479 99.6234 22.9227 99.1934 22.4486C98.9908 22.2369 98.7474 22.0684 98.4778 21.9533C98.2084 21.8381 97.9183 21.7787 97.6252 21.7787C97.3321 21.7787 97.0421 21.8381 96.7726 21.9533C96.503 22.0684 96.2596 22.2369 96.057 22.4486C95.6436 22.9311 95.4284 23.5524 95.4548 24.1873C95.4317 24.8217 95.6466 25.4418 96.057 25.9259Z" fill="#B9C6D8"/>
<path d="M107.693 28.6417C106.673 28.6837 105.661 28.4397 104.772 27.9372C104.416 27.7224 104.112 27.43 103.884 27.0818C103.656 26.7337 103.509 26.3385 103.454 25.9258C103.454 25.6985 103.534 25.5849 103.784 25.5849H105.454C105.534 25.5881 105.611 25.613 105.677 25.6572C105.743 25.7013 105.796 25.7628 105.829 25.8349C106.068 26.4485 106.693 26.7554 107.693 26.7554C108.042 26.7714 108.389 26.701 108.704 26.5508C108.813 26.5017 108.906 26.424 108.974 26.3259C109.042 26.2279 109.083 26.1131 109.09 25.994C109.09 25.6985 108.909 25.494 108.545 25.3576C108.114 25.2141 107.668 25.1188 107.215 25.0735C106.68 25.0129 106.148 24.918 105.625 24.7895C105.115 24.6742 104.652 24.409 104.295 24.0281C104.085 23.7692 103.93 23.4698 103.84 23.1486C103.75 22.8273 103.728 22.4909 103.774 22.1606C103.82 21.8301 103.933 21.5126 104.107 21.228C104.28 20.9432 104.511 20.6973 104.784 20.5054C105.603 19.9837 106.564 19.7295 107.534 19.7781C108.473 19.7464 109.402 19.9787 110.215 20.4485C110.543 20.6343 110.826 20.8908 111.042 21.1995C111.258 21.5081 111.403 21.861 111.465 22.2326C111.465 22.4599 111.363 22.5735 111.159 22.5735H109.477C109.406 22.5778 109.336 22.5605 109.275 22.524C109.214 22.4875 109.166 22.4334 109.136 22.369C109.024 22.0999 108.812 21.8842 108.545 21.7667C108.244 21.6092 107.908 21.5309 107.568 21.5395C107.235 21.5214 106.902 21.5879 106.602 21.7326C106.496 21.7735 106.405 21.8451 106.34 21.9383C106.275 22.0315 106.24 22.142 106.238 22.2554C106.245 22.4108 106.302 22.5598 106.401 22.6805C106.499 22.8012 106.633 22.8871 106.784 22.9258C107.22 23.0904 107.674 23.2047 108.136 23.2667C108.667 23.3367 109.195 23.4354 109.715 23.5622C110.225 23.6775 110.688 23.9426 111.045 24.3235C111.236 24.5334 111.384 24.779 111.479 25.0463C111.575 25.3134 111.616 25.597 111.602 25.8804C111.612 26.2732 111.519 26.6618 111.334 27.0084C111.149 27.3549 110.877 27.6475 110.545 27.8576C109.696 28.4028 108.701 28.6762 107.693 28.6417Z" fill="#B9C6D8"/>
<path d="M123.613 28.0735C123.62 28.1138 123.618 28.1551 123.609 28.1947C123.599 28.2345 123.582 28.2718 123.557 28.3046C123.533 28.3374 123.502 28.3651 123.467 28.3859C123.432 28.4066 123.393 28.4202 123.352 28.4257C122.937 28.5612 122.504 28.634 122.068 28.6416C121.636 28.6864 121.2 28.6189 120.802 28.4457C120.403 28.2726 120.057 27.9995 119.795 27.653C118.993 28.3431 117.954 28.6972 116.898 28.6416C116.407 28.6643 115.917 28.5839 115.459 28.4059C115.001 28.2278 114.585 27.9559 114.238 27.6076C113.894 27.2427 113.627 26.812 113.453 26.3414C113.28 25.8709 113.203 25.3701 113.227 24.8689V20.4257C113.227 20.2098 113.329 20.0962 113.545 20.0962H115.454C115.67 20.0962 115.772 20.2098 115.772 20.4257V24.528C115.752 25.0391 115.926 25.5389 116.261 25.9257C116.428 26.103 116.632 26.2423 116.857 26.3345C117.082 26.4266 117.325 26.4694 117.568 26.4598C117.817 26.4707 118.066 26.4322 118.3 26.3463C118.534 26.2605 118.749 26.1291 118.932 25.9598C119.104 25.7814 119.24 25.5694 119.327 25.3368C119.416 25.1041 119.454 24.856 119.443 24.6076V20.4257C119.443 20.2098 119.545 20.0962 119.761 20.0962H121.693C121.909 20.0962 122.011 20.2098 122.011 20.4257V25.778C122.011 26.2212 122.204 26.4371 122.579 26.4371C122.755 26.4439 122.932 26.4248 123.102 26.3803C123.145 26.3682 123.191 26.3661 123.234 26.374C123.278 26.3819 123.319 26.3996 123.355 26.4259C123.392 26.4521 123.421 26.4862 123.443 26.5255C123.463 26.5648 123.475 26.6085 123.477 26.653L123.613 28.0735Z" fill="#B9C6D8"/>
<path d="M141.67 28.0737C141.68 28.1144 141.682 28.1569 141.674 28.198C141.665 28.239 141.648 28.2779 141.623 28.3115C141.598 28.3451 141.566 28.3729 141.528 28.3926C141.492 28.4125 141.451 28.4239 141.409 28.4259C140.986 28.5633 140.546 28.6362 140.102 28.6419C139.426 28.6767 138.759 28.4848 138.204 28.0964C137.965 27.93 137.77 27.7072 137.637 27.4475C137.504 27.1879 137.437 26.8994 137.443 26.6078V23.9373C137.467 23.4278 137.296 22.9281 136.966 22.5396C136.807 22.362 136.609 22.222 136.39 22.1296C136.169 22.0373 135.932 21.9949 135.693 22.0055C135.478 21.9974 135.265 22.0382 135.067 22.1248C134.87 22.2114 134.696 22.3416 134.557 22.5055C134.257 22.8863 134.103 23.3622 134.125 23.8464V28.0396C134.125 28.2555 134.023 28.3691 133.807 28.3691H131.886C131.842 28.3747 131.796 28.3699 131.754 28.3554C131.711 28.3407 131.673 28.3166 131.641 28.2848C131.609 28.2531 131.585 28.2145 131.57 28.172C131.555 28.1295 131.551 28.0842 131.557 28.0396V23.9373C131.582 23.4333 131.424 22.9372 131.113 22.5396C130.975 22.3725 130.801 22.2381 130.604 22.1458C130.409 22.0536 130.194 22.0056 129.977 22.0055C129.745 21.9962 129.515 22.0358 129.299 22.1221C129.083 22.2082 128.888 22.3389 128.727 22.5055C128.402 22.8741 128.235 23.3557 128.261 23.8464V28.0396C128.267 28.0842 128.262 28.1295 128.248 28.172C128.233 28.2145 128.209 28.2531 128.177 28.2848C128.145 28.3166 128.107 28.3407 128.065 28.3554C128.021 28.3699 127.976 28.3747 127.932 28.3691H126.079C125.863 28.3691 125.761 28.2555 125.761 28.0396V22.6873C125.775 22.5962 125.767 22.5032 125.737 22.4157C125.709 22.3283 125.66 22.2488 125.594 22.1837C125.529 22.1186 125.45 22.0696 125.362 22.0406C125.275 22.0116 125.182 22.0036 125.091 22.0169H124.716C124.466 22.0169 124.341 21.9259 124.341 21.7441V20.4032C124.335 20.3203 124.358 20.2378 124.405 20.1696C124.453 20.1013 124.523 20.0514 124.602 20.0282C124.995 19.8854 125.411 19.8161 125.829 19.8237C126.23 19.7895 126.634 19.8695 126.992 20.0545C127.35 20.2395 127.648 20.5219 127.852 20.8691C128.235 20.5058 128.69 20.2254 129.186 20.0455C129.683 19.8656 130.211 19.7901 130.738 19.8237C131.251 19.7987 131.761 19.8947 132.229 20.104C132.698 20.3133 133.109 20.6299 133.432 21.0282C133.808 20.6195 134.27 20.2995 134.785 20.0911C135.3 19.8828 135.854 19.7915 136.409 19.8237C136.904 19.8005 137.4 19.8804 137.863 20.0584C138.327 20.2364 138.749 20.5086 139.102 20.8578C139.448 21.222 139.715 21.6525 139.888 22.1233C140.062 22.594 140.14 23.0953 140.113 23.5964V25.7896C140.113 26.2214 140.307 26.4373 140.67 26.4373C140.846 26.4455 141.023 26.4264 141.193 26.3805C141.428 26.3805 141.553 26.4714 141.568 26.6532L141.67 28.0737Z" fill="#B9C6D8"/>
<path d="M8.42001 18.6189C9.25839 15.2493 11.2 12.2569 13.9358 10.1184C16.6716 7.97987 20.0442 6.81812 23.5166 6.81812C26.989 6.81812 30.3616 7.97987 33.0974 10.1184C35.8332 12.2569 37.7748 15.2493 38.6132 18.6189H37.2496C34.9492 18.5851 32.696 19.2725 30.8064 20.5848C30.6973 20.6638 30.5834 20.736 30.4655 20.8007H30.3064C30.1884 20.736 30.0746 20.6638 29.9655 20.5848C28.0591 19.3029 25.8139 18.6182 23.5166 18.6182C21.2193 18.6182 18.9741 19.3029 17.0677 20.5848C16.9586 20.6638 16.8448 20.736 16.7268 20.8007H16.5677C16.4498 20.736 16.3359 20.6638 16.2268 20.5848C14.3372 19.2725 12.084 18.5851 9.78365 18.6189H8.42001ZM34.795 25.7439C35.495 25.1988 36.3626 24.9136 37.2496 24.9371H39.0791V21.2894H37.2496C35.6873 21.2705 34.1608 21.7568 32.8973 22.6757C32.1863 23.1999 31.3261 23.4828 30.4427 23.4828C29.5593 23.4828 28.6992 23.1999 27.9882 22.6757C26.6926 21.7739 25.1519 21.2904 23.5734 21.2904C21.9949 21.2904 20.4542 21.7739 19.1586 22.6757C18.4476 23.1999 17.5875 23.4828 16.7041 23.4828C15.8207 23.4828 14.9606 23.1999 14.2496 22.6757C12.9705 21.7449 11.4221 21.2581 9.84046 21.2894H7.9541V24.9371H9.78365C10.6706 24.9136 11.5382 25.1988 12.2382 25.7439C13.5314 26.6464 15.0704 27.1303 16.6473 27.1303C18.2242 27.1303 19.7632 26.6464 21.0564 25.7439C21.7573 25.2005 22.6242 24.9155 23.5109 24.9371C24.3982 24.9116 25.2664 25.1971 25.9655 25.7439C27.261 26.6458 28.8017 27.1293 30.3802 27.1293C31.9588 27.1293 33.4994 26.6458 34.795 25.7439ZM34.795 32.2666C35.495 31.7215 36.3626 31.4363 37.2496 31.4598H39.0791V27.8121H37.2496C35.6873 27.7932 34.1608 28.2795 32.8973 29.1985C32.1863 29.7227 31.3261 30.0055 30.4427 30.0055C29.5593 30.0055 28.6992 29.7227 27.9882 29.1985C26.6926 28.2966 25.1519 27.8132 23.5734 27.8132C21.9949 27.8132 20.4542 28.2966 19.1586 29.1985C18.4476 29.7227 17.5875 30.0055 16.7041 30.0055C15.8207 30.0055 14.9606 29.7227 14.2496 29.1985C12.9705 28.2678 11.4221 27.7808 9.84046 27.8121H7.9541V31.4598H9.78365C10.6706 31.4363 11.5382 31.7215 12.2382 32.2666C13.5314 33.1691 15.0704 33.653 16.6473 33.653C18.2242 33.653 19.7632 33.1691 21.0564 32.2666C21.7573 31.7232 22.6242 31.4382 23.5109 31.4598C24.3982 31.4344 25.2664 31.7198 25.9655 32.2666C27.261 33.1686 28.8017 33.652 30.3802 33.652C31.9588 33.652 33.4994 33.1686 34.795 32.2666Z" fill="#B9C6D8"/>
</svg>
