<svg width="150" height="33" viewBox="0 0 150 33" fill="none" xmlns="http://www.w3.org/2000/svg">
<path d="M22.8153 25.8251L3.31526 12.374C1.33917 11.011 2.01091 8.17291 4.47504 7.50552L25.2 1.88052C25.6391 1.72211 26.1095 1.67068 26.5724 1.73052C27.0353 1.79036 27.4772 1.95972 27.8616 2.22457C28.2458 2.48942 28.5615 2.84211 28.7821 3.25336C29.0028 3.66461 29.1222 4.12256 29.1305 4.58921L27.9022 23.6642C27.7566 25.9284 24.7913 27.1882 22.8153 25.8251Z" fill="#B9C6D8"/>
<path d="M16.63 29.1456L5.14198 6.67935C4.87937 6.1654 4.76382 5.58889 4.80804 5.01342C4.85227 4.43795 5.05458 3.88588 5.39263 3.41808C5.7307 2.95029 6.19138 2.58494 6.72389 2.36233C7.2564 2.13972 7.84004 2.06851 8.41046 2.15654L29.7007 5.4424C30.1908 5.51806 30.656 5.70898 31.0581 5.99947C31.46 6.28997 31.7873 6.67173 32.0131 7.11338C32.2387 7.55502 32.3565 8.04392 32.3563 8.5399C32.3562 9.03586 32.2384 9.52474 32.0127 9.96631L22.205 29.1467C21.9417 29.6592 21.5421 30.0892 21.0503 30.3893C20.5584 30.6895 19.9934 30.8482 19.4172 30.8481C18.841 30.848 18.276 30.6891 17.7843 30.3888C17.2925 30.0883 16.8932 29.6582 16.63 29.1456Z" fill="#D2DFF0"/>
<path d="M29.078 5.34556L18.465 3.70752L5.43457 7.24556L10.6357 17.4205L22.815 25.8249C23.0837 26.0083 23.3792 26.1487 23.6911 26.2412L28.3172 17.1945L29.078 5.34556Z" fill="#B9C6D8"/>
<path d="M82.8359 7.97186C82.8359 7.57737 82.9529 7.19175 83.172 6.86374C83.3913 6.53574 83.7028 6.28009 84.0672 6.12912C84.4317 5.97816 84.8327 5.93866 85.2196 6.01562C85.6065 6.09259 85.9619 6.28255 86.2408 6.56149C86.5198 6.84043 86.7097 7.19583 86.7867 7.58274C86.8636 7.96965 86.8242 8.37069 86.6732 8.73515C86.5222 9.09961 86.2666 9.41112 85.9387 9.63028C85.6106 9.84944 85.225 9.96642 84.8305 9.96642C84.3031 9.96105 83.799 9.74918 83.426 9.37629C83.0532 9.00339 82.8413 8.49918 82.8359 7.97186ZM83.1685 10.9414H86.4935V22.0218H83.1685V10.9414Z" fill="#B9C6D8"/>
<path d="M100.852 16.4815C100.891 17.2139 100.784 17.9467 100.539 18.6378C100.293 19.3288 99.9135 19.9645 99.4214 20.5083C98.9292 21.052 98.3345 21.4931 97.6712 21.8063C97.0079 22.1193 96.2894 22.2982 95.5567 22.3326C94.9406 22.366 94.3246 22.2621 93.7534 22.0283C93.1823 21.7944 92.6703 21.4365 92.2546 20.9804V26.4543H88.9307V10.9413H92.2546V11.9826C92.6704 11.5266 93.1824 11.1689 93.7536 10.9352C94.3247 10.7015 94.9407 10.5978 95.5567 10.6314C96.2894 10.6657 97.0078 10.8444 97.6711 11.1573C98.3344 11.4704 98.9291 11.9114 99.4213 12.4551C99.9135 12.9988 100.293 13.6343 100.539 14.3254C100.784 15.0164 100.891 15.7491 100.852 16.4815ZM97.5285 16.4815C97.5154 15.9627 97.3497 15.4593 97.052 15.0342C96.7542 14.6092 96.3377 14.2814 95.8547 14.0919C95.3715 13.9023 94.8433 13.8596 94.336 13.9689C93.8287 14.0781 93.3648 14.3345 93.0025 14.706C92.6402 15.0776 92.3956 15.5478 92.2991 16.0577C92.2027 16.5676 92.2589 17.0946 92.4605 17.5728C92.6622 18.0509 93.0003 18.459 93.4327 18.7459C93.8652 19.0329 94.3726 19.1858 94.8915 19.1858C95.2479 19.2019 95.6036 19.1423 95.9353 19.0113C96.2671 18.8801 96.5673 18.6802 96.8163 18.4248C97.0653 18.1694 97.2575 17.8643 97.3803 17.5293C97.503 17.1944 97.5536 16.8372 97.5285 16.4815Z" fill="#B9C6D8"/>
<path d="M111.112 18.696C111.112 21.2449 108.896 22.3308 106.502 22.3308C105.536 22.4183 104.565 22.2136 103.715 21.7433C102.866 21.273 102.177 20.5587 101.738 19.6927L104.619 18.0536C104.736 18.4539 104.987 18.8018 105.33 19.0392C105.673 19.2766 106.087 19.3891 106.502 19.3579C107.3 19.3579 107.698 19.1134 107.698 18.671C107.698 17.4514 102.247 18.0949 102.247 14.2601C102.247 11.8449 104.285 10.6264 106.595 10.6264C107.461 10.5992 108.319 10.8048 109.078 11.2217C109.839 11.6387 110.473 12.2517 110.915 12.9971L108.08 14.5264C107.956 14.2355 107.749 13.9876 107.485 13.8137C107.22 13.6397 106.911 13.5474 106.595 13.5482C106.019 13.5482 105.664 13.7655 105.664 14.1688C105.661 15.4405 111.112 14.5982 111.112 18.696Z" fill="#B9C6D8"/>
<path d="M123.261 10.9412V22.0216H119.937V20.9781C119.553 21.4378 119.065 21.8 118.514 22.0351C117.964 22.2701 117.365 22.3713 116.768 22.3303C114.529 22.3303 112.624 20.7346 112.624 17.7423V10.9412H115.948V17.2575C115.92 17.5216 115.95 17.7887 116.036 18.04C116.122 18.2913 116.261 18.5209 116.445 18.7129C116.628 18.9049 116.851 19.0544 117.098 19.1513C117.346 19.2482 117.611 19.29 117.876 19.2738C119.095 19.2738 119.941 18.5651 119.941 16.9912V10.9412H123.261Z" fill="#B9C6D8"/>
<path d="M142.313 15.2175V22.0218H138.989V15.5066C138.989 14.399 138.457 13.6892 137.393 13.6892C136.285 13.6892 135.665 14.4653 135.665 15.7729V22.0218H132.34V15.5066C132.34 14.399 131.809 13.6892 130.745 13.6892C129.637 13.6892 129.016 14.4653 129.016 15.7729V22.0218H125.692V10.9414H129.022V11.9566C129.366 11.5045 129.818 11.1461 130.337 10.9138C130.855 10.6816 131.425 10.5831 131.991 10.6273C132.56 10.5994 133.127 10.7195 133.636 10.9757C134.145 11.2319 134.578 11.6155 134.895 12.0892C135.263 11.5937 135.751 11.1995 136.313 10.9439C136.875 10.6882 137.493 10.5793 138.109 10.6273C140.652 10.6316 142.313 12.4479 142.313 15.2175Z" fill="#B9C6D8"/>
<path d="M145.129 10.8728C146.493 10.8728 147.597 9.76809 147.597 8.40538C147.597 7.04268 146.493 5.93799 145.129 5.93799C143.766 5.93799 142.662 7.04268 142.662 8.40538C142.662 9.76809 143.766 10.8728 145.129 10.8728Z" fill="#B9C6D8"/>
<path d="M37.4531 5.84448H40.7781V22.0217H37.4531V5.84448ZM42.6607 16.4815C42.6571 15.3198 42.9982 14.1831 43.6409 13.2155C44.2837 12.2478 45.1991 11.4926 46.2713 11.0455C47.3436 10.5984 48.5242 10.4795 49.6641 10.7039C50.8039 10.9283 51.8515 11.4858 52.6742 12.3061C53.4969 13.1262 54.0578 14.1719 54.2857 15.3111C54.5137 16.4502 54.3986 17.6313 53.9549 18.7049C53.5112 19.7785 52.7589 20.6963 51.7932 21.342C50.8276 21.9878 49.692 22.3326 48.5303 22.3326C47.7588 22.3407 46.9933 22.1952 46.2787 21.9043C45.5641 21.6135 44.9145 21.183 44.3681 20.6383C43.8216 20.0936 43.3892 19.4454 43.0961 18.7317C42.8029 18.018 42.655 17.253 42.6607 16.4815ZM51.0825 16.4815C51.0694 15.9803 50.909 15.4942 50.6211 15.0839C50.3332 14.6736 49.9307 14.3571 49.464 14.1743C48.9971 13.9916 48.4869 13.9504 47.9969 14.0562C47.5069 14.1618 47.059 14.4098 46.7091 14.7687C46.3592 15.1277 46.123 15.5818 46.0299 16.0743C45.9368 16.5669 45.991 17.076 46.1857 17.5379C46.3804 17.9998 46.707 18.394 47.1246 18.6713C47.5423 18.9486 48.0324 19.0965 48.5336 19.0967C48.8768 19.1065 49.2184 19.045 49.5367 18.9162C49.8551 18.7875 50.1432 18.5941 50.3831 18.3483C50.623 18.1027 50.8094 17.81 50.9305 17.4887C51.0516 17.1673 51.1049 16.8243 51.0868 16.4815H51.0825ZM67.6575 10.938V21.4652C67.6575 25.188 64.7542 26.7608 61.8075 26.7608C60.7703 26.8391 59.7315 26.6303 58.805 26.1573C57.8786 25.6843 57.1002 24.9653 56.5553 24.0793L59.3912 22.4391C59.6201 22.9015 59.9848 23.283 60.4364 23.5327C60.888 23.7823 61.405 23.888 61.9183 23.8358C62.2461 23.8805 62.5795 23.8512 62.8943 23.7498C63.2091 23.6483 63.497 23.4777 63.737 23.2501C63.9769 23.0226 64.1627 22.7441 64.2806 22.4351C64.3986 22.1262 64.4456 21.7946 64.4183 21.4652V20.4456C64.029 20.9217 63.5334 21.3 62.9716 21.5501C62.4096 21.8002 61.7969 21.9152 61.1825 21.8858C59.72 21.8403 58.3325 21.2274 57.314 20.1767C56.2955 19.1261 55.726 17.7203 55.726 16.257C55.726 14.7937 56.2955 13.3879 57.314 12.3373C58.3325 11.2866 59.72 10.6736 61.1825 10.6282C61.7969 10.5988 62.4096 10.7137 62.9716 10.9639C63.5334 11.214 64.029 11.5923 64.4183 12.0685V10.938H67.6575ZM64.4227 16.2565C64.4446 15.7213 64.3059 15.1918 64.0245 14.7361C63.7431 14.2803 63.3318 13.9191 62.8434 13.699C62.3552 13.4789 61.8121 13.4099 61.2843 13.5008C60.7565 13.5918 60.2679 13.8386 59.8814 14.2094C59.4949 14.5803 59.2281 15.0582 59.1155 15.5818C59.0028 16.1055 59.0493 16.6508 59.2491 17.1479C59.4488 17.6449 59.7927 18.0707 60.2364 18.3707C60.6801 18.6707 61.2034 18.8312 61.739 18.8315C62.0882 18.856 62.4388 18.8071 62.768 18.6881C63.0973 18.5691 63.3979 18.3825 63.6507 18.1402C63.9034 17.898 64.1028 17.6055 64.2357 17.2817C64.3687 16.9578 64.4324 16.6096 64.4227 16.2598V16.2565ZM69.5401 16.4739C69.5365 15.3121 69.8776 14.1755 70.5203 13.2079C71.163 12.2402 72.0784 11.485 73.1506 11.0379C74.2229 10.5908 75.4036 10.4719 76.5434 10.6963C77.6832 10.9207 78.7307 11.4782 79.5536 12.2985C80.3763 13.1186 80.9371 14.1643 81.1651 15.3035C81.393 16.4426 81.2779 17.6237 80.8342 18.6973C80.3905 19.7708 79.6382 20.6887 78.6726 21.3344C77.7069 21.9802 76.5714 22.325 75.4096 22.325C74.6388 22.3331 73.874 22.1878 73.1599 21.8974C72.4457 21.607 71.7965 21.1773 71.2502 20.6333C70.7038 20.0894 70.2713 19.4423 69.9777 18.7293C69.684 18.0165 69.5353 17.2524 69.5401 16.4815V16.4739ZM77.9618 16.4739C77.949 15.9725 77.7886 15.486 77.5007 15.0752C77.2128 14.6645 76.8101 14.3479 76.3431 14.1649C75.8761 13.9818 75.3655 13.9406 74.8752 14.0464C74.3849 14.152 73.9366 14.4001 73.5866 14.7592C73.2365 15.1185 73.0001 15.5729 72.907 16.0657C72.8139 16.5586 72.8682 17.068 73.0631 17.5301C73.2581 17.9923 73.585 18.3866 74.0029 18.664C74.4209 18.9413 74.9114 19.0891 75.4129 19.0891C75.7552 19.0981 76.0955 19.0365 76.4128 18.9079C76.7301 18.7793 77.0174 18.5865 77.2567 18.3417C77.4959 18.0969 77.6821 17.8053 77.8034 17.4852C77.9249 17.1651 77.9788 16.8233 77.9618 16.4815V16.4739Z" fill="#B9C6D8"/>
</svg>
