<svg width="150" height="47" viewBox="0 0 150 47" fill="none" xmlns="http://www.w3.org/2000/svg">
<path d="M23.0316 2.3623C20.3173 2.3623 17.6295 2.89699 15.1218 3.93565C12.614 4.97443 10.3356 6.49687 8.41616 8.41616C6.49687 10.3356 4.97443 12.614 3.93565 15.1218C2.89699 17.6295 2.3623 20.3173 2.3623 23.0316C2.3623 25.7459 2.89699 28.4337 3.93565 30.9414C4.97443 33.4492 6.49687 35.7276 8.41616 37.647C10.3356 39.5663 12.614 41.0888 15.1218 42.1275C17.6295 43.1662 20.3173 43.7009 23.0316 43.7009V33.3662C21.6744 33.3662 20.3305 33.099 19.0767 32.5795C17.8228 32.0602 16.6835 31.299 15.7239 30.3393C14.7642 29.3797 14.003 28.2404 13.4837 26.9865C12.9642 25.7327 12.6969 24.3888 12.6969 23.0316C12.6969 21.6744 12.9642 20.3305 13.4837 19.0767C14.003 17.8228 14.7642 16.6835 15.7239 15.7239C16.6835 14.7642 17.8228 14.003 19.0767 13.4837C20.3305 12.9642 21.6744 12.697 23.0316 12.697V2.3623Z" fill="#B9C6D8"/>
<path d="M23.0318 29.9214C26.837 29.9214 29.9215 26.8369 29.9215 23.0317C29.9215 19.2265 26.837 16.142 23.0318 16.142C19.2267 16.142 16.1421 19.2265 16.1421 23.0317C16.1421 26.8369 19.2267 29.9214 23.0318 29.9214Z" fill="#B9C6D8"/>
<path d="M2.3623 23.0315C2.3623 25.7458 2.89699 28.4336 3.93565 30.9413C4.97443 33.4491 6.49687 35.7275 8.41616 37.6469C10.3356 39.5662 12.614 41.0887 15.1218 42.1274C17.6295 43.1661 20.3173 43.7008 23.0316 43.7008C25.7459 43.7008 28.4337 43.1661 30.9414 42.1274C33.4492 41.0887 35.7276 39.5662 37.647 37.6469C39.5663 35.7275 41.0888 33.4491 42.1275 30.9413C43.1662 28.4336 43.7009 25.7458 43.7009 23.0315H33.3662C33.3662 24.3887 33.099 25.7326 32.5795 26.9864C32.0602 28.2403 31.299 29.3796 30.3393 30.3392C29.3797 31.2989 28.2404 32.0601 26.9865 32.5794C25.7327 33.0989 24.3888 33.3661 23.0316 33.3661C21.6744 33.3661 20.3305 33.0989 19.0767 32.5794C17.8228 32.0601 16.6835 31.2989 15.7239 30.3392C14.7642 29.3796 14.003 28.2403 13.4837 26.9864C12.9642 25.7326 12.697 24.3887 12.697 23.0315H2.3623Z" fill="#B9C6D8"/>
<path d="M29.9212 23.0316C29.9212 21.2043 29.1953 19.4519 27.9033 18.1598C26.6111 16.8676 24.8587 16.1417 23.0314 16.1417C21.2042 16.1417 19.4518 16.8676 18.1596 18.1598C16.8675 19.4519 16.1416 21.2043 16.1416 23.0316H23.0314H29.9212Z" fill="#B9C6D8"/>
<path d="M54.4953 15.2656H51.9282V29.5274H54.4953V15.2656Z" fill="#B9C6D8"/>
<path d="M56.1719 24.4747C56.1719 27.7753 58.4538 29.8127 61.4691 29.8127C64.4845 29.8127 66.7664 27.7753 66.7664 24.4747C66.7664 21.1741 64.4845 19.1367 61.4691 19.1367C58.4538 19.1367 56.1719 21.1741 56.1719 24.4747ZM58.739 24.4747C58.739 22.5188 59.8799 21.3779 61.4691 21.3779C63.0583 21.3779 64.1992 22.5188 64.1992 24.4747C64.1992 26.4306 63.0583 27.5716 61.4691 27.5716C59.8799 27.5716 58.739 26.4306 58.739 24.4747Z" fill="#B9C6D8"/>
<path d="M75.9399 19.422V20.787H75.7362C75.125 19.9109 74.147 19.1367 72.3948 19.1367C69.9907 19.1367 67.8311 21.1741 67.8311 24.3117C67.8311 27.4493 69.9907 29.4867 72.3948 29.4867C74.147 29.4867 75.125 28.6921 75.6954 27.8976H75.8992V28.8755C75.8992 30.8314 74.7582 31.7279 73.0876 31.7279C71.4169 31.7279 70.5612 30.8314 70.2148 29.67L67.9126 30.6684C68.4423 32.1964 69.9907 33.8875 73.1283 33.8875C76.3474 33.8875 78.4663 32.1964 78.4663 28.9366V19.422H75.9399ZM73.1691 27.2863C71.5799 27.2863 70.3982 26.1454 70.3982 24.3117C70.3982 22.4781 71.5799 21.3371 73.1691 21.3371C74.7582 21.3371 75.9399 22.4781 75.9399 24.3117C75.9399 26.1454 74.7582 27.2863 73.1691 27.2863Z" fill="#B9C6D8"/>
<path d="M80.127 24.4747C80.127 27.7753 82.4088 29.8127 85.4242 29.8127C88.4396 29.8127 90.7213 27.7753 90.7213 24.4747C90.7213 21.1741 88.4396 19.1367 85.4242 19.1367C82.4088 19.1367 80.127 21.1741 80.127 24.4747ZM82.6941 24.4747C82.6941 22.5188 83.835 21.3779 85.4242 21.3779C87.0134 21.3779 88.1543 22.5188 88.1543 24.4747C88.1543 26.4306 87.0134 27.5716 85.4242 27.5716C83.835 27.5716 82.6941 26.4306 82.6941 24.4747Z" fill="#B9C6D8"/>
<path d="M92.7363 16.488C92.7363 17.5271 93.5312 18.2402 94.5505 18.2402C95.5686 18.2402 96.3635 17.5271 96.3635 16.488C96.3635 15.449 95.5686 14.7358 94.5505 14.7358C93.5312 14.7358 92.7363 15.449 92.7363 16.488ZM95.8332 19.4219H93.2666V29.5274H95.8332V19.4219Z" fill="#B9C6D8"/>
<path d="M98.1216 33.6023H100.689V28.2235H100.892C101.463 29.0385 102.441 29.8127 104.194 29.8127C106.597 29.8127 108.757 27.7753 108.757 24.4747C108.757 21.1741 106.597 19.1367 104.194 19.1367C102.441 19.1367 101.463 19.9109 100.852 20.7871H100.648V19.422H98.1216V33.6023ZM103.419 27.6123C101.83 27.6123 100.648 26.4714 100.648 24.4747C100.648 22.4781 101.83 21.3371 103.419 21.3371C105.009 21.3371 106.19 22.4781 106.19 24.4747C106.19 26.4714 105.009 27.6123 103.419 27.6123Z" fill="#B9C6D8"/>
<path d="M110.255 22.254C110.255 24.2507 111.925 24.9841 114.044 25.3916L114.574 25.4934C115.836 25.7379 116.407 26.0436 116.407 26.6955C116.407 27.3475 115.836 27.8568 114.655 27.8568C113.473 27.8568 112.516 27.3678 112.251 25.9009L109.887 26.5121C110.234 28.631 112.006 29.8127 114.655 29.8127C117.222 29.8127 118.893 28.6107 118.893 26.4918C118.893 24.3728 117.182 23.8024 114.9 23.3542L114.369 23.2523C113.31 23.0485 112.74 22.7633 112.74 22.091C112.74 21.4798 113.27 21.0926 114.248 21.0926C115.226 21.0926 115.918 21.5001 116.162 22.6003L118.486 21.8873C117.997 20.2573 116.51 19.1367 114.248 19.1367C111.843 19.1367 110.255 20.2574 110.255 22.254Z" fill="#B9C6D8"/>
<path d="M130.424 29.5278V19.4222H127.858V24.638C127.858 26.5124 126.941 27.6126 125.371 27.6126C123.986 27.6126 123.212 26.8588 123.212 25.3307V19.4222H120.645V25.453C120.645 27.959 122.214 29.6907 124.578 29.6907C126.431 29.6907 127.287 28.8758 127.695 28.0201H127.898V29.5278H130.424Z" fill="#B9C6D8"/>
<path d="M132.702 19.4223V29.5278H135.269V23.4971C135.269 22.1116 135.921 21.3374 137.102 21.3374C138.122 21.3374 138.732 21.9079 138.732 23.0081V29.5278H141.3V23.4971C141.3 22.1116 141.952 21.3374 143.133 21.3374C144.152 21.3374 144.763 21.9079 144.763 23.0081V29.5278H147.331V22.8858C147.331 20.441 145.823 19.2593 143.948 19.2593C142.298 19.2593 141.545 19.9927 141.056 20.8485H140.851C140.382 19.8909 139.547 19.2593 138.08 19.2593C136.613 19.2593 135.819 19.9112 135.432 20.6855H135.228V19.4223H132.702Z" fill="#B9C6D8"/>
</svg>
