<svg width="150" height="34" viewBox="0 0 150 34" fill="none" xmlns="http://www.w3.org/2000/svg">
<path d="M43.9376 22.1022C43.9376 22.8251 43.7891 23.3806 43.4924 23.7687C43.2033 24.1568 42.72 24.3508 42.0428 24.3508C41.4036 24.3508 40.9508 24.1568 40.6844 23.7687C40.4257 23.3806 40.2964 22.8251 40.2964 22.1022V10.0372C40.2964 9.3143 40.4257 8.7588 40.6844 8.37071C40.9508 7.98262 41.4036 7.78857 42.0428 7.78857C42.72 7.78857 43.2033 7.98262 43.4924 8.37071C43.7891 8.7588 43.9376 9.3143 43.9376 10.0372V22.1022Z" fill="#B9C6D8"/>
<path d="M45.043 18.5977C45.043 17.791 45.1723 17.0301 45.4311 16.3147C45.6974 15.5918 46.0931 14.9603 46.6182 14.42C47.1509 13.8797 47.8129 13.4497 48.6043 13.1302C49.4033 12.8105 50.3392 12.6508 51.4122 12.6508C52.4395 12.6508 53.3489 12.7991 54.1403 13.0959C54.9317 13.3927 55.5975 13.8074 56.1377 14.3401C56.678 14.8651 57.089 15.4929 57.3706 16.2234C57.652 16.9463 57.7929 17.7377 57.7929 18.5977C57.7929 19.3967 57.6596 20.1538 57.3933 20.8691C57.127 21.5767 56.7275 22.2008 56.1948 22.7411C55.6622 23.2737 54.9964 23.6998 54.1974 24.0195C53.3983 24.3315 52.4699 24.4874 51.4122 24.4874C50.3697 24.4874 49.449 24.3391 48.6499 24.0423C47.8585 23.7379 47.1927 23.3232 46.6524 22.7981C46.1198 22.2655 45.7164 21.6415 45.4425 20.9262C45.1761 20.2033 45.043 19.4271 45.043 18.5977ZM48.844 18.5977C48.844 19.0999 48.8896 19.5793 48.981 20.0358C49.0722 20.4847 49.2169 20.8805 49.4147 21.223C49.6201 21.5653 49.8865 21.8393 50.2137 22.0447C50.541 22.2426 50.9404 22.3415 51.4122 22.3415C51.846 22.3415 52.2226 22.2503 52.5422 22.0675C52.8695 21.885 53.1358 21.63 53.3413 21.3028C53.5543 20.9757 53.7142 20.5837 53.8206 20.1272C53.9272 19.663 53.9804 19.1532 53.9804 18.5977C53.9804 18.0954 53.931 17.6197 53.8321 17.1708C53.7407 16.7143 53.5924 16.3147 53.3869 15.9723C53.1815 15.6223 52.9152 15.3483 52.5879 15.1505C52.2683 14.9451 51.8764 14.8423 51.4122 14.8423C50.948 14.8423 50.5524 14.9412 50.2251 15.1391C49.8979 15.3369 49.6316 15.607 49.4261 15.9495C49.2207 16.292 49.0722 16.6914 48.981 17.148C48.8896 17.6046 48.844 18.0878 48.844 18.5977Z" fill="#B9C6D8"/>
<path d="M67.1622 22.1477C66.9567 22.5281 66.7056 22.8515 66.4088 23.1179C66.1197 23.3842 65.7962 23.6049 65.4386 23.7799C65.0886 23.9473 64.7119 24.0728 64.3086 24.1566C63.9128 24.2327 63.5058 24.2708 63.0872 24.2708C62.3871 24.2708 61.748 24.1452 61.1696 23.894C60.5913 23.6429 60.0929 23.2814 59.6743 22.8097C59.2634 22.3303 58.9438 21.7443 58.7155 21.0519C58.4872 20.3594 58.373 19.568 58.373 18.6777C58.373 17.8406 58.4796 17.0568 58.6927 16.3263C58.9057 15.5958 59.2139 14.9604 59.6173 14.4201C60.0282 13.8798 60.5304 13.4537 61.124 13.1417C61.7175 12.8297 62.3948 12.6737 63.1557 12.6737C64.0232 12.6737 64.7918 12.8411 65.4614 13.1759C66.1387 13.5108 66.7208 14.0587 67.2079 14.8196V14.5229C67.2079 13.975 67.3562 13.5641 67.653 13.2901C67.9574 13.0086 68.3759 12.8677 68.9086 12.8677C69.2282 12.8677 69.4983 12.921 69.719 13.0276C69.9396 13.1265 70.1146 13.2787 70.244 13.4842C70.3734 13.682 70.4647 13.9293 70.518 14.2261C70.5789 14.5152 70.6093 14.8463 70.6093 15.2191V22.8668C70.6093 23.7951 70.4914 24.6245 70.2555 25.355C70.0272 26.0856 69.6695 26.702 69.1825 27.2042C68.6955 27.7064 68.0715 28.0869 67.3105 28.3457C66.5496 28.612 65.6441 28.7451 64.594 28.7451C63.8558 28.7451 63.2014 28.7109 62.6306 28.6424C62.0675 28.5816 61.5805 28.4864 61.1696 28.3571C60.7587 28.2124 60.4468 28.0527 60.2336 27.8777C60.0282 27.7026 59.9255 27.4743 59.9255 27.1928C59.9255 27.033 59.9482 26.8809 59.9939 26.7362C60.0396 26.5917 60.1081 26.4623 60.1993 26.3482C60.2983 26.2416 60.4239 26.1541 60.5761 26.0856C60.7358 26.0248 60.9299 25.9943 61.1582 25.9943C61.4017 25.9943 61.6452 26.0095 61.8887 26.04C62.1398 26.0704 62.3986 26.1009 62.6649 26.1312C62.9388 26.1693 63.2242 26.2035 63.521 26.234C63.8254 26.2644 64.1525 26.2797 64.5026 26.2797C64.9211 26.2797 65.294 26.2378 65.6213 26.1541C65.9484 26.0704 66.2261 25.922 66.4545 25.7089C66.6828 25.4959 66.8578 25.2105 66.9795 24.8528C67.1013 24.5028 67.1622 24.0538 67.1622 23.5059V22.1477ZM67.1622 18.5978C67.1622 18.0422 67.1203 17.5362 67.0366 17.0797C66.9606 16.6231 66.8273 16.235 66.6371 15.9154C66.4469 15.5882 66.1919 15.3371 65.8724 15.1621C65.5527 14.9794 65.1532 14.8882 64.6738 14.8882C64.202 14.8882 63.8102 14.9832 63.4982 15.1734C63.1938 15.3637 62.9503 15.6263 62.7677 15.961C62.585 16.2959 62.4557 16.6878 62.3795 17.1368C62.311 17.5857 62.2768 18.0651 62.2768 18.5749C62.2768 19.7392 62.4823 20.6144 62.8932 21.2002C63.3041 21.7862 63.9014 22.0792 64.6852 22.0792C65.0505 22.0716 65.3816 22.003 65.6783 21.8737C65.9826 21.7367 66.2452 21.5275 66.4658 21.2459C66.6866 20.9643 66.8578 20.6067 66.9795 20.1729C67.1013 19.7392 67.1622 19.2142 67.1622 18.5978Z" fill="#B9C6D8"/>
<path d="M71.6577 18.5977C71.6577 17.791 71.7871 17.0301 72.0458 16.3147C72.3122 15.5918 72.7078 14.9603 73.2329 14.42C73.7656 13.8797 74.4276 13.4497 75.2189 13.1302C76.018 12.8105 76.954 12.6508 78.027 12.6508C79.0542 12.6508 79.9635 12.7991 80.7549 13.0959C81.5463 13.3927 82.2122 13.8074 82.7525 14.3401C83.2927 14.8651 83.7037 15.4929 83.9852 16.2234C84.2668 16.9463 84.4075 17.7377 84.4075 18.5977C84.4075 19.3967 84.2744 20.1538 84.0081 20.8691C83.7417 21.5767 83.3422 22.2008 82.8095 22.7411C82.2768 23.2737 81.611 23.6998 80.812 24.0195C80.013 24.3315 79.0847 24.4874 78.027 24.4874C76.9844 24.4874 76.0636 24.3391 75.2646 24.0423C74.4732 23.7379 73.8074 23.3232 73.2671 22.7981C72.7345 22.2655 72.3312 21.6415 72.0572 20.9262C71.7909 20.2033 71.6577 19.4271 71.6577 18.5977ZM75.4587 18.5977C75.4587 19.0999 75.5043 19.5793 75.5957 20.0358C75.687 20.4847 75.8315 20.8805 76.0294 21.223C76.2349 21.5653 76.5012 21.8393 76.8284 22.0447C77.1556 22.2426 77.5551 22.3415 78.027 22.3415C78.4607 22.3415 78.8374 22.2503 79.1569 22.0675C79.4841 21.885 79.7505 21.63 79.9559 21.3028C80.169 20.9757 80.3288 20.5837 80.4353 20.1272C80.5419 19.663 80.5952 19.1532 80.5952 18.5977C80.5952 18.0954 80.5457 17.6197 80.4467 17.1708C80.3555 16.7143 80.207 16.3147 80.0016 15.9723C79.7962 15.6223 79.5298 15.3483 79.2026 15.1505C78.883 14.9451 78.4911 14.8423 78.027 14.8423C77.5627 14.8423 77.167 14.9412 76.8398 15.1391C76.5126 15.3369 76.2463 15.607 76.0408 15.9495C75.8354 16.292 75.687 16.6914 75.5957 17.148C75.5043 17.6046 75.4587 18.0878 75.4587 18.5977Z" fill="#B9C6D8"/>
<path d="M89.3028 8.8043C89.3028 9.05543 89.2457 9.2799 89.1315 9.47775C89.0174 9.66799 88.869 9.82775 88.6864 9.9572C88.5038 10.0865 88.2906 10.1854 88.0471 10.2539C87.8113 10.3148 87.5678 10.3453 87.3166 10.3453C87.0503 10.3453 86.7954 10.311 86.5519 10.2425C86.316 10.174 86.1068 10.0752 85.9241 9.94571C85.7415 9.80876 85.5969 9.64516 85.4903 9.45492C85.3838 9.26469 85.3306 9.04781 85.3306 8.8043C85.3306 8.58363 85.3801 8.38197 85.4789 8.19934C85.5855 8.00911 85.7262 7.8455 85.9013 7.70852C86.0763 7.57156 86.2856 7.46502 86.5291 7.38893C86.7726 7.31283 87.0389 7.27478 87.3281 7.27478C87.5792 7.27478 87.8227 7.30903 88.0586 7.37751C88.3021 7.44599 88.5152 7.54492 88.6978 7.67429C88.8804 7.80365 89.0251 7.96345 89.1315 8.15368C89.2457 8.34393 89.3028 8.5608 89.3028 8.8043ZM89.1315 22.102C89.1315 22.825 88.9832 23.3804 88.6864 23.7685C88.3972 24.1566 87.914 24.3507 87.2367 24.3507C86.5976 24.3507 86.1448 24.1566 85.8785 23.7685C85.6198 23.3804 85.4903 22.825 85.4903 22.102V15.1164C85.4903 14.3935 85.6198 13.838 85.8785 13.45C86.1448 13.0619 86.5976 12.8678 87.2367 12.8678C87.914 12.8678 88.3972 13.0619 88.6864 13.45C88.9832 13.838 89.1315 14.3935 89.1315 15.1164V22.102Z" fill="#B9C6D8"/>
<path d="M94.3801 18.5749C94.3801 19.0848 94.4181 19.5604 94.4943 20.0018C94.578 20.4431 94.7149 20.8312 94.9051 21.166C95.1031 21.4932 95.3618 21.7519 95.6814 21.9421C96.0085 22.1325 96.4119 22.2275 96.8913 22.2275C97.3326 22.2275 97.7017 22.1363 97.9988 21.9536C98.3026 21.7634 98.5462 21.5046 98.7293 21.1774C98.9114 20.8426 99.041 20.4507 99.1169 20.0018C99.2007 19.5528 99.2426 19.0657 99.2426 18.5407C99.2426 18.1222 99.2124 17.6961 99.151 17.2623C99.0906 16.8209 98.9767 16.4215 98.8091 16.0638C98.6416 15.7061 98.4098 15.4132 98.1127 15.1848C97.8156 14.9566 97.428 14.8425 96.9484 14.8425C96.4689 14.8425 96.0618 14.9185 95.727 15.0708C95.3998 15.2229 95.1335 15.455 94.928 15.767C94.7301 16.079 94.5894 16.4709 94.5057 16.9427C94.4219 17.4069 94.3801 17.951 94.3801 18.5749ZM94.3687 15.1164C94.559 14.7131 94.8025 14.3593 95.0993 14.0549C95.396 13.7505 95.7232 13.4956 96.0809 13.2901C96.4386 13.0846 96.8114 12.9324 97.1995 12.8335C97.5955 12.727 97.9871 12.6737 98.3747 12.6737C99.0751 12.6737 99.7072 12.8297 100.27 13.1417C100.833 13.4537 101.312 13.8798 101.708 14.4201C102.111 14.9528 102.42 15.5844 102.633 16.3149C102.846 17.0378 102.953 17.814 102.953 18.6434C102.953 19.5033 102.838 20.2909 102.61 21.0062C102.39 21.7215 102.073 22.3379 101.662 22.8553C101.259 23.3652 100.772 23.7646 100.201 24.0538C99.638 24.343 99.0108 24.4876 98.3182 24.4876C97.466 24.4876 96.7049 24.2897 96.0352 23.894C95.3656 23.4983 94.8101 22.9429 94.3687 22.2275V26.3368C94.3687 27.0596 94.2203 27.6152 93.9235 28.0032C93.6343 28.3913 93.1512 28.5854 92.4739 28.5854C91.8347 28.5854 91.3819 28.3913 91.1156 28.0032C90.8569 27.6152 90.7275 27.0596 90.7275 26.3368V15.1164C90.7275 14.3934 90.8569 13.838 91.1156 13.4499C91.3819 13.0619 91.8347 12.8677 92.4739 12.8677C93.1512 12.8677 93.6343 13.0619 93.9235 13.4499C94.2203 13.838 94.3687 14.3934 94.3687 15.1164Z" fill="#B9C6D8"/>
<path d="M106.969 15.9267C106.969 16.2234 107.098 16.4555 107.356 16.6229C107.615 16.7828 107.973 16.9159 108.43 17.0225C108.863 17.1213 109.308 17.2165 109.765 17.3078C110.222 17.3991 110.667 17.5057 111.1 17.6274C111.534 17.7415 111.941 17.8785 112.322 18.0383C112.702 18.1981 113.037 18.3997 113.326 18.6433C113.615 18.8792 113.843 19.1684 114.011 19.5107C114.178 19.8456 114.262 20.2489 114.262 20.7207C114.262 21.3142 114.14 21.8431 113.897 22.3072C113.653 22.7639 113.308 23.1519 112.859 23.4716C112.417 23.7912 111.888 24.0385 111.272 24.2135C110.655 24.3885 109.974 24.4798 109.228 24.4874C108.521 24.4874 107.839 24.4418 107.185 24.3505C106.531 24.2668 105.949 24.1335 105.438 23.9509C104.937 23.7683 104.534 23.5439 104.229 23.2775C103.925 23.0036 103.773 22.684 103.773 22.3187C103.773 21.9991 103.875 21.7518 104.081 21.5767C104.286 21.4018 104.548 21.3142 104.869 21.3142C104.99 21.3142 105.135 21.337 105.302 21.3827C105.47 21.4284 105.652 21.4855 105.85 21.5539C106.047 21.6224 106.257 21.6985 106.478 21.7822C106.706 21.8583 106.941 21.9268 107.185 21.9877C107.49 22.0714 107.801 22.1399 108.121 22.1932C108.448 22.2388 108.783 22.2617 109.126 22.2617C109.338 22.2617 109.548 22.2426 109.753 22.2046C109.959 22.1589 110.142 22.0942 110.302 22.0106C110.469 21.9192 110.606 21.805 110.713 21.6681C110.819 21.5311 110.883 21.3637 110.907 21.1659C110.929 21.1202 110.949 21.0745 110.963 21.0288C110.979 20.9833 110.987 20.93 110.987 20.8691C110.987 20.656 110.887 20.4658 110.689 20.2983C110.499 20.131 110.229 19.9977 109.879 19.8989C109.293 19.7619 108.734 19.6364 108.201 19.5222C107.669 19.4081 107.174 19.2863 106.717 19.157C106.268 19.0276 105.857 18.8792 105.484 18.7117C105.119 18.5444 104.807 18.3389 104.548 18.0954C104.298 17.8519 104.099 17.5589 103.955 17.2165C103.818 16.874 103.75 16.4593 103.75 15.9723C103.75 15.4473 103.867 14.9793 104.103 14.5683C104.347 14.1498 104.693 13.7998 105.142 13.5182C105.591 13.2366 106.135 13.0236 106.775 12.8791C107.414 12.7268 108.137 12.6508 108.943 12.6508C110.388 12.6508 111.488 12.8258 112.242 13.1758C113.003 13.5182 113.384 13.9672 113.384 14.5227C113.384 14.8347 113.28 15.0744 113.075 15.2418C112.869 15.4016 112.622 15.4815 112.334 15.4815C112.181 15.4815 112.021 15.4549 111.853 15.4016C111.694 15.3407 111.5 15.276 111.272 15.2076C111.043 15.1315 110.769 15.0668 110.45 15.0135C110.138 14.9527 109.749 14.9222 109.286 14.9222C108.935 14.9222 108.616 14.9374 108.326 14.9679C108.045 14.9983 107.801 15.0515 107.596 15.1276C107.398 15.2038 107.242 15.3064 107.128 15.4359C107.021 15.5652 106.969 15.7288 106.969 15.9267Z" fill="#B9C6D8"/>
<path d="M118.895 20.1155C118.895 20.4732 118.941 20.7852 119.032 21.0516C119.131 21.3179 119.264 21.5424 119.431 21.725C119.599 21.9001 119.793 22.0332 120.013 22.1245C120.242 22.2082 120.485 22.2501 120.744 22.2501C121.048 22.2501 121.342 22.2044 121.623 22.1131C121.905 22.0218 122.152 21.881 122.365 21.6907C122.585 21.5005 122.761 21.2608 122.89 20.9716C123.019 20.6825 123.084 20.3439 123.084 19.9558V15.1161C123.084 14.3931 123.214 13.8377 123.472 13.4496C123.739 13.0616 124.192 12.8674 124.831 12.8674C125.507 12.8674 125.991 13.0616 126.28 13.4496C126.577 13.8377 126.725 14.3931 126.725 15.1161V22.1017C126.725 22.8246 126.577 23.3801 126.28 23.7681C125.991 24.1563 125.507 24.3503 124.831 24.3503C124.192 24.3503 123.739 24.1563 123.472 23.7681C123.214 23.3801 123.084 22.8246 123.084 22.1017C122.924 22.4517 122.715 22.7713 122.456 23.0605C122.205 23.3497 121.908 23.6008 121.566 23.8138C121.231 24.0193 120.858 24.1791 120.447 24.2932C120.044 24.4074 119.606 24.4645 119.134 24.4645C118.625 24.4645 118.134 24.3769 117.662 24.202C117.198 24.0193 116.787 23.7529 116.43 23.4029C116.072 23.0453 115.787 22.6039 115.573 22.0789C115.36 21.5538 115.254 20.9412 115.254 20.2411V15.1161C115.254 14.3931 115.383 13.8377 115.642 13.4496C115.908 13.0616 116.36 12.8674 117 12.8674C117.677 12.8674 118.16 13.0616 118.45 13.4496C118.747 13.8377 118.895 14.3931 118.895 15.1161V20.1155Z" fill="#B9C6D8"/>
<path d="M128.377 15.1164C128.377 14.3934 128.507 13.838 128.766 13.4499C129.032 13.0619 129.485 12.8677 130.124 12.8677C130.802 12.8677 131.285 13.0619 131.574 13.4499C131.87 13.838 132.019 14.3934 132.019 15.1164C132.171 14.7511 132.377 14.4201 132.636 14.1233C132.902 13.819 133.203 13.5603 133.537 13.3471C133.88 13.1341 134.249 12.9705 134.644 12.8563C135.04 12.7346 135.451 12.6737 135.877 12.6737C136.273 12.6737 136.661 12.727 137.041 12.8335C137.429 12.9324 137.788 13.096 138.115 13.3244C138.449 13.545 138.742 13.8266 138.993 14.169C139.245 14.5114 139.438 14.9223 139.576 15.4018C139.812 14.892 140.089 14.462 140.409 14.112C140.728 13.7619 141.075 13.4803 141.447 13.2673C141.82 13.0542 142.209 12.902 142.612 12.8107C143.023 12.7194 143.433 12.6737 143.844 12.6737C144.331 12.6737 144.796 12.7613 145.237 12.9362C145.686 13.1112 146.077 13.3776 146.413 13.7353C146.755 14.0853 147.025 14.5305 147.223 15.0708C147.428 15.6034 147.531 16.2274 147.531 16.9427V22.102C147.531 22.8249 147.383 23.3804 147.086 23.7684C146.797 24.1566 146.313 24.3506 145.636 24.3506C144.997 24.3506 144.544 24.1566 144.278 23.7684C144.019 23.3804 143.89 22.8249 143.89 22.102V17.1025C143.89 16.76 143.844 16.4557 143.753 16.1894C143.662 15.9154 143.532 15.6871 143.365 15.5045C143.205 15.3143 143.015 15.1734 142.794 15.0822C142.574 14.9832 142.337 14.9337 142.087 14.9337C141.774 14.9337 141.478 14.9832 141.197 15.0822C140.915 15.181 140.668 15.3333 140.454 15.5387C140.249 15.7442 140.081 16.0067 139.952 16.3263C139.83 16.6459 139.77 17.0302 139.77 17.4792V22.102C139.77 22.8249 139.621 23.3804 139.325 23.7684C139.035 24.1566 138.552 24.3506 137.874 24.3506C137.235 24.3506 136.782 24.1566 136.516 23.7684C136.257 23.3804 136.128 22.8249 136.128 22.102V17.3193C136.128 16.5356 135.964 15.9421 135.638 15.5387C135.317 15.1355 134.88 14.9337 134.325 14.9337C133.998 14.9337 133.693 14.987 133.411 15.0936C133.13 15.2001 132.886 15.3561 132.681 15.5616C132.475 15.767 132.312 16.0219 132.19 16.3263C132.076 16.6307 132.019 16.9808 132.019 17.3764V22.102C132.019 22.8249 131.87 23.3804 131.574 23.7684C131.285 24.1566 130.802 24.3506 130.124 24.3506C129.485 24.3506 129.032 24.1566 128.766 23.7684C128.507 23.3804 128.377 22.8249 128.377 22.102V15.1164Z" fill="#B9C6D8"/>
<path d="M16.5585 22.4028C13.3309 22.4028 10.7144 19.7863 10.7144 16.5586C10.7144 13.331 13.3309 10.7145 16.5585 10.7145C19.7861 10.7145 22.4027 13.331 22.4027 16.5586C22.4027 19.7863 19.7861 22.4028 16.5585 22.4028Z" fill="#B9C6D8"/>
<path d="M5.23669 18.5547C3.54311 18.8534 2.38224 20.4893 3.03236 22.0815C3.93999 24.3042 5.38801 26.2846 7.26526 27.8321C9.94959 30.0448 13.3353 31.2272 16.8135 31.1665C20.2918 31.1058 23.6343 29.806 26.2398 27.5009C28.0618 25.8888 29.4398 23.8591 30.2694 21.606C30.8636 19.9922 29.6462 18.3977 27.9433 18.1584C26.2404 17.9191 24.7113 19.1586 23.8702 20.6586C23.4142 21.4716 22.8223 22.2093 22.1132 22.8366C20.6183 24.1593 18.7005 24.905 16.7049 24.9398C14.7093 24.9746 12.7667 24.2963 11.2265 23.0267C10.4959 22.4244 9.87868 21.7079 9.39461 20.9113C8.50163 19.4416 6.93028 18.2561 5.23669 18.5547Z" fill="#B9C6D8"/>
<path d="M31.056 18.3842C31.1306 17.786 31.169 17.1767 31.169 16.5584C31.169 8.48929 24.6278 1.948 16.5586 1.948C8.48954 1.948 1.94824 8.48929 1.94824 16.5584C1.94824 17.3519 2.01151 18.1307 2.13327 18.8899C2.80435 17.9712 3.85174 17.3154 4.98307 17.1159C6.20712 16.9001 7.31959 17.197 8.26019 17.7519C8.20462 17.3621 8.17587 16.9636 8.17587 16.5584C8.17587 11.9287 11.929 8.17563 16.5586 8.17563C21.1883 8.17563 24.9414 11.9287 24.9414 16.5584C24.9414 16.8636 24.925 17.1651 24.8933 17.4619C25.814 16.8743 26.9156 16.5385 28.1467 16.7116C29.284 16.8714 30.3533 17.4899 31.056 18.3842Z" fill="#B9C6D8"/>
</svg>
