<svg width="150" height="40" viewBox="0 0 150 40" fill="none" xmlns="http://www.w3.org/2000/svg">
<path d="M50.9435 28.6418C50.2676 28.6785 49.5991 28.4863 49.0458 28.0963C48.8146 27.9249 48.6286 27.6998 48.5038 27.4405C48.3791 27.1811 48.3194 26.8953 48.3298 26.6077V16.0736C48.3244 16.029 48.329 15.9837 48.3437 15.9412C48.3583 15.8987 48.3823 15.8602 48.4142 15.8283C48.446 15.7965 48.4845 15.7724 48.527 15.7579C48.5695 15.7432 48.6148 15.7386 48.6594 15.744H50.5685C50.7844 15.744 50.8867 15.8577 50.8867 16.0736V25.7895C50.8867 26.2213 51.0799 26.4372 51.4776 26.4372C51.6462 26.4441 51.8149 26.4251 51.9776 26.3804C52.2049 26.3804 52.3299 26.4486 52.3412 26.6531L52.5117 28.0736C52.5199 28.1151 52.5191 28.1577 52.5094 28.1988C52.4997 28.2398 52.4813 28.2785 52.4554 28.3118C52.4296 28.3452 52.3969 28.3727 52.3596 28.3923C52.3222 28.412 52.2811 28.4235 52.2389 28.4258C51.8208 28.564 51.3838 28.6369 50.9435 28.6418Z" fill="#B9C6D8"/>
<path d="M61.6822 27.4258C60.723 28.2184 59.5174 28.6519 58.2731 28.6519C57.0288 28.6519 55.8233 28.2184 54.864 27.4258C54.0209 26.5746 53.5479 25.425 53.5479 24.2269C53.5479 23.0288 54.0209 21.8792 54.864 21.028C55.8251 20.2395 57.0299 19.8086 58.2731 19.8086C59.5163 19.8086 60.721 20.2395 61.6822 21.028C62.5059 21.887 62.9658 23.0311 62.9658 24.2212C62.9658 25.4113 62.5059 26.5554 61.6822 27.4144V27.4258ZM56.6594 25.9258C57.1047 26.329 57.6838 26.5523 58.2844 26.5523C58.8851 26.5523 59.4643 26.329 59.9094 25.9258C60.3124 25.4626 60.5342 24.8693 60.5342 24.2553C60.5342 23.6414 60.3124 23.0481 59.9094 22.5848C59.4643 22.1817 58.8851 21.9583 58.2844 21.9583C57.6838 21.9583 57.1047 22.1817 56.6594 22.5848C56.2566 23.0481 56.0347 23.6414 56.0347 24.2553C56.0347 24.8693 56.2566 25.4626 56.6594 25.9258Z" fill="#B9C6D8"/>
<path d="M73.4776 20.0962C73.6935 20.0962 73.7958 20.2099 73.7958 20.4258V28.5735C73.8156 29.1235 73.7127 29.6709 73.4945 30.176C73.2763 30.6812 72.9484 31.1314 72.5344 31.4939C71.6155 32.2775 70.4339 32.6835 69.2276 32.6303C68.138 32.6686 67.0629 32.3711 66.148 31.778C65.7573 31.5216 65.4236 31.1874 65.1676 30.7964C64.9114 30.4054 64.7385 29.966 64.6594 29.5053C64.6594 29.278 64.6594 29.1758 64.9662 29.1758H66.8753C66.9563 29.1785 67.035 29.2047 67.1014 29.2511C67.168 29.2975 67.2197 29.362 67.2503 29.4371C67.3742 29.7822 67.621 30.0696 67.9435 30.2439C68.3366 30.4468 68.7741 30.5484 69.2162 30.5394C69.483 30.5541 69.7501 30.5153 70.0018 30.4255C70.2535 30.3359 70.4847 30.1968 70.6821 30.0167C70.8625 29.8283 71.0027 29.6052 71.0945 29.3611C71.1863 29.117 71.2277 28.8568 71.2162 28.5962V27.8803C70.5327 28.383 69.7008 28.643 68.8526 28.6189C68.2589 28.6405 67.6671 28.542 67.1125 28.3292C66.5579 28.1162 66.0521 27.7936 65.6253 27.3803C64.8061 26.5328 64.3481 25.4001 64.3481 24.2212C64.3481 23.0425 64.8061 21.9097 65.6253 21.0621C66.0542 20.6526 66.5606 20.333 67.1148 20.1222C67.6692 19.9114 68.26 19.8137 68.8526 19.8349C69.7253 19.8118 70.5796 20.0886 71.273 20.6189V20.4371C71.2678 20.3936 71.2723 20.3494 71.2863 20.3078C71.3003 20.2663 71.3234 20.2284 71.3538 20.1968C71.3843 20.1652 71.4214 20.1409 71.4625 20.1254C71.5036 20.11 71.5476 20.1039 71.5912 20.1076L73.4776 20.0962ZM69.0685 26.5962C69.3612 26.6053 69.6525 26.55 69.9214 26.4341C70.1904 26.3183 70.4308 26.1447 70.6253 25.9258C71.0031 25.4379 71.2081 24.8383 71.2081 24.2212C71.2081 23.6042 71.0031 23.0046 70.6253 22.5167C70.4314 22.3008 70.1926 22.1297 69.9256 22.0159C69.6586 21.902 69.37 21.848 69.0798 21.8576C68.7837 21.8483 68.4892 21.9034 68.2164 22.0192C67.9437 22.135 67.6994 22.3086 67.5003 22.528C67.0818 22.9947 66.8617 23.6062 66.8867 24.2326C66.8662 24.8528 67.0814 25.4578 67.4889 25.9258C67.6885 26.1446 67.9329 26.3179 68.2055 26.4336C68.4781 26.5493 68.7725 26.6047 69.0685 26.5962Z" fill="#B9C6D8"/>
<path d="M83.6023 27.4258C82.6412 28.2143 81.4364 28.6452 80.1933 28.6452C78.9501 28.6452 77.7453 28.2143 76.7842 27.4258C75.9597 26.5648 75.4995 25.4189 75.4995 24.2269C75.4995 23.035 75.9597 21.8889 76.7842 21.028C77.7462 20.2415 78.9506 19.8119 80.1933 19.8119C81.4359 19.8119 82.6403 20.2415 83.6023 21.028C84.4261 21.887 84.886 23.0311 84.886 24.2212C84.886 25.4113 84.4261 26.5554 83.6023 27.4144V27.4258ZM78.5683 25.9258C78.7861 26.133 79.0429 26.295 79.3238 26.4022C79.6047 26.5095 79.9041 26.5601 80.2046 26.5508C80.5033 26.5585 80.8005 26.5073 81.0794 26.4001C81.3583 26.2928 81.6131 26.1317 81.8296 25.9258C82.226 25.4594 82.4436 24.8673 82.4436 24.2553C82.4436 23.6433 82.226 23.0512 81.8296 22.5848C81.6131 22.379 81.3583 22.2178 81.0794 22.1106C80.8005 22.0034 80.5033 21.9521 80.2046 21.9598C79.9041 21.9506 79.6047 22.0011 79.3238 22.1084C79.0429 22.2156 78.7861 22.3777 78.5683 22.5848C78.172 23.0512 77.9544 23.6433 77.9544 24.2553C77.9544 24.8673 78.172 25.4594 78.5683 25.9258Z" fill="#B9C6D8"/>
<path d="M88.9889 18.1645C88.6886 18.4275 88.3029 18.5724 87.9037 18.5724C87.5045 18.5724 87.1189 18.4275 86.8185 18.1645C86.6823 18.036 86.5738 17.881 86.4996 17.7091C86.4255 17.5371 86.3872 17.3518 86.3872 17.1645C86.3872 16.9772 86.4255 16.792 86.4996 16.62C86.5738 16.448 86.6823 16.293 86.8185 16.1645C87.122 15.9081 87.5064 15.7676 87.9037 15.7676C88.301 15.7676 88.6854 15.9081 88.9889 16.1645C89.1252 16.293 89.2337 16.448 89.3078 16.62C89.382 16.792 89.4202 16.9772 89.4202 17.1645C89.4202 17.3518 89.382 17.5371 89.3078 17.7091C89.2337 17.881 89.1252 18.036 88.9889 18.1645ZM89.2276 28.6418C88.5521 28.675 87.8847 28.4831 87.3298 28.0963C87.1022 27.9225 86.9194 27.6966 86.7969 27.4376C86.6742 27.1786 86.6154 26.8941 86.6253 26.6077V20.4259C86.6198 20.3813 86.6245 20.336 86.6391 20.2935C86.6537 20.251 86.6778 20.2125 86.7096 20.1806C86.7414 20.1488 86.7799 20.1247 86.8224 20.1102C86.8649 20.0955 86.9103 20.0909 86.9548 20.0963H88.8639C89.0798 20.0963 89.1821 20.21 89.1821 20.4259V25.7895C89.1821 26.2213 89.3753 26.4372 89.7616 26.4372C89.934 26.4435 90.1063 26.4243 90.273 26.3804C90.5003 26.3804 90.6253 26.4486 90.6367 26.6531L90.8071 28.0736C90.8153 28.1151 90.8145 28.1577 90.8048 28.1988C90.7952 28.2399 90.7768 28.2785 90.7509 28.3118C90.7251 28.3452 90.6923 28.3727 90.6551 28.3924C90.6177 28.412 90.5765 28.4235 90.5344 28.4259C90.1126 28.5649 89.6718 28.6377 89.2276 28.6418Z" fill="#B9C6D8"/>
<path d="M97.8297 19.8235C98.4261 19.8 99.021 19.8965 99.5793 20.1072C100.138 20.3182 100.648 20.639 101.08 21.0508C101.883 21.9133 102.33 23.0482 102.33 24.2269C102.33 25.4057 101.883 26.5407 101.08 27.403C100.65 27.8186 100.14 28.1426 99.5817 28.3554C99.023 28.5684 98.4271 28.6658 97.8297 28.6417C96.9788 28.6607 96.1449 28.4013 95.4548 27.903V32.0053C95.4548 32.2212 95.3411 32.3235 95.1252 32.3235H93.2161C93.1726 32.3317 93.1277 32.3291 93.0853 32.316C93.0431 32.3028 93.0045 32.2796 92.9732 32.2483C92.9419 32.2169 92.9186 32.1785 92.9055 32.1361C92.8924 32.0938 92.8899 32.049 92.8979 32.0053V22.6871C92.9113 22.596 92.9032 22.503 92.8743 22.4155C92.8453 22.3282 92.7962 22.2486 92.7311 22.1835C92.666 22.1184 92.5866 22.0694 92.4991 22.0404C92.4117 22.0115 92.3186 22.0034 92.2275 22.0167H91.8525C91.6025 22.0167 91.4775 21.9258 91.4775 21.744V20.403C91.4716 20.3201 91.4943 20.2376 91.5419 20.1694C91.5894 20.1011 91.659 20.0512 91.7388 20.028C92.1319 19.8852 92.5479 19.8159 92.9661 19.8235C93.3832 19.7866 93.8017 19.8751 94.1682 20.0775C94.5345 20.28 94.8323 20.5872 95.0229 20.9599C95.389 20.5896 95.8267 20.2979 96.3093 20.1025C96.7919 19.9071 97.3093 19.8121 97.8297 19.8235ZM96.057 25.9258C96.2596 26.1376 96.503 26.3061 96.7726 26.4212C97.0421 26.5363 97.3321 26.5957 97.6252 26.5957C97.9183 26.5957 98.2084 26.5363 98.4778 26.4212C98.7474 26.3061 98.9908 26.1376 99.1934 25.9258C99.6202 25.4497 99.8444 24.826 99.8184 24.1871C99.8482 23.5478 99.6234 22.9226 99.1934 22.4485C98.9908 22.2368 98.7474 22.0683 98.4778 21.9532C98.2084 21.8379 97.9183 21.7786 97.6252 21.7786C97.3321 21.7786 97.0421 21.8379 96.7726 21.9532C96.503 22.0683 96.2596 22.2368 96.057 22.4485C95.6436 22.931 95.4284 23.5522 95.4548 24.1871C95.4317 24.8216 95.6466 25.4417 96.057 25.9258Z" fill="#B9C6D8"/>
<path d="M107.693 28.6417C106.673 28.6837 105.661 28.4397 104.772 27.9372C104.416 27.7224 104.112 27.43 103.884 27.0818C103.656 26.7337 103.509 26.3385 103.454 25.9258C103.454 25.6985 103.534 25.5849 103.784 25.5849H105.454C105.534 25.5881 105.611 25.613 105.677 25.6572C105.743 25.7013 105.796 25.7628 105.829 25.8349C106.068 26.4485 106.693 26.7554 107.693 26.7554C108.042 26.7714 108.389 26.701 108.704 26.5508C108.813 26.5017 108.906 26.424 108.974 26.3259C109.042 26.2279 109.083 26.1131 109.09 25.994C109.09 25.6985 108.909 25.494 108.545 25.3576C108.114 25.2141 107.668 25.1188 107.215 25.0735C106.68 25.0129 106.148 24.918 105.625 24.7895C105.115 24.6742 104.652 24.409 104.295 24.0281C104.085 23.7692 103.93 23.4698 103.84 23.1486C103.75 22.8273 103.728 22.4909 103.774 22.1606C103.82 21.8301 103.933 21.5126 104.107 21.228C104.28 20.9432 104.511 20.6973 104.784 20.5054C105.603 19.9837 106.564 19.7295 107.534 19.7781C108.473 19.7464 109.402 19.9787 110.215 20.4485C110.543 20.6343 110.826 20.8908 111.042 21.1995C111.258 21.5081 111.403 21.861 111.465 22.2326C111.465 22.4599 111.363 22.5735 111.159 22.5735H109.477C109.406 22.5778 109.336 22.5605 109.275 22.524C109.214 22.4875 109.166 22.4334 109.136 22.369C109.024 22.0999 108.812 21.8842 108.545 21.7667C108.244 21.6092 107.908 21.5309 107.568 21.5395C107.235 21.5214 106.902 21.5879 106.602 21.7326C106.496 21.7735 106.405 21.8451 106.34 21.9383C106.275 22.0315 106.24 22.142 106.238 22.2554C106.245 22.4108 106.302 22.5598 106.401 22.6805C106.499 22.8012 106.633 22.8871 106.784 22.9258C107.22 23.0904 107.674 23.2047 108.136 23.2667C108.667 23.3367 109.195 23.4354 109.715 23.5622C110.225 23.6775 110.688 23.9426 111.045 24.3235C111.236 24.5334 111.384 24.779 111.479 25.0463C111.575 25.3134 111.616 25.597 111.602 25.8804C111.612 26.2732 111.519 26.6618 111.334 27.0084C111.149 27.3549 110.877 27.6475 110.545 27.8576C109.696 28.4028 108.701 28.6762 107.693 28.6417Z" fill="#B9C6D8"/>
<path d="M123.614 28.0736C123.621 28.1139 123.618 28.1552 123.609 28.1948C123.599 28.2346 123.582 28.2719 123.557 28.3047C123.533 28.3376 123.503 28.3652 123.467 28.386C123.432 28.4068 123.393 28.4203 123.353 28.4259C122.938 28.5613 122.505 28.6342 122.068 28.6418C121.637 28.6865 121.2 28.619 120.803 28.4459C120.404 28.2727 120.057 27.9996 119.796 27.6531C118.993 28.3432 117.955 28.6973 116.898 28.6418C116.407 28.6644 115.917 28.584 115.459 28.406C115.001 28.2279 114.585 27.956 114.239 27.6077C113.895 27.2428 113.628 26.8121 113.454 26.3415C113.28 25.871 113.203 25.3702 113.228 24.869V20.4259C113.228 20.21 113.33 20.0963 113.546 20.0963H115.455C115.671 20.0963 115.773 20.21 115.773 20.4259V24.5281C115.753 25.0393 115.926 25.539 116.262 25.9259C116.429 26.1031 116.632 26.2425 116.857 26.3346C117.082 26.4268 117.325 26.4695 117.568 26.46C117.817 26.4709 118.066 26.4323 118.3 26.3464C118.534 26.2606 118.749 26.1293 118.932 25.9599C119.105 25.7815 119.24 25.5695 119.328 25.3369C119.416 25.1043 119.455 24.8561 119.443 24.6077V20.4259C119.443 20.21 119.546 20.0963 119.762 20.0963H121.693C121.909 20.0963 122.012 20.21 122.012 20.4259V25.7781C122.012 26.2213 122.205 26.4372 122.58 26.4372C122.756 26.444 122.932 26.425 123.103 26.3804C123.146 26.3684 123.191 26.3662 123.234 26.3742C123.279 26.382 123.32 26.3997 123.356 26.426C123.392 26.4522 123.422 26.4863 123.443 26.5256C123.464 26.565 123.475 26.6086 123.478 26.6531L123.614 28.0736Z" fill="#B9C6D8"/>
<path d="M141.67 28.0737C141.68 28.1144 141.682 28.1569 141.674 28.198C141.665 28.239 141.648 28.2779 141.623 28.3115C141.598 28.3451 141.566 28.3729 141.528 28.3926C141.492 28.4125 141.451 28.4239 141.409 28.4259C140.986 28.5633 140.546 28.6362 140.102 28.6419C139.426 28.6767 138.759 28.4848 138.204 28.0964C137.965 27.93 137.77 27.7072 137.637 27.4475C137.504 27.1879 137.437 26.8994 137.443 26.6078V23.9373C137.467 23.4278 137.296 22.9281 136.966 22.5396C136.807 22.362 136.609 22.222 136.39 22.1296C136.169 22.0373 135.932 21.9949 135.693 22.0055C135.478 21.9974 135.265 22.0382 135.067 22.1248C134.87 22.2114 134.696 22.3416 134.557 22.5055C134.257 22.8863 134.103 23.3622 134.125 23.8464V28.0396C134.125 28.2555 134.023 28.3691 133.807 28.3691H131.886C131.842 28.3747 131.796 28.3699 131.754 28.3554C131.711 28.3407 131.673 28.3166 131.641 28.2848C131.609 28.2531 131.585 28.2145 131.57 28.172C131.555 28.1295 131.551 28.0842 131.557 28.0396V23.9373C131.582 23.4333 131.424 22.9372 131.113 22.5396C130.975 22.3725 130.801 22.2381 130.604 22.1458C130.409 22.0536 130.194 22.0056 129.977 22.0055C129.745 21.9962 129.515 22.0358 129.299 22.1221C129.083 22.2082 128.888 22.3389 128.727 22.5055C128.402 22.8741 128.235 23.3557 128.261 23.8464V28.0396C128.267 28.0842 128.262 28.1295 128.248 28.172C128.233 28.2145 128.209 28.2531 128.177 28.2848C128.145 28.3166 128.107 28.3407 128.065 28.3554C128.021 28.3699 127.976 28.3747 127.932 28.3691H126.079C125.863 28.3691 125.761 28.2555 125.761 28.0396V22.6873C125.775 22.5962 125.767 22.5032 125.737 22.4157C125.709 22.3283 125.66 22.2488 125.594 22.1837C125.529 22.1186 125.45 22.0696 125.362 22.0406C125.275 22.0116 125.182 22.0036 125.091 22.0169H124.716C124.466 22.0169 124.341 21.9259 124.341 21.7441V20.4032C124.335 20.3203 124.358 20.2378 124.405 20.1696C124.453 20.1013 124.523 20.0514 124.602 20.0282C124.995 19.8854 125.411 19.8161 125.829 19.8237C126.23 19.7895 126.634 19.8695 126.992 20.0545C127.35 20.2395 127.648 20.5219 127.852 20.8691C128.235 20.5058 128.69 20.2254 129.186 20.0455C129.683 19.8656 130.211 19.7901 130.738 19.8237C131.251 19.7987 131.761 19.8947 132.229 20.104C132.698 20.3133 133.109 20.6299 133.432 21.0282C133.808 20.6195 134.27 20.2995 134.785 20.0911C135.3 19.8828 135.854 19.7915 136.409 19.8237C136.904 19.8005 137.4 19.8804 137.863 20.0584C138.327 20.2364 138.749 20.5086 139.102 20.8578C139.448 21.222 139.715 21.6525 139.888 22.1233C140.062 22.594 140.14 23.0953 140.113 23.5964V25.7896C140.113 26.2214 140.307 26.4373 140.67 26.4373C140.846 26.4455 141.023 26.4264 141.193 26.3805C141.428 26.3805 141.553 26.4714 141.568 26.6532L141.67 28.0737Z" fill="#B9C6D8"/>
<path d="M8.4205 18.619C9.25887 15.2494 11.2005 12.257 13.9363 10.1185C16.6721 7.97999 20.0447 6.81824 23.5171 6.81824C26.9895 6.81824 30.3621 7.97999 33.0979 10.1185C35.8337 12.257 37.7753 15.2494 38.6137 18.619H37.25C34.9497 18.5852 32.6965 19.2727 30.8069 20.5849C30.6978 20.6639 30.5839 20.7361 30.466 20.8009H30.3069C30.1889 20.7361 30.075 20.6639 29.966 20.5849C28.0596 19.303 25.8144 18.6184 23.5171 18.6184C21.2198 18.6184 18.9746 19.303 17.0682 20.5849C16.9591 20.6639 16.8453 20.7361 16.7273 20.8009H16.5682C16.4503 20.7361 16.3364 20.6639 16.2273 20.5849C14.3377 19.2727 12.0845 18.5852 9.78413 18.619H8.4205ZM34.7955 25.744C35.4955 25.1989 36.3631 24.9137 37.25 24.9372H39.0796V21.2895H37.25C35.6878 21.2706 34.1613 21.7569 32.8978 22.6759C32.1868 23.2001 31.3266 23.4829 30.4432 23.4829C29.5598 23.4829 28.6997 23.2001 27.9887 22.6759C26.6931 21.774 25.1524 21.2905 23.5739 21.2905C21.9954 21.2905 20.4547 21.774 19.1591 22.6759C18.4481 23.2001 17.588 23.4829 16.7046 23.4829C15.8212 23.4829 14.9611 23.2001 14.25 22.6759C12.971 21.7451 11.4225 21.2582 9.84095 21.2895H7.95459V24.9372H9.78413C10.6711 24.9137 11.5387 25.1989 12.2387 25.744C13.5319 26.6465 15.0708 27.1304 16.6478 27.1304C18.2247 27.1304 19.7637 26.6465 21.0569 25.744C21.7578 25.2006 22.6247 24.9156 23.5114 24.9372C24.3987 24.9118 25.2669 25.1972 25.966 25.744C27.2615 26.646 28.8022 27.1294 30.3807 27.1294C31.9592 27.1294 33.4999 26.646 34.7955 25.744ZM34.7955 32.2668C35.4955 31.7217 36.3631 31.4364 37.25 31.4599H39.0796V27.8122H37.25C35.6878 27.7934 34.1613 28.2796 32.8978 29.1986C32.1868 29.7228 31.3266 30.0056 30.4432 30.0056C29.5598 30.0056 28.6997 29.7228 27.9887 29.1986C26.6931 28.2968 25.1524 27.8134 23.5739 27.8134C21.9954 27.8134 20.4547 28.2968 19.1591 29.1986C18.4481 29.7228 17.588 30.0056 16.7046 30.0056C15.8212 30.0056 14.9611 29.7228 14.25 29.1986C12.971 28.2679 11.4225 27.781 9.84095 27.8122H7.95459V31.4599H9.78413C10.6711 31.4364 11.5387 31.7217 12.2387 32.2668C13.5319 33.1693 15.0708 33.6531 16.6478 33.6531C18.2247 33.6531 19.7637 33.1693 21.0569 32.2668C21.7578 31.7234 22.6247 31.4384 23.5114 31.4599C24.3987 31.4345 25.2669 31.7199 25.966 32.2668C27.2615 33.1687 28.8022 33.6521 30.3807 33.6521C31.9592 33.6521 33.4999 33.1687 34.7955 32.2668Z" fill="#B9C6D8"/>
</svg>
