<svg width="150" height="33" viewBox="0 0 150 33" fill="none" xmlns="http://www.w3.org/2000/svg">
<path d="M22.8153 25.8252L3.31526 12.3741C1.33917 11.0111 2.01091 8.17303 4.47504 7.50564L25.2 1.88064C25.6391 1.72223 26.1095 1.6708 26.5724 1.73064C27.0353 1.79048 27.4772 1.95985 27.8616 2.22469C28.2458 2.48954 28.5615 2.84223 28.7821 3.25348C29.0028 3.66473 29.1222 4.12268 29.1305 4.58934L27.9022 23.6644C27.7566 25.9285 24.7913 27.1883 22.8153 25.8252Z" fill="#B9C6D8"/>
<path d="M16.6305 29.1457L5.14247 6.67948C4.87986 6.16552 4.7643 5.58901 4.80853 5.01354C4.85276 4.43807 5.05506 3.886 5.39312 3.4182C5.73118 2.95041 6.19187 2.58506 6.72438 2.36245C7.25689 2.13985 7.84053 2.06863 8.41095 2.15666L29.7012 5.44252C30.1913 5.51818 30.6565 5.70911 31.0586 5.99959C31.4605 6.29009 31.7878 6.67186 32.0136 7.1135C32.2392 7.55514 32.3569 8.04404 32.3568 8.54002C32.3567 9.03599 32.2389 9.52487 32.0131 9.96643L22.2055 29.1468C21.9422 29.6593 21.5426 30.0893 21.0508 30.3894C20.5589 30.6896 19.9939 30.8483 19.4177 30.8482C18.8415 30.8481 18.2765 30.6892 17.7848 30.3889C17.293 30.0885 16.8937 29.6583 16.6305 29.1457Z" fill="#D2DFF0"/>
<path d="M29.078 5.34556L18.465 3.70752L5.43457 7.24556L10.6357 17.4205L22.815 25.8249C23.0837 26.0083 23.3792 26.1487 23.6911 26.2412L28.3172 17.1945L29.078 5.34556Z" fill="#B9C6D8"/>
<path d="M82.8359 7.97173C82.8359 7.57725 82.9529 7.19163 83.172 6.86361C83.3913 6.53562 83.7028 6.27996 84.0672 6.129C84.4317 5.97804 84.8327 5.93854 85.2196 6.0155C85.6065 6.09246 85.9619 6.28243 86.2408 6.56137C86.5198 6.84031 86.7097 7.19571 86.7867 7.58261C86.8636 7.96953 86.8242 8.37057 86.6732 8.73503C86.5222 9.09948 86.2666 9.41099 85.9387 9.63016C85.6106 9.84932 85.225 9.9663 84.8305 9.9663C84.3031 9.96093 83.799 9.74906 83.426 9.37617C83.0532 9.00327 82.8413 8.49906 82.8359 7.97173ZM83.1685 10.9413H86.4935V22.0217H83.1685V10.9413Z" fill="#B9C6D8"/>
<path d="M100.852 16.4816C100.891 17.214 100.784 17.9468 100.538 18.6379C100.293 19.3289 99.913 19.9646 99.4209 20.5084C98.9288 21.0521 98.334 21.4932 97.6707 21.8064C97.0075 22.1194 96.2889 22.2983 95.5563 22.3327C94.9401 22.3662 94.3241 22.2622 93.7529 22.0284C93.1818 21.7945 92.6698 21.4366 92.2541 20.9805V26.4544H88.9302V10.9414H92.2541V11.9827C92.67 11.5267 93.1819 11.169 93.7531 10.9353C94.3242 10.7016 94.9402 10.5979 95.5563 10.6316C96.2889 10.6658 97.0073 10.8445 97.6706 11.1575C98.3339 11.4705 98.9286 11.9115 99.4208 12.4552C99.913 12.9989 100.293 13.6344 100.538 14.3255C100.784 15.0165 100.891 15.7492 100.852 16.4816ZM97.528 16.4816C97.5149 15.9628 97.3492 15.4594 97.0515 15.0343C96.7538 14.6093 96.3372 14.2815 95.8542 14.092C95.371 13.9025 94.8428 13.8597 94.3355 13.969C93.8282 14.0782 93.3643 14.3346 93.002 14.7062C92.6397 15.0777 92.3951 15.5479 92.2987 16.0578C92.2022 16.5677 92.2584 17.0947 92.4601 17.5729C92.6617 18.0511 92.9998 18.4591 93.4322 18.7461C93.8647 19.033 94.3721 19.1859 94.891 19.1859C95.2474 19.202 95.6031 19.1425 95.9348 19.0114C96.2666 18.8802 96.5668 18.6803 96.8158 18.425C97.0648 18.1695 97.257 17.8644 97.3798 17.5294C97.5026 17.1945 97.5531 16.8374 97.528 16.4816Z" fill="#B9C6D8"/>
<path d="M111.112 18.6959C111.112 21.2448 108.896 22.3306 106.502 22.3306C105.536 22.4181 104.565 22.2135 103.715 21.7431C102.866 21.2729 102.177 20.5586 101.738 19.6926L104.619 18.0535C104.736 18.4538 104.987 18.8017 105.33 19.0391C105.673 19.2765 106.087 19.389 106.502 19.3578C107.3 19.3578 107.698 19.1132 107.698 18.6709C107.698 17.4513 102.247 18.0948 102.247 14.26C102.247 11.8448 104.285 10.6263 106.595 10.6263C107.461 10.5991 108.319 10.8047 109.078 11.2216C109.839 11.6386 110.473 12.2516 110.915 12.9969L108.08 14.5263C107.956 14.2354 107.749 13.9875 107.485 13.8136C107.22 13.6395 106.911 13.5473 106.595 13.548C106.019 13.548 105.664 13.7654 105.664 14.1687C105.661 15.4404 111.112 14.598 111.112 18.6959Z" fill="#B9C6D8"/>
<path d="M123.261 10.9412V22.0216H119.937V20.9781C119.553 21.4378 119.065 21.8 118.514 22.0351C117.964 22.2701 117.365 22.3713 116.768 22.3303C114.529 22.3303 112.624 20.7346 112.624 17.7423V10.9412H115.948V17.2575C115.92 17.5216 115.95 17.7887 116.036 18.04C116.122 18.2913 116.261 18.5209 116.445 18.7129C116.628 18.9049 116.851 19.0544 117.098 19.1513C117.346 19.2482 117.611 19.29 117.876 19.2738C119.095 19.2738 119.941 18.5651 119.941 16.9912V10.9412H123.261Z" fill="#B9C6D8"/>
<path d="M142.313 15.2175V22.0218H138.989V15.5066C138.989 14.399 138.457 13.6892 137.393 13.6892C136.285 13.6892 135.665 14.4653 135.665 15.7729V22.0218H132.34V15.5066C132.34 14.399 131.809 13.6892 130.745 13.6892C129.637 13.6892 129.016 14.4653 129.016 15.7729V22.0218H125.692V10.9414H129.022V11.9566C129.366 11.5045 129.818 11.1461 130.337 10.9138C130.855 10.6816 131.425 10.5831 131.991 10.6273C132.56 10.5994 133.127 10.7195 133.636 10.9757C134.145 11.2319 134.578 11.6155 134.895 12.0892C135.263 11.5937 135.751 11.1995 136.313 10.9439C136.875 10.6882 137.493 10.5793 138.109 10.6273C140.652 10.6316 142.313 12.4479 142.313 15.2175Z" fill="#B9C6D8"/>
<path d="M145.129 10.8729C146.493 10.8729 147.597 9.76821 147.597 8.4055C147.597 7.04281 146.493 5.93811 145.129 5.93811C143.766 5.93811 142.662 7.04281 142.662 8.4055C142.662 9.76821 143.766 10.8729 145.129 10.8729Z" fill="#B9C6D8"/>
<path d="M37.4531 5.8446H40.7781V22.0218H37.4531V5.8446ZM42.6607 16.4816C42.6571 15.3199 42.9982 14.1832 43.6409 13.2156C44.2837 12.2479 45.1991 11.4927 46.2713 11.0456C47.3436 10.5986 48.5242 10.4797 49.6641 10.7041C50.8039 10.9285 51.8515 11.486 52.6742 12.3062C53.4969 13.1263 54.0578 14.1721 54.2857 15.3112C54.5137 16.4503 54.3986 17.6314 53.9549 18.705C53.5112 19.7786 52.7589 20.6964 51.7932 21.3422C50.8276 21.9879 49.692 22.3327 48.5303 22.3327C47.7588 22.3409 46.9933 22.1953 46.2787 21.9044C45.5641 21.6136 44.9145 21.1831 44.3681 20.6385C43.8216 20.0937 43.3892 19.4455 43.0961 18.7318C42.8029 18.0181 42.655 17.2531 42.6607 16.4816ZM51.0825 16.4816C51.0694 15.9804 50.909 15.4943 50.6211 15.084C50.3332 14.6737 49.9307 14.3573 49.464 14.1744C48.9971 13.9917 48.4869 13.9505 47.9969 14.0563C47.5069 14.1619 47.059 14.4099 46.7091 14.7688C46.3592 15.1278 46.123 15.5819 46.0299 16.0744C45.9368 16.5671 45.991 17.0761 46.1857 17.538C46.3804 17.9999 46.707 18.3941 47.1246 18.6714C47.5423 18.9487 48.0324 19.0966 48.5336 19.0968C48.8768 19.1066 49.2184 19.0451 49.5367 18.9163C49.8551 18.7876 50.1432 18.5942 50.3831 18.3485C50.623 18.1028 50.8094 17.8101 50.9305 17.4888C51.0516 17.1674 51.1049 16.8244 51.0868 16.4816H51.0825ZM67.6575 10.9381V21.4653C67.6575 25.1881 64.7542 26.761 61.8075 26.761C60.7703 26.8392 59.7315 26.6304 58.805 26.1574C57.8786 25.6844 57.1002 24.9654 56.5553 24.0794L59.3912 22.4392C59.6201 22.9016 59.9848 23.2831 60.4364 23.5328C60.888 23.7824 61.405 23.8881 61.9183 23.836C62.2461 23.8806 62.5795 23.8513 62.8943 23.7499C63.2091 23.6485 63.497 23.4778 63.737 23.2502C63.9769 23.0227 64.1627 22.7442 64.2806 22.4352C64.3986 22.1263 64.4456 21.7948 64.4183 21.4653V20.4457C64.029 20.9218 63.5334 21.3001 62.9716 21.5502C62.4096 21.8003 61.7969 21.9153 61.1825 21.886C59.72 21.8404 58.3325 21.2275 57.314 20.1768C56.2955 19.1262 55.726 17.7204 55.726 16.2572C55.726 14.7938 56.2955 13.388 57.314 12.3374C58.3325 11.2867 59.72 10.6738 61.1825 10.6283C61.7969 10.5989 62.4096 10.7139 62.9716 10.964C63.5334 11.2141 64.029 11.5924 64.4183 12.0686V10.9381H67.6575ZM64.4227 16.2566C64.4446 15.7214 64.3059 15.1919 64.0245 14.7362C63.7431 14.2804 63.3318 13.9192 62.8434 13.6991C62.3552 13.479 61.8121 13.41 61.2843 13.501C60.7565 13.5919 60.2679 13.8387 59.8814 14.2096C59.4949 14.5804 59.2281 15.0584 59.1155 15.5819C59.0028 16.1056 59.0493 16.651 59.2491 17.148C59.4488 17.645 59.7927 18.0709 60.2364 18.3709C60.6801 18.6709 61.2034 18.8313 61.739 18.8316C62.0882 18.8561 62.4388 18.8073 62.768 18.6882C63.0973 18.5692 63.3979 18.3826 63.6507 18.1403C63.9034 17.8981 64.1028 17.6056 64.2357 17.2818C64.3687 16.9579 64.4324 16.6098 64.4227 16.2599V16.2566ZM69.5401 16.474C69.5365 15.3123 69.8776 14.1756 70.5203 13.208C71.163 12.2403 72.0784 11.4851 73.1506 11.038C74.2229 10.5909 75.4036 10.4721 76.5434 10.6965C77.6832 10.9209 78.7307 11.4784 79.5536 12.2986C80.3763 13.1187 80.9371 14.1644 81.1651 15.3036C81.393 16.4427 81.2779 17.6238 80.8342 18.6974C80.3905 19.771 79.6382 20.6888 78.6726 21.3346C77.7069 21.9803 76.5714 22.3251 75.4096 22.3251C74.6388 22.3332 73.874 22.1879 73.1599 21.8975C72.4457 21.6072 71.7965 21.1774 71.2502 20.6335C70.7038 20.0896 70.2713 19.4424 69.9777 18.7294C69.684 18.0166 69.5353 17.2525 69.5401 16.4816V16.474ZM77.9618 16.474C77.949 15.9726 77.7886 15.4861 77.5007 15.0753C77.2128 14.6647 76.8101 14.348 76.3431 14.165C75.8761 13.9819 75.3655 13.9407 74.8752 14.0465C74.3849 14.1522 73.9366 14.4002 73.5866 14.7593C73.2365 15.1186 73.0001 15.573 72.907 16.0659C72.8139 16.5587 72.8682 17.0681 73.0631 17.5302C73.2581 17.9924 73.585 18.3867 74.0029 18.6641C74.4209 18.9414 74.9114 19.0892 75.4129 19.0892C75.7552 19.0982 76.0955 19.0366 76.4128 18.908C76.7301 18.7794 77.0174 18.5866 77.2567 18.3418C77.4959 18.0971 77.6821 17.8054 77.8034 17.4853C77.9249 17.1652 77.9788 16.8235 77.9618 16.4816V16.474Z" fill="#B9C6D8"/>
</svg>
