<svg width="150" height="33" viewBox="0 0 150 33" fill="none" xmlns="http://www.w3.org/2000/svg">
<path d="M24.0204 14.3259C23.6143 14.7344 23.3034 15.2275 23.1097 15.7698C22.916 16.3123 22.8443 16.8907 22.8997 17.4641L22.8804 17.4448C22.9374 18.1197 22.8463 18.7987 22.6137 19.4349C22.3811 20.0709 22.0126 20.6485 21.5337 21.1274C21.0548 21.6062 20.4772 21.9749 19.8411 22.2074C19.2051 22.44 18.5259 22.5311 17.8511 22.4741L17.8704 22.4934C17.0632 22.4182 16.2524 22.5939 15.5486 22.9964C14.8449 23.3989 14.2824 24.0087 13.9379 24.7426C13.5935 25.4765 13.4837 26.2987 13.6236 27.0974C13.7636 27.8959 14.1464 28.6319 14.72 29.2049C15.2935 29.7779 16.0298 30.1601 16.8284 30.2992C17.6272 30.4385 18.4493 30.328 19.1829 29.9829C19.9165 29.6376 20.5257 29.0747 20.9276 28.3706C21.3295 27.6664 21.5045 26.8556 21.4286 26.0484L21.449 26.0676C21.392 25.3929 21.4829 24.7137 21.7156 24.0776C21.9482 23.4416 22.3168 22.864 22.7957 22.385C23.2746 21.9062 23.8522 21.5375 24.4882 21.305C25.1243 21.0724 25.8034 20.9814 26.4783 21.0384L26.4579 21.0191C27.1173 21.0783 27.781 20.9702 28.3876 20.7047C28.994 20.4392 29.5237 20.0249 29.9274 19.5002C30.3311 18.9755 30.596 18.3573 30.6971 17.7031C30.7984 17.0488 30.7328 16.3796 30.5065 15.7573C30.2802 15.1351 29.9005 14.5801 29.4026 14.1437C28.9047 13.7073 28.3047 13.4037 27.6582 13.261C27.0117 13.1182 26.3396 13.141 25.7043 13.3271C25.0689 13.5133 24.4909 13.8568 24.0236 14.3259H24.0204Z" fill="#B9C6D8"/>
<path d="M16.1165 19.9671L16.0961 19.9478C16.6696 20.0056 17.2488 19.9352 17.792 19.7417C18.335 19.5482 18.8282 19.2365 19.236 18.829C19.6437 18.4216 19.9559 17.9285 20.1497 17.3856C20.3437 16.8427 20.4145 16.2636 20.3572 15.69L20.3775 15.7092C20.3205 15.0344 20.4116 14.3553 20.6441 13.7192C20.8767 13.0832 21.2454 12.5056 21.7242 12.0266C22.2031 11.5478 22.7807 11.1791 23.4167 10.9466C24.0528 10.714 24.7319 10.623 25.4068 10.68L25.3865 10.6607C26.1938 10.7365 27.0047 10.5614 27.7089 10.1594C28.4131 9.75729 28.9761 9.14779 29.3211 8.414C29.6661 7.68022 29.7763 6.85787 29.6368 6.0591C29.4973 5.26034 29.1148 4.52408 28.5414 3.95071C27.9681 3.37736 27.2318 2.99482 26.433 2.8553C25.6343 2.71576 24.812 2.82603 24.0781 3.17105C23.3443 3.51606 22.7349 4.07904 22.3328 4.78319C21.9307 5.48734 21.7556 6.29838 21.8315 7.10568L21.8122 7.08532C21.8693 7.7602 21.7784 8.43942 21.5459 9.07555C21.3134 9.71168 20.9447 10.2894 20.4659 10.7684C19.987 11.2472 19.4093 11.6159 18.7732 11.8484C18.137 12.0809 17.4578 12.1717 16.7829 12.1146L16.8022 12.135C16.2286 12.0772 15.6493 12.1476 15.1063 12.3411C14.5633 12.5345 14.07 12.8463 13.6622 13.2537C13.2545 13.6612 12.9423 14.1543 12.7484 14.6972C12.5546 15.2401 12.4838 15.8192 12.5411 16.3928L12.5218 16.3735C12.5786 17.0483 12.4874 17.7274 12.2548 18.3634C12.0221 18.9993 11.6535 19.5769 11.1747 20.0557C10.6958 20.5345 10.1183 20.9031 9.48234 21.1358C8.84638 21.3684 8.16732 21.4596 7.49253 21.4028L7.51181 21.4221C6.70451 21.3463 5.89347 21.5213 5.18932 21.9234C4.48518 22.3255 3.92219 22.935 3.57718 23.6688C3.23216 24.4026 3.12189 25.2249 3.26142 26.0237C3.40095 26.8224 3.7835 27.5587 4.35685 28.132C4.93021 28.7055 5.66648 29.088 6.46524 29.2275C7.264 29.367 8.08635 29.2567 8.82014 28.9117C9.55392 28.5667 10.1634 28.0038 10.5655 27.2996C10.9676 26.5954 11.1427 25.7844 11.0668 24.9771L11.0872 24.9964C11.0302 24.3215 11.1212 23.6424 11.3538 23.0063C11.5863 22.3703 11.955 21.7927 12.4338 21.3138C12.9128 20.835 13.4904 20.4663 14.1264 20.2338C14.7625 20.0012 15.4416 19.9101 16.1165 19.9671Z" fill="#B9C6D8"/>
<path d="M8.93552 17.8167C9.34162 17.4083 9.65252 16.9152 9.84607 16.3728C10.0396 15.8303 10.111 15.2517 10.0552 14.6785L10.0755 14.6978C10.0185 14.0228 10.1095 13.3434 10.3423 12.7072C10.575 12.071 10.9438 11.4933 11.423 11.0143C11.9021 10.5354 12.4799 10.1669 13.1162 9.93441C13.7526 9.70196 14.432 9.61121 15.107 9.66851L15.0866 9.64922C15.8936 9.72483 16.7043 9.54966 17.4082 9.14762C18.112 8.74559 18.6746 8.13624 19.0195 7.40268C19.3643 6.66912 19.4744 5.84706 19.3349 5.0486C19.1954 4.25014 18.8129 3.51416 18.2398 2.94101C17.6667 2.36786 16.9306 1.98544 16.1322 1.84592C15.3338 1.70639 14.5117 1.81655 13.7782 2.16136C13.0446 2.50617 12.4352 3.06885 12.0332 3.77267C11.6311 4.47649 11.456 5.2872 11.5316 6.09422L11.5123 6.07494C11.5693 6.74977 11.4782 7.42892 11.2456 8.06496C11.013 8.70101 10.6445 9.27863 10.1656 9.75751C9.68671 10.2364 9.10908 10.605 8.47304 10.8375C7.837 11.0701 7.15786 11.1612 6.48302 11.1042L6.50231 11.1235C5.84292 11.0644 5.17927 11.1727 4.57286 11.4383C3.96645 11.7039 3.4369 12.1183 3.03328 12.6431C2.62966 13.1678 2.36504 13.786 2.26392 14.4402C2.16281 15.0945 2.22848 15.7638 2.45484 16.3858C2.6812 17.008 3.06094 17.5629 3.55887 17.9992C4.05679 18.4356 4.65679 18.7391 5.30327 18.8818C5.94974 19.0244 6.62177 19.0016 7.2571 18.8155C7.89241 18.6293 8.47045 18.2858 8.93766 17.8167H8.93552Z" fill="#B9C6D8"/>
<path d="M42.1255 7.13037H45.3076V22.6157H42.1255V7.13037Z" fill="#B9C6D8"/>
<path d="M47.1095 17.3133C47.1051 16.2006 47.4311 15.1113 48.0461 14.1839C48.6611 13.2565 49.5375 12.5324 50.5643 12.1035C51.5912 11.6745 52.7222 11.56 53.8142 11.7744C54.9062 11.9888 55.91 12.5223 56.6985 13.3077C57.487 14.0929 58.0246 15.0946 58.2434 16.1858C58.4622 17.2769 58.3521 18.4084 57.9273 19.437C57.5025 20.4655 56.782 21.3449 55.857 21.9636C54.9319 22.5823 53.8442 22.9126 52.7313 22.9126C51.9927 22.9211 51.2597 22.7821 50.5753 22.504C49.8908 22.2258 49.2688 21.8141 48.7454 21.2928C48.2219 20.7715 47.8077 20.151 47.5268 19.4678C47.2459 18.7845 47.1041 18.0521 47.1095 17.3133ZM55.171 17.3133C55.1577 16.8337 55.0033 16.3686 54.7272 15.9761C54.451 15.5837 54.0652 15.2814 53.6182 15.1071C53.1711 14.9326 52.6827 14.8938 52.2137 14.9956C51.7447 15.0974 51.3162 15.3351 50.9816 15.6791C50.6471 16.023 50.4212 16.458 50.3326 16.9297C50.2439 17.4012 50.2961 17.8885 50.4828 18.3306C50.6696 18.7726 50.9824 19.1498 51.3823 19.4149C51.7822 19.6801 52.2515 19.8216 52.7313 19.8216C53.0599 19.8303 53.3868 19.7709 53.6914 19.647C53.9959 19.5232 54.2715 19.3376 54.5007 19.102C54.7298 18.8663 54.9078 18.5857 55.0231 18.2778C55.1385 17.97 55.1888 17.6416 55.171 17.3133Z" fill="#B9C6D8"/>
<path d="M71.0355 12.0098V22.0812C71.0355 25.6448 68.2563 27.1512 65.4352 27.1512C64.442 27.2256 63.4474 27.0249 62.5605 26.5714C61.6738 26.1177 60.9291 25.4287 60.408 24.5798L63.123 23.0101C63.342 23.4527 63.691 23.8177 64.1231 24.0565C64.5553 24.2952 65.0501 24.3964 65.5413 24.3462C65.8552 24.3897 66.1749 24.3621 66.4767 24.2653C66.7784 24.1686 67.0547 24.0052 67.2848 23.7874C67.5149 23.5694 67.6931 23.3027 67.8063 23.0065C67.9193 22.7105 67.9643 22.3928 67.938 22.0769V21.1073C67.5654 21.5632 67.0912 21.9254 66.5532 22.1649C66.0153 22.4044 65.4288 22.5144 64.8405 22.4862C63.441 22.4421 62.1137 21.8551 61.1393 20.8495C60.1649 19.844 59.6201 18.4987 59.6201 17.0985C59.6201 15.6984 60.1649 14.3531 61.1393 13.3476C62.1137 12.3419 63.441 11.755 64.8405 11.7109C65.4288 11.6827 66.0153 11.7927 66.5532 12.0322C67.0912 12.2716 67.5654 12.6339 67.938 13.0898V12.0076L71.0355 12.0098ZM67.9391 17.1001C67.9605 16.5874 67.8279 16.0798 67.5584 15.643C67.289 15.2061 66.8949 14.8599 66.427 14.6489C65.9591 14.4379 65.4388 14.3718 64.933 14.459C64.4272 14.5462 63.9591 14.7828 63.5888 15.1384C63.2186 15.4939 62.9633 15.952 62.8556 16.4539C62.748 16.9557 62.793 17.4784 62.985 17.9544C63.1769 18.4304 63.5069 18.8382 63.9325 19.1251C64.3581 19.4121 64.8598 19.5651 65.373 19.5644C65.7074 19.5878 66.0429 19.5409 66.358 19.4266C66.6731 19.3124 66.9608 19.1334 67.2025 18.9013C67.4442 18.6691 67.6347 18.389 67.7616 18.0787C67.8884 17.7685 67.949 17.4352 67.9391 17.1001Z" fill="#B9C6D8"/>
<path d="M72.8376 17.3133C72.8332 16.2006 73.159 15.1113 73.7741 14.1839C74.3891 13.2565 75.2655 12.5324 76.2924 12.1035C77.3192 11.6745 78.4502 11.56 79.5422 11.7744C80.6342 11.9888 81.6381 12.5223 82.4265 13.3077C83.215 14.0929 83.7526 15.0946 83.9714 16.1858C84.1902 17.2769 84.0802 18.4084 83.6553 19.437C83.2305 20.4655 82.51 21.3449 81.585 21.9636C80.66 22.5823 79.5722 22.9126 78.4593 22.9126C77.7207 22.9211 76.9876 22.7821 76.3033 22.504C75.6189 22.2258 74.9968 21.8141 74.4734 21.2928C73.9499 20.7715 73.5357 20.151 73.2549 19.4678C72.9739 18.7845 72.8321 18.0521 72.8376 17.3133ZM80.899 17.3133C80.8857 16.8337 80.7313 16.3686 80.4552 15.9761C80.179 15.5837 79.7933 15.2814 79.3463 15.1071C78.8992 14.9326 78.4106 14.8938 77.9417 14.9956C77.4728 15.0974 77.0442 15.3351 76.7096 15.6791C76.3751 16.023 76.1492 16.458 76.0605 16.9297C75.9718 17.4012 76.0241 17.8885 76.2108 18.3306C76.3976 18.7726 76.7104 19.1498 77.1103 19.4149C77.5103 19.6801 77.9794 19.8216 78.4593 19.8216C78.7879 19.8303 79.1148 19.7709 79.4193 19.647C79.724 19.5232 79.9995 19.3376 80.2287 19.102C80.4579 18.8663 80.6358 18.5857 80.7511 18.2778C80.8665 17.97 80.9169 17.6416 80.899 17.3133Z" fill="#B9C6D8"/>
<path d="M85.5654 9.16698C85.5654 8.78935 85.6774 8.42021 85.8872 8.10624C86.097 7.79226 86.3952 7.54754 86.7441 7.40303C87.093 7.25852 87.4769 7.22071 87.8473 7.29438C88.2175 7.36805 88.5578 7.54989 88.8248 7.81691C89.0918 8.08392 89.2736 8.42412 89.3474 8.7945C89.421 9.16486 89.3831 9.54875 89.2387 9.89763C89.0942 10.2465 88.8495 10.5447 88.5354 10.7545C88.2215 10.9643 87.8524 11.0763 87.4747 11.0763C86.97 11.0712 86.4872 10.8685 86.1302 10.5115C85.7733 10.1545 85.5705 9.67179 85.5654 9.16698ZM85.8869 12.0095H89.0701V22.6166H85.8826L85.8869 12.0095Z" fill="#B9C6D8"/>
<path d="M102.81 17.3131C102.846 18.0141 102.744 18.7154 102.509 19.3768C102.274 20.0382 101.91 20.6466 101.439 21.167C100.968 21.6873 100.398 22.1094 99.7637 22.409C99.1287 22.7084 98.441 22.8796 97.7397 22.9123C97.15 22.9445 96.5606 22.8451 96.0141 22.6212C95.4676 22.3973 94.9778 22.0547 94.5801 21.6181V26.8584H91.3979V12.0095H94.5801V13.0059C94.9779 12.5696 95.4679 12.2272 96.0143 12.0036C96.5608 11.7799 97.1501 11.6806 97.7397 11.7127C98.4411 11.7454 99.1291 11.9164 99.7641 12.2159C100.399 12.5155 100.969 12.9377 101.44 13.4582C101.911 13.9787 102.275 14.5872 102.51 15.2488C102.745 15.9103 102.847 16.6119 102.81 17.3131ZM99.6276 17.3131C99.6152 16.8167 99.4566 16.3349 99.1717 15.9281C98.8868 15.5214 98.4883 15.2077 98.0261 15.0264C97.5638 14.845 97.0583 14.804 96.5728 14.9086C96.0874 15.013 95.6436 15.2584 95.2969 15.6139C94.9502 15.9695 94.7161 16.4193 94.6238 16.9073C94.5316 17.3952 94.5852 17.8994 94.7782 18.3571C94.9711 18.8147 95.2947 19.2051 95.7085 19.4797C96.1223 19.7542 96.6078 19.9007 97.1044 19.9005C97.4453 19.9158 97.7856 19.8587 98.103 19.7331C98.4202 19.6076 98.7075 19.4164 98.9456 19.1721C99.1839 18.9277 99.3678 18.6358 99.4853 18.3155C99.6028 17.9951 99.6514 17.6534 99.6276 17.3131Z" fill="#B9C6D8"/>
<path d="M112.63 19.4336C112.63 21.8732 110.509 22.9125 108.219 22.9125C107.293 22.9963 106.364 22.8007 105.551 22.3506C104.738 21.9006 104.078 21.217 103.658 20.3882L106.414 18.8186C106.526 19.2016 106.766 19.535 107.093 19.7626C107.421 19.9904 107.817 20.099 108.214 20.07C108.977 20.07 109.36 19.8365 109.36 19.4132C109.36 18.2454 104.141 18.8615 104.141 15.1918C104.141 12.8786 106.093 11.7129 108.299 11.7129C109.128 11.6866 109.949 11.8834 110.677 12.2825C111.404 12.6817 112.012 13.2686 112.435 13.9822L109.72 15.4457C109.601 15.1679 109.403 14.9312 109.15 14.7653C108.897 14.5993 108.601 14.5115 108.299 14.5125C107.747 14.5125 107.408 14.7268 107.408 15.1061C107.412 16.3157 112.63 15.509 112.63 19.4336Z" fill="#B9C6D8"/>
<path d="M124.254 12.0098V22.6169H121.072V21.6194C120.704 22.0596 120.238 22.4064 119.711 22.6314C119.184 22.8564 118.612 22.9531 118.039 22.9137C115.897 22.9137 114.075 21.3869 114.075 18.5208V12.0098H117.257V18.0548C117.231 18.3074 117.259 18.5628 117.342 18.8032C117.423 19.0436 117.557 19.2632 117.733 19.4468C117.909 19.6303 118.122 19.7733 118.359 19.866C118.594 19.9587 118.848 19.9988 119.102 19.9833C120.269 19.9833 121.075 19.3051 121.075 17.7987V12.013L124.254 12.0098Z" fill="#B9C6D8"/>
<path d="M142.5 16.1037V22.6159H139.318V16.3791C139.318 15.3184 138.809 14.6402 137.791 14.6402C136.73 14.6402 136.136 15.3827 136.136 16.6341V22.6159H132.955V16.3791C132.955 15.3184 132.446 14.6402 131.427 14.6402C130.366 14.6402 129.772 15.3827 129.772 16.6341V22.6159H126.59V12.0087H129.772V12.9837C130.102 12.5512 130.535 12.2081 131.031 11.986C131.529 11.7638 132.073 11.6696 132.615 11.712C133.159 11.6853 133.701 11.8002 134.189 12.0455C134.675 12.2906 135.09 12.6579 135.393 13.1112C135.746 12.6369 136.213 12.2598 136.751 12.0151C137.289 11.7704 137.88 11.6661 138.469 11.712C140.905 11.713 142.5 13.452 142.5 16.1037Z" fill="#B9C6D8"/>
<path d="M145.191 11.9443C146.495 11.9443 147.553 10.887 147.553 9.58286C147.553 8.27868 146.495 7.22144 145.191 7.22144C143.888 7.22144 142.83 8.27868 142.83 9.58286C142.83 10.887 143.888 11.9443 145.191 11.9443Z" fill="#B9C6D8"/>
</svg>
