<svg width="150" height="32" viewBox="0 0 150 32" fill="none" xmlns="http://www.w3.org/2000/svg">
<path d="M44.6006 10.0701H48.2296V22.2001H44.6006V10.0701ZM49.6691 17.6201C49.6691 14.6201 51.8949 12.8301 55.3304 12.8301C58.7659 12.8301 60.9917 14.6201 60.9917 17.6201C60.9917 20.6201 58.8143 22.4201 55.3304 22.4201C51.8466 22.4201 49.6691 20.6701 49.6691 17.6201ZM57.3506 17.6201C57.3506 15.9701 56.5643 15.0001 55.3304 15.0001C54.0966 15.0001 53.3224 16.0001 53.3224 17.6201C53.3224 19.2401 54.0845 20.2201 55.3304 20.2201C56.5764 20.2201 57.3506 19.3001 57.3506 17.6301V17.6201ZM62.3587 22.7901H65.8425C66.0084 23.0946 66.2887 23.3467 66.6418 23.5089C66.9949 23.671 67.4019 23.7346 67.8022 23.6901C69.1812 23.6901 69.907 23.0701 69.907 22.1701V20.4901H69.8345C69.5454 21.005 69.0761 21.4364 68.4875 21.7288C67.8989 22.0211 67.2177 22.1609 66.532 22.1301C63.8829 22.1301 62.1288 20.4601 62.1288 17.5901C62.1288 14.7201 63.7982 12.9101 66.5804 12.9101C67.2876 12.8872 67.9863 13.0435 68.5831 13.358C69.1798 13.6726 69.646 14.1304 69.9191 14.6701V13.0001H73.5482V22.1001C73.5482 24.2901 71.2135 25.6501 67.7659 25.6501C64.5603 25.6501 62.5643 24.4601 62.3587 22.8001V22.7901ZM69.9191 17.6101C69.9191 16.1501 69.1087 15.2301 67.8264 15.2301C66.5441 15.2301 65.7579 16.1401 65.7579 17.6101C65.7579 19.0801 66.532 19.9101 67.8264 19.9101C69.1208 19.9101 69.9191 19.1001 69.9191 17.6201V17.6101ZM74.9151 17.6101C74.9151 14.6101 77.1409 12.8201 80.5764 12.8201C84.0119 12.8201 86.2498 14.6101 86.2498 17.6101C86.2498 20.6101 84.0724 22.4101 80.5764 22.4101C77.0804 22.4101 74.9151 20.6701 74.9151 17.6201V17.6101ZM82.5966 17.6101C82.5966 15.9601 81.8103 14.9901 80.5764 14.9901C79.3425 14.9901 78.6288 16.0001 78.6288 17.6301C78.6288 19.2601 79.3909 20.2301 80.6248 20.2301C81.8587 20.2301 82.5966 19.3001 82.5966 17.6301V17.6101ZM87.6288 10.8201C87.6193 10.5172 87.7188 10.2188 87.9147 9.96267C88.1106 9.70657 88.3941 9.50433 88.7292 9.38157C89.0642 9.25881 89.4358 9.22106 89.7969 9.27311C90.158 9.32517 90.4923 9.46468 90.7573 9.67395C91.0225 9.88323 91.2063 10.1529 91.2858 10.4487C91.3653 10.7445 91.3367 11.0531 91.2037 11.3355C91.0707 11.6178 90.8393 11.8612 90.5388 12.0347C90.2385 12.2082 89.8823 12.3041 89.5159 12.3101C89.273 12.3239 89.0293 12.296 88.8 12.2282C88.5707 12.1604 88.3609 12.0542 88.1837 11.9161C88.0065 11.7781 87.8657 11.6112 87.7702 11.426C87.6747 11.2409 87.6265 11.0414 87.6288 10.8401V10.8201ZM87.6288 13.0201H91.2579V22.2001H87.6288V13.0201ZM104.431 17.6101C104.431 20.6101 102.822 22.3201 100.064 22.3201C99.3571 22.3576 98.653 22.2147 98.0472 21.9107C97.4414 21.6066 96.9632 21.1561 96.6772 20.6201H96.6046V25.1401H92.9756V13.0001H96.6046V14.6401H96.6772C96.9499 14.0952 97.419 13.633 98.0207 13.3163C98.6224 12.9996 99.3275 12.8438 100.04 12.8701C102.822 12.9101 104.48 14.6301 104.48 17.6301L104.431 17.6101ZM100.802 17.6101C100.802 16.1501 99.9917 15.2201 98.7216 15.2201C97.4514 15.2201 96.6409 16.1601 96.6288 17.6101C96.6167 19.0601 97.4514 19.9901 98.7216 19.9901C99.9917 19.9901 100.802 19.0801 100.802 17.6301V17.6101ZM110.661 12.8101C113.673 12.8101 115.5 13.9901 115.584 15.8801H112.282C112.282 15.2301 111.629 14.8201 110.625 14.8201C109.621 14.8201 109.173 15.1401 109.173 15.6101C109.173 16.0801 109.572 16.2301 110.383 16.3701L112.705 16.7601C114.919 17.1501 115.863 17.8901 115.863 19.2801C115.863 21.1801 113.77 22.4001 110.685 22.4001C107.601 22.4001 105.58 21.1801 105.423 19.3101H108.919C109.028 19.9901 109.681 20.3901 110.746 20.3901C111.81 20.3901 112.294 20.1001 112.294 19.6201C112.294 19.1401 111.955 19.0401 111.084 18.8901L108.992 18.5201C106.826 18.1501 105.689 17.2001 105.689 15.8001C105.714 14.0001 107.661 12.8301 110.661 12.8301V12.8101ZM127.972 22.1801H124.476V20.4701H124.403C124.211 21.0442 123.787 21.5467 123.202 21.8942C122.616 22.2416 121.905 22.4131 121.185 22.3801C120.634 22.406 120.082 22.3338 119.568 22.1683C119.053 22.0028 118.587 21.748 118.202 21.4209C117.817 21.0939 117.521 20.7022 117.334 20.2725C117.148 19.8428 117.075 19.385 117.121 18.9301V13.0001H120.75V18.2401C120.75 19.3301 121.427 19.9101 122.552 19.9101C122.816 19.9105 123.077 19.8644 123.318 19.7747C123.557 19.685 123.773 19.5538 123.947 19.39C124.12 19.2261 124.251 19.0334 124.327 18.8248C124.403 18.6161 124.426 18.3963 124.391 18.1801V13.0001H128.02L127.972 22.1801ZM129.726 13.0001H133.234V14.7701H133.306C133.499 14.2036 133.914 13.7058 134.484 13.3548C135.055 13.0038 135.752 12.8192 136.464 12.8301C137.188 12.7822 137.907 12.9613 138.479 13.3319C139.05 13.7025 139.432 14.2373 139.548 14.8301H139.621C139.84 14.231 140.295 13.7094 140.913 13.3473C141.53 12.9852 142.276 12.8032 143.032 12.8301C143.526 12.8164 144.017 12.8887 144.474 13.0423C144.932 13.1958 145.345 13.4273 145.687 13.7215C146.03 14.0158 146.293 14.3663 146.462 14.7502C146.628 15.1341 146.697 15.543 146.661 15.9501V22.2001H143.032V16.7501C143.032 15.7501 142.488 15.2901 141.472 15.2901C141.245 15.2885 141.02 15.3271 140.814 15.4033C140.607 15.4795 140.422 15.5915 140.272 15.7318C140.122 15.8721 140.009 16.0373 139.943 16.2164C139.876 16.3956 139.858 16.5844 139.887 16.7701V22.2001H136.439V16.7101C136.439 15.7901 135.895 15.2901 134.903 15.2901C134.674 15.2902 134.447 15.3304 134.239 15.4081C134.03 15.4859 133.842 15.5994 133.691 15.7411C133.539 15.8828 133.425 16.0496 133.356 16.2305C133.288 16.4113 133.266 16.602 133.294 16.7901V22.2001H129.665L129.726 13.0001Z" fill="#B9C6D8"/>
<path d="M34.4516 10.62C33.836 9.45637 33.0213 8.37194 32.0323 7.40001C30.5704 5.92035 28.746 4.7134 26.6791 3.85861C24.6122 3.00383 22.3498 2.52058 20.0408 2.44067C17.7317 2.36076 15.4284 2.686 13.2823 3.395C11.1363 4.10399 9.1962 5.18066 7.58979 6.55414C5.98336 7.92761 4.74701 9.56676 3.96211 11.3637C3.17721 13.1606 2.86154 15.0746 3.03591 16.9796C3.21028 18.8847 3.87071 20.7376 4.97374 22.4164C6.07677 24.0953 7.59739 25.562 9.43552 26.72C10.615 27.4779 11.9182 28.094 13.3065 28.55C15.2529 29.2094 17.336 29.549 19.4395 29.55C23.7816 29.5421 27.9426 28.1113 31.0107 25.5713C34.0787 23.0313 35.8033 19.5894 35.8065 16C35.8096 14.1485 35.3484 12.3166 34.4516 10.62ZM19.4274 5.19C21.3165 5.18984 23.1826 5.53114 24.8952 6.19C24.4776 6.33917 24.0385 6.44336 23.5887 6.50001C22.1088 6.6771 20.7379 7.24508 19.6805 8.11918C18.6231 8.99327 17.936 10.1266 17.7218 11.35C17.6278 12.0361 17.2503 12.6744 16.6531 13.1572C16.0558 13.64 15.2755 13.9376 14.4436 14C12.9637 14.1771 11.5927 14.7451 10.5353 15.6192C9.47796 16.4933 8.79087 17.6266 8.57665 18.85C8.50412 19.5024 8.16741 20.1155 7.62101 20.59C6.67825 18.9433 6.25474 17.1261 6.38988 15.3077C6.52503 13.4893 7.21444 11.7287 8.39396 10.1897C9.57346 8.6508 11.2048 7.38352 13.136 6.50585C15.0673 5.62818 17.2358 5.16865 19.4395 5.17L19.4274 5.19ZM9.42343 23C9.56859 22.89 9.71375 22.79 9.85891 22.67C10.9351 21.8075 11.6259 20.6689 11.8186 19.44C11.8967 18.7492 12.2698 18.104 12.871 17.62C13.4496 17.1222 14.2283 16.8163 15.0605 16.76C16.5404 16.5829 17.9114 16.0149 18.9687 15.1408C20.0261 14.2667 20.7132 13.1334 20.9274 11.91C20.9798 11.1875 21.3548 10.5068 21.9799 10C22.5727 9.51186 23.3588 9.21711 24.1936 9.17C25.5531 9.01537 26.8211 8.51572 27.8226 7.74001C28.963 8.52208 29.929 9.4629 30.6774 10.52C30.6315 10.5713 30.5787 10.6183 30.5202 10.66C29.9428 11.1622 29.1651 11.4748 28.3307 11.54C26.8492 11.714 25.4762 12.281 24.4181 13.1556C23.3601 14.0303 22.6742 15.1653 22.4637 16.39C22.3785 17.0784 22.0079 17.7213 21.4149 18.2097C20.8218 18.6982 20.0428 19.0021 19.2097 19.07C17.7254 19.2457 16.3494 19.8126 15.2859 20.6863C14.2224 21.5601 13.5282 22.6941 13.3065 23.92C13.2414 24.4087 13.0383 24.878 12.7137 25.29C11.4726 24.6808 10.361 23.9072 9.42343 23ZM19.4274 26.86C18.2 26.8611 16.9783 26.7197 15.7984 26.44C16.2021 25.818 16.4645 25.1401 16.5726 24.44C16.6574 23.7531 17.0262 23.1114 17.6168 22.6232C18.2074 22.135 18.9836 21.8301 19.8145 21.76C21.2966 21.5849 22.6703 21.0178 23.7301 20.1435C24.7898 19.2693 25.4787 18.1348 25.6936 16.91C25.7784 16.2231 26.1472 15.5814 26.7378 15.0932C27.3283 14.605 28.1046 14.3001 28.9355 14.23C30.0508 14.1101 31.1139 13.7668 32.0323 13.23C32.5423 14.8279 32.6026 16.5011 32.2089 18.1213C31.8151 19.7415 30.9776 21.2657 29.7606 22.5768C28.5437 23.8878 26.9797 24.9511 25.1884 25.6849C23.3972 26.4187 21.4266 26.8036 19.4274 26.81V26.86Z" fill="#B9C6D8"/>
</svg>
