<svg width="11" height="11" viewBox="0 0 11 11" fill="none" xmlns="http://www.w3.org/2000/svg">
<path d="M5.75 2.80469C7.22656 2.80469 8.44531 4.02344 8.44531 5.5C8.44531 7 7.22656 8.19531 5.75 8.19531C4.25 8.19531 3.05469 7 3.05469 5.5C3.05469 4.02344 4.25 2.80469 5.75 2.80469ZM5.75 7.25781C6.71094 7.25781 7.48438 6.48438 7.48438 5.5C7.48438 4.53906 6.71094 3.76562 5.75 3.76562C4.76562 3.76562 3.99219 4.53906 3.99219 5.5C3.99219 6.48438 4.78906 7.25781 5.75 7.25781ZM9.17188 2.71094C9.17188 2.35938 8.89062 2.07812 8.53906 2.07812C8.1875 2.07812 7.90625 2.35938 7.90625 2.71094C7.90625 3.0625 8.1875 3.34375 8.53906 3.34375C8.89062 3.34375 9.17188 3.0625 9.17188 2.71094ZM10.9531 3.34375C11 4.21094 11 6.8125 10.9531 7.67969C10.9062 8.52344 10.7188 9.25 10.1094 9.88281C9.5 10.4922 8.75 10.6797 7.90625 10.7266C7.03906 10.7734 4.4375 10.7734 3.57031 10.7266C2.72656 10.6797 2 10.4922 1.36719 9.88281C0.757812 9.25 0.570312 8.52344 0.523438 7.67969C0.476562 6.8125 0.476562 4.21094 0.523438 3.34375C0.570312 2.5 0.757812 1.75 1.36719 1.14062C2 0.53125 2.72656 0.34375 3.57031 0.296875C4.4375 0.25 7.03906 0.25 7.90625 0.296875C8.75 0.34375 9.5 0.53125 10.1094 1.14062C10.7188 1.75 10.9062 2.5 10.9531 3.34375ZM9.82812 8.59375C10.1094 7.91406 10.0391 6.27344 10.0391 5.5C10.0391 4.75 10.1094 3.10938 9.82812 2.40625C9.64062 1.96094 9.28906 1.58594 8.84375 1.42188C8.14062 1.14062 6.5 1.21094 5.75 1.21094C4.97656 1.21094 3.33594 1.14062 2.65625 1.42188C2.1875 1.60938 1.83594 1.96094 1.64844 2.40625C1.36719 3.10938 1.4375 4.75 1.4375 5.5C1.4375 6.27344 1.36719 7.91406 1.64844 8.59375C1.83594 9.0625 2.1875 9.41406 2.65625 9.60156C3.33594 9.88281 4.97656 9.8125 5.75 9.8125C6.5 9.8125 8.14062 9.88281 8.84375 9.60156C9.28906 9.41406 9.66406 9.0625 9.82812 8.59375Z" fill="white"/>
</svg>
